<?xml version="1.0" encoding="UTF-8" standalone="no"?>
<!DOCTYPE svg PUBLIC "-//W3C//DTD SVG 1.1//EN" "http://www.w3.org/Graphics/SVG/1.1/DTD/svg11.dtd">
<!-- Created with Vectornator (http://vectornator.io/) -->
<svg height="100%" stroke-miterlimit="10" style="fill-rule:nonzero;clip-rule:evenodd;stroke-linecap:round;stroke-linejoin:round;" version="1.1" viewBox="0 0 103 56" width="100%" xml:space="preserve" xmlns="http://www.w3.org/2000/svg" xmlns:vectornator="http://vectornator.io" xmlns:xlink="http://www.w3.org/1999/xlink">
<defs/>
<clipPath id="ArtboardFrame">
<rect height="56" width="103" x="0" y="0"/>
</clipPath>
<g clip-path="url(#ArtboardFrame)" id="Untitled" vectornator:layerName="Untitled">
<g opacity="0">
<path d="M12.8 37.3L7.5 37.3L6.5 39.7L4.7 39.7L9.3 29.2L11.1 29.2L15.7 39.7L13.8 39.7L12.8 37.3ZM12.1 35.8L10.1 31.2L8.1 35.8L12.1 35.8Z" fill="#0f8ad2" fill-rule="evenodd" opacity="1" stroke="none"/>
<path d="M22.6 31.8L22.6 33L18 38.3L22.7 38.3L22.7 39.7L15.9 39.7L15.9 38.5L20.4 33.1L16 33.1L16 31.7L22.6 31.8Z" fill="#0f8ad2" fill-rule="evenodd" opacity="1" stroke="none"/>
<path d="M28.8 39.7L28.8 38.7C28.1 39.4 27.2 39.8 26.2 39.7C24.8 39.8 23.6 38.9 23.4 37.5C23.4 37.4 23.4 37.3 23.4 37.3C23.4 35.8 24.5 34.9 26.4 34.9L28.8 34.9L28.8 34.7C28.8 33.7 28.2 33.1 26.9 33.1C26.1 33.1 25.2 33.4 24.6 33.9L23.9 32.7C24.9 32 26.1 31.7 27.3 31.7C29.3 31.7 30.5 32.7 30.5 34.5L30.5 39.7L28.8 39.7ZM28.8 36.9L28.8 36.2L26.6 36.2C25.5 36.2 25 36.5 25 37.3C25 38.1 25.6 38.5 26.5 38.5C27.7 38.4 28.6 37.8 28.8 36.9Z" fill="#0f8ad2" fill-rule="evenodd" opacity="1" stroke="none"/>
<path d="M39.9 28.6L39.9 39.7L38.2 39.7L38.2 38.3C37.6 39.3 36.5 39.8 35.4 39.7C33.3 39.7 31.6 38.1 31.6 36C31.6 35.9 31.6 35.7 31.6 35.6C31.4 33.6 33 31.8 35 31.6L35.4 31.6C36.5 31.5 37.6 32.1 38.2 33.1L38.2 28.6L39.9 28.6ZM38.2 35.8C38.3 34.5 37.3 33.3 35.9 33.2C34.6 33.1 33.4 34.1 33.3 35.5L33.3 35.8C33.2 37.1 34.2 38.3 35.6 38.4C36.9 38.5 38.1 37.5 38.2 36.1C38.2 36 38.2 35.9 38.2 35.8Z" fill="#0f8ad2" fill-rule="evenodd" opacity="1" stroke="none"/>
<path d="M44 29.5C44 30.1 43.6 30.5 43 30.5C42.4 30.5 42 30.1 42 29.5C42 28.9 42.4 28.5 43 28.5C43.6 28.5 44 28.9 44 29.5ZM43.8 31.8L43.8 39.8L42.1 39.8L42.1 31.8L43.8 31.8Z" fill="#0f8ad2" fill-rule="evenodd" opacity="1" stroke="none"/>
<path d="M27 10.7C27.2 10.7 27.4 10.8 27.5 11C27.5 11.2 27.4 11.4 27.2 11.4C27 11.4 26.8 11.3 26.7 11.1C26.7 11 26.8 10.7 27 10.7Z" fill="#0f8ad2" fill-rule="evenodd" opacity="1" stroke="none"/>
<path d="M35.3 18C35.3 18.2 35.2 18.4 35 18.5C34.8 18.5 34.6 18.4 34.5 18.2C34.4 18 34.6 17.8 34.8 17.8C35.1 17.7 35.3 17.8 35.3 18Z" fill="#0f8ad2" fill-rule="evenodd" opacity="1" stroke="none"/>
<path d="M35.3 20.1C35.3 20.3 35.1 20.5 34.9 20.5C34.7 20.5 34.5 20.3 34.5 20.1C34.5 19.9 34.7 19.7 34.9 19.7C35.1 19.7 35.3 19.9 35.3 20.1Z" fill="#0f8ad2" fill-rule="evenodd" opacity="1" stroke="none"/>
<g opacity="1">
<path d="M22.6 12.5L26.3 16.3L27 17.4L27.8 18.5L26.9 17.6L25.9 16.6L22.6 12.5Z" fill="#0f8ad2" fill-rule="evenodd" opacity="1" stroke="none"/>
<path d="M24.3 11.4L26.8 16L27.3 17.2L27.8 18.5L27.1 17.4L26.4 16.2L24.3 11.4Z" fill="#0f8ad2" fill-rule="evenodd" opacity="1" stroke="none"/>
<path d="M26.1 10.8L27.5 15.9L27.6 17.2L27.8 18.5L27.4 17.2L27 16L26.1 10.8Z" fill="#0f8ad2" fill-rule="evenodd" opacity="1" stroke="none"/>
<path d="M28.1 10.7L28.1 15.9L28 17.2L27.8 18.5L27.7 17.2L27.7 15.9L28.1 10.7Z" fill="#0f8ad2" fill-rule="evenodd" opacity="1" stroke="none"/>
<path d="M30.1 11.1L28.8 16.1L28.3 17.3L27.8 18.5L28.1 17.2L28.3 16L30.1 11.1Z" fill="#0f8ad2" fill-rule="evenodd" opacity="1" stroke="none"/>
<path d="M31.9 12.1L29.3 16.5L28.6 17.5L27.8 18.5L28.4 17.4L29 16.2L31.9 12.1Z" fill="#0f8ad2" fill-rule="evenodd" opacity="1" stroke="none"/>
<path d="M33.4 13.4L29.8 17L28.8 17.7L27.8 18.5L28.6 17.5L29.5 16.6L33.4 13.4Z" fill="#0f8ad2" fill-rule="evenodd" opacity="1" stroke="none"/>
<path d="M34.5 15.2L30.1 17.6L29 18L27.8 18.5L28.9 17.8L29.9 17.2L34.5 15.2Z" fill="#0f8ad2" fill-rule="evenodd" opacity="1" stroke="none"/>
<path d="M35.2 17.1L30.3 18.3L29 18.4L27.8 18.5L29 18.1L30.2 17.8L35.2 17.1Z" fill="#0f8ad2" fill-rule="evenodd" opacity="1" stroke="none"/>
<path d="M35.4 19.1L30.3 18.9L29 18.7L27.8 18.5L29.1 18.5L30.3 18.5L35.4 19.1Z" fill="#0f8ad2" fill-rule="evenodd" opacity="1" stroke="none"/>
<path d="M35 21.1L30.1 19.6L29 19L27.8 18.5L29 18.8L30.3 19.1L35 21.1Z" fill="#0f8ad2" fill-rule="evenodd" opacity="1" stroke="none"/>
<path d="M34.2 23L29.8 20.2L28.8 19.3L27.8 18.5L28.9 19.1L30 19.8L34.2 23Z" fill="#0f8ad2" fill-rule="evenodd" opacity="1" stroke="none"/>
<path d="M32.9 24.5L29.3 20.6L28.6 19.5L27.8 18.5L28.7 19.4L29.7 20.3L32.9 24.5Z" fill="#0f8ad2" fill-rule="evenodd" opacity="1" stroke="none"/>
<path d="M31.3 25.6L28.8 20.9L28.3 19.7L27.8 18.5L28.5 19.6L29.2 20.7L31.3 25.6Z" fill="#0f8ad2" fill-rule="evenodd" opacity="1" stroke="none"/>
<path d="M29.5 26.2L28.1 21.1L28 19.8L27.8 18.5L28.2 19.7L28.6 21L29.5 26.2Z" fill="#0f8ad2" fill-rule="evenodd" opacity="1" stroke="none"/>
<path d="M27.5 26.3L27.4 21L27.6 19.8L27.8 18.5L27.9 19.8L27.9 21.1L27.5 26.3Z" fill="#0f8ad2" fill-rule="evenodd" opacity="1" stroke="none"/>
<path d="M25.5 25.8L26.8 20.8L27.3 19.7L27.8 18.5L27.5 19.7L27.3 21L25.5 25.8Z" fill="#0f8ad2" fill-rule="evenodd" opacity="1" stroke="none"/>
<path d="M23.7 24.9L26.2 20.5L27 19.5L27.8 18.5L27.2 19.6L26.6 20.8L23.7 24.9Z" fill="#0f8ad2" fill-rule="evenodd" opacity="1" stroke="none"/>
<path d="M22.2 23.5L25.8 20L26.8 19.2L27.8 18.5L26.9 19.4L26.1 20.3L22.2 23.5Z" fill="#0f8ad2" fill-rule="evenodd" opacity="1" stroke="none"/>
<path d="M21 21.8L25.4 19.4L26.6 18.9L27.8 18.5L26.7 19.1L25.7 19.8L21 21.8Z" fill="#0f8ad2" fill-rule="evenodd" opacity="1" stroke="none"/>
<path d="M20.4 19.9L25.3 18.7L26.5 18.6L27.8 18.5L26.6 18.8L25.4 19.2L20.4 19.9Z" fill="#0f8ad2" fill-rule="evenodd" opacity="1" stroke="none"/>
<path d="M20.2 17.8L25.3 18L26.5 18.2L27.8 18.5L26.5 18.5L25.3 18.5L20.2 17.8Z" fill="#0f8ad2" fill-rule="evenodd" opacity="1" stroke="none"/>
<path d="M20.5 15.8L25.5 17.4L26.6 17.9L27.8 18.5L26.5 18.1L25.3 17.8L20.5 15.8Z" fill="#0f8ad2" fill-rule="evenodd" opacity="1" stroke="none"/>
<path d="M21.4 14L25.8 16.8L26.8 17.6L27.8 18.5L26.7 17.8L25.5 17.2L21.4 14Z" fill="#0f8ad2" fill-rule="evenodd" opacity="1" stroke="none"/>
<path d="M25.1 11.1C25.3 11 25.5 11.1 25.6 11.3C25.7 11.5 25.6 11.7 25.4 11.8C25.2 11.9 25 11.8 24.9 11.6C24.9 11.4 24.9 11.2 25.1 11.1Z" fill="#0f8ad2" fill-rule="evenodd" opacity="1" stroke="none"/>
<path d="M29 10.9C29.2 10.9 29.4 11.1 29.4 11.3C29.4 11.5 29.2 11.7 29 11.7C28.8 11.7 28.6 11.5 28.6 11.3C28.6 11 28.8 10.9 29 10.9Z" fill="#0f8ad2" fill-rule="evenodd" opacity="1" stroke="none"/>
<path d="M30.9 11.5C31.1 11.6 31.2 11.8 31.1 12C31 12.2 30.8 12.3 30.6 12.2C30.4 12.1 30.3 11.9 30.4 11.7C30.5 11.6 30.7 11.5 30.9 11.5Z" fill="#0f8ad2" fill-rule="evenodd" opacity="1" stroke="none"/>
<path d="M32.6 12.7C32.8 12.8 32.8 13.1 32.7 13.2C32.6 13.4 32.4 13.4 32.2 13.3C32 13.2 32 13 32.1 12.8C32.2 12.6 32.4 12.6 32.6 12.7Z" fill="#0f8ad2" fill-rule="evenodd" opacity="1" stroke="none"/>
<path d="M34 14.2C34.2 14.4 34.2 14.6 34 14.8C33.9 14.9 33.6 15 33.5 14.8C33.4 14.6 33.4 14.4 33.5 14.2C33.6 14.1 33.9 14.1 34 14.2Z" fill="#0f8ad2" fill-rule="evenodd" opacity="1" stroke="none"/>
<path d="M34.9 16C35 16.2 34.9 16.4 34.7 16.5C34.5 16.6 34.3 16.5 34.2 16.3C34.1 16.1 34.2 15.9 34.4 15.8C34.6 15.8 34.8 15.9 34.9 16Z" fill="#0f8ad2" fill-rule="evenodd" opacity="1" stroke="none"/>
<path d="M34.7 22C34.6 22.2 34.4 22.3 34.3 22.2C34.1 22.1 34 21.9 34.1 21.7C34.2 21.5 34.4 21.4 34.6 21.5C34.6 21.6 34.8 21.8 34.7 22Z" fill="#0f8ad2" fill-rule="evenodd" opacity="1" stroke="none"/>
<path d="M33.6 23.7C33.5 23.9 33.3 23.9 33.1 23.8C32.9 23.7 32.9 23.4 33 23.3C33.1 23.1 33.3 23.1 33.5 23.2C33.7 23.3 33.8 23.5 33.6 23.7Z" fill="#0f8ad2" fill-rule="evenodd" opacity="1" stroke="none"/>
<path d="M32.2 25C32 25.1 31.8 25.1 31.7 25C31.6 24.8 31.6 24.6 31.7 24.5C31.9 24.4 32.1 24.4 32.2 24.5C32.3 24.6 32.3 24.8 32.2 25Z" fill="#0f8ad2" fill-rule="evenodd" opacity="1" stroke="none"/>
<path d="M30.5 25.9C30.3 26 30.1 25.9 30 25.7C29.9 25.5 30 25.3 30.2 25.2C30.4 25.1 30.6 25.2 30.7 25.5C30.7 25.6 30.6 25.8 30.5 25.9Z" fill="#0f8ad2" fill-rule="evenodd" opacity="1" stroke="none"/>
<path d="M28.5 26.2C28.3 26.2 28.1 26.1 28 25.9C27.9 25.7 28.1 25.5 28.3 25.4C28.5 25.4 28.7 25.5 28.7 25.7C28.9 26 28.8 26.2 28.5 26.2Z" fill="#0f8ad2" fill-rule="evenodd" opacity="1" stroke="none"/>
<path d="M26.5 26.1C26.3 26.1 26.1 25.9 26.1 25.7C26.1 25.5 26.3 25.3 26.5 25.3C26.7 25.3 26.9 25.5 26.9 25.7C26.9 25.9 26.8 26.1 26.5 26.1C26.6 26.1 26.6 26.1 26.5 26.1Z" fill="#0f8ad2" fill-rule="evenodd" opacity="1" stroke="none"/>
<path d="M27.1 17.7C27.5 17.4 28.1 17.4 28.5 17.8C28.9 18.2 28.8 18.8 28.4 19.2C28 19.5 27.4 19.5 27 19.1C26.7 18.7 26.7 18.1 27.1 17.7Z" fill="#0f8ad2" fill-rule="evenodd" opacity="1" stroke="none"/>
<path d="M33.6 13.3C31.4 10.6 27.7 9.7 24.5 11L24.5 11.7C27.5 10.3 31.1 11.1 33.2 13.7C35.9 16.8 35.7 21.4 32.8 24.3C30.5 26.3 27.2 26.6 24.6 25.1L24.6 25.8C27.4 27.3 30.8 26.9 33.2 24.8C36.3 21.6 36.6 16.6 33.6 13.3Z" fill="#0f8ad2" fill-rule="evenodd" opacity="1" stroke="none"/>
</g>
<path d="M54.1 43.3L51.4 39.6L50 41.2L50 43.3L48.6 43.3L48.6 34.9L50 34.9L50 39.2L54 34.9L55.7 34.9L52.4 38.5L55.9 43.3L54.1 43.3Z" fill="#0f8ad2" fill-rule="evenodd" opacity="1" stroke="none"/>
<path d="M60.5 43.3L60.5 42.5C60 43.1 59.2 43.4 58.4 43.3C57.3 43.4 56.3 42.6 56.2 41.5C56.2 41.4 56.2 41.3 56.2 41.3C56.2 40.1 57.1 39.4 58.6 39.4L60.5 39.4L60.5 39.2C60.5 38.4 60 38 59 38C58.3 38 57.7 38.2 57.1 38.6L56.5 37.6C57.3 37.1 58.3 36.8 59.2 36.8C60.8 36.8 61.7 37.6 61.8 39L61.8 43.2L60.5 43.3ZM60.5 41.1L60.5 40.5L58.8 40.5C57.9 40.5 57.5 40.7 57.5 41.3C57.5 41.9 58 42.3 58.7 42.3C59.6 42.3 60.4 41.8 60.5 41.1Z" fill="#0f8ad2" fill-rule="evenodd" opacity="1" stroke="none"/>
<path d="M37.8 45.5L41.2 52.5L44.6 45.5L46.7 45.5L46.7 56L45.1 56L45.1 48.2L41.8 54.9L40.6 54.9L37.3 48.2L37.3 56L35.6 56L35.6 45.5L37.8 45.5Z" fill="#0f8ad2" fill-rule="evenodd" opacity="1" stroke="none"/>
<path d="M53.8 55.9L53.8 55C53.1 55.7 52.2 56.1 51.2 56C49.8 56.1 48.6 55.2 48.4 53.8C48.4 53.7 48.4 53.6 48.4 53.6C48.4 52.1 49.5 51.2 51.4 51.2L53.8 51.2L53.8 51C53.8 50 53.2 49.4 51.9 49.4C51.1 49.4 50.2 49.7 49.6 50.2L48.9 49C49.9 48.3 51.1 48 52.3 48C54.3 48 55.5 49 55.5 50.8L55.5 56L53.8 55.9ZM53.8 53.1L53.8 52.4L51.6 52.4C50.5 52.4 50 52.7 50 53.5C50 54.3 50.6 54.7 51.5 54.7C52.8 54.6 53.7 54 53.8 53.1Z" fill="#0f8ad2" fill-rule="evenodd" opacity="1" stroke="none"/>
<path d="M65.1 51L65.1 56L63.4 56L63.4 51.5C63.5 50.5 62.8 49.7 61.8 49.6C61.7 49.6 61.6 49.6 61.5 49.6C60.3 49.6 59.2 50.6 59.2 51.8L59.2 52L59.2 55.9L57.5 55.9L57.5 44.8L59.2 44.8L59.2 49.5C59.8 48.4 60.9 47.8 62.1 47.9C63.6 47.8 65 49 65.1 50.5L65.1 51Z" fill="#0f8ad2" fill-rule="evenodd" opacity="1" stroke="none"/>
<path d="M74.5 51.9C74.6 54.2 72.8 56.1 70.5 56.2C68.2 56.3 66.3 54.5 66.2 52.2C66.1 49.9 67.9 48 70.2 47.9L70.3 47.9C72.5 47.8 74.3 49.4 74.4 51.6C74.5 51.7 74.5 51.8 74.5 51.9ZM68 52C68.1 53.3 69.2 54.3 70.6 54.3C71.9 54.2 72.9 53.1 72.9 51.7C72.8 50.4 71.8 49.4 70.5 49.4C69.2 49.4 68.1 50.4 68.1 51.8C68 51.9 68 51.9 68 52Z" fill="#0f8ad2" fill-rule="evenodd" opacity="1" stroke="none"/>
<path d="M80.4 55.4C79.8 55.8 79.1 56 78.4 56C77.2 56.1 76.3 55.2 76.2 54.1C76.2 54 76.2 53.8 76.2 53.7L76.2 49.6L75.1 49.6L75.1 48.3L76.2 48.3L76.2 46.1L78 46.1L78 48.3L80.3 48.3L80.3 49.6L78 49.6L78 53.4C78 54.2 78.3 54.5 78.8 54.5C79.2 54.5 79.6 54.4 80 54.1L80.4 55.4Z" fill="#0f8ad2" fill-rule="evenodd" opacity="1" stroke="none"/>
<path d="M83.9 49.3C83.2 49.3 82.7 49.5 82.7 50.1C82.7 51.6 86.9 50.8 86.9 53.7C86.9 55.3 85.5 56.1 83.9 56.1C82.7 56.1 81.6 55.7 80.7 55L81.3 53.8C82 54.4 83 54.8 84 54.8C84.7 54.8 85.3 54.6 85.3 54C85.3 52.4 81.1 53.3 81.1 50.4C81.1 48.8 82.5 48.1 84 48.1C85 48.1 85.9 48.4 86.8 48.9L86.1 50C85.5 49.6 84.7 49.3 83.9 49.3Z" fill="#0f8ad2" fill-rule="evenodd" opacity="1" stroke="none"/>
<path d="M93 55.9L93 55C92.3 55.7 91.4 56.1 90.4 56C89 56.2 87.8 55.2 87.6 53.8C87.6 53.7 87.6 53.6 87.6 53.5C87.6 52 88.7 51.1 90.6 51.1L93 51.1L93 50.9C93 49.9 92.4 49.3 91.1 49.3C90.3 49.3 89.4 49.6 88.8 50.1L88.1 48.9C89.1 48.2 90.3 47.9 91.5 47.9C93.5 47.9 94.7 48.9 94.7 50.7L94.7 55.9L93 55.9ZM93 53.1L93 52.4L90.8 52.4C89.7 52.4 89.2 52.7 89.2 53.5C89.2 54.3 89.8 54.7 90.7 54.7C92 54.6 92.9 54 93 53.1Z" fill="#0f8ad2" fill-rule="evenodd" opacity="1" stroke="none"/>
<path d="M96.9 48L99.1 54.3L101.3 48L103 48L100 56L98.2 56L95.1 48L96.9 48Z" fill="#0f8ad2" fill-rule="evenodd" opacity="1" stroke="none"/>
<path d="M6.5 49.8L2.3 49.8L1.5 51.7L1.78814e-07 51.7L3.7 43.3L5.1 43.3L8.8 51.7L7.3 51.7L6.5 49.8ZM5.9 48.5L4.3 44.8L2.7 48.5L5.9 48.5Z" fill="#0f8ad2" fill-rule="evenodd" opacity="1" stroke="none"/>
<path d="M20.1 47.7L20.1 51.7L18.7 51.7L18.7 48.1C18.8 47.3 18.2 46.6 17.5 46.5C17.4 46.5 17.3 46.5 17.2 46.5C16.2 46.5 15.4 47.4 15.5 48.4L15.5 48.5L15.5 51.6L14.1 51.6L14.1 48C14.2 47.2 13.6 46.5 12.9 46.4C12.8 46.4 12.7 46.4 12.7 46.4C11.7 46.4 10.9 47.3 10.9 48.3L10.9 48.4L10.9 51.5L9.5 51.5L9.5 45.1L10.9 45.1L10.9 46.3C11.3 45.4 12.2 44.9 13.2 45C14.2 44.9 15.1 45.6 15.4 46.5C15.8 45.5 16.7 44.9 17.8 45C19 44.9 20.1 45.8 20.1 47.1L20.1 47.7Z" fill="#0f8ad2" fill-rule="evenodd" opacity="1" stroke="none"/>
<path d="M25.2 45.3L25.2 46.6C24.1 46.5 23.2 47.2 23 48.2L23 48.3L23 51.6L21.6 51.6L21.6 45.2L23 45.2L23 46.5C23.4 45.8 24.3 45.2 25.2 45.3Z" fill="#0f8ad2" fill-rule="evenodd" opacity="1" stroke="none"/>
<path d="M27.5 43.5C27.5 43.9 27.1 44.3 26.7 44.3C26.3 44.3 25.9 43.9 25.9 43.5C25.9 43.1 26.3 42.7 26.7 42.7C27.1 42.7 27.5 43 27.5 43.5ZM27.4 45.3L27.4 51.7L26 51.7L26 45.3L27.4 45.3Z" fill="#0f8ad2" fill-rule="evenodd" opacity="1" stroke="none"/>
<path d="M32.7 51.3C32.2 51.6 31.7 51.8 31.1 51.8C30.2 51.9 29.4 51.2 29.3 50.2C29.3 50.1 29.3 50 29.3 49.9L29.3 46.6L28.4 46.6L28.4 45.6L29.3 45.6L29.3 43.8L30.7 43.8L30.7 45.6L32.6 45.6L32.6 46.6L30.7 46.6L30.7 49.6C30.7 50.3 30.9 50.5 31.4 50.5C31.8 50.5 32.1 50.4 32.4 50.2L32.7 51.3Z" fill="#0f8ad2" fill-rule="evenodd" opacity="1" stroke="none"/>
<path d="M83.2 8.9C82.8 8.8 82.4 8.8 82.1 9C79.3 10.2 76.2 10.3 73.3 9.4C70.9 8.6 68.4 8.1 65.9 7.8C61.4 7.4 57.4 9 53.5 11C51.8 12 50.1 12.7 48.2 13.2C46.5 13.6 45.9 12.9 46.2 11.2C46.5 9.8 46.1 9.2 44.8 8.7C44.4 8.6 44 8.5 43.7 8.4C38.9 7.9 34 8.4 29.4 9.7L29 9.9C29 9.9 34.3 9.5 36.6 14.2C39.5 13.8 42.5 13.8 45.4 14.3C46.6 14.5 47.1 15.1 46.6 16.3C46.4 16.8 46.3 17.3 46.3 17.8C46.2 19.4 46.9 20 48.4 19.6C48.9 19.5 49.4 19.3 49.9 19.1C52 18.1 54.1 17 56.1 15.7C58.2 14.3 60.6 13.4 63.1 13.1C66.5 12.7 69.9 13 73.3 12.9C76.2 12.8 79.1 12.5 81.6 10.7C82.3 10.4 82.9 9.7 83.2 8.9Z" fill="#f6921e" fill-rule="evenodd" opacity="1" stroke="none"/>
<path d="M83.2 19.6C82.8 19.4 82.4 19.5 82.1 19.7C79.3 20.9 76.2 21 73.3 20.1C70.9 19.3 68.4 18.8 65.9 18.6C61.4 18.2 57.3 19.8 53.4 21.8C51.7 22.8 50 23.5 48.1 24C46.4 24.4 45.8 23.7 46.1 22C46.4 20.6 46 20 44.7 19.5C44.3 19.4 43.9 19.3 43.6 19.2C41.6 19 39.6 18.9 37.6 19.1C37.3 21.8 35.8 24.3 33.4 25.7L34.7 25.4C38.2 24.6 41.8 24.6 45.3 25.1C46.5 25.3 47 25.9 46.5 27.1C46.3 27.6 46.2 28.1 46.2 28.6C46.1 30.2 46.8 30.8 48.3 30.4C48.8 30.3 49.3 30.1 49.8 29.9C51.9 28.9 54 27.8 56 26.5C58.1 25.1 60.4 24.1 62.9 23.9C66.3 23.5 69.7 23.8 73.1 23.7C76 23.6 78.9 23.2 81.4 21.5C82.3 21.2 82.9 20.5 83.2 19.6Z" fill="#00a04e" fill-rule="evenodd" opacity="1" stroke="none"/>
<path d="M5.4 0L5.4 2.3L19 2.3L7.5 23.5L9.4 24.9L23.1 1.07288e-06L5.4 0Z" fill="#0f8ad2" fill-rule="evenodd" opacity="1" stroke="none"/>
<path d="M36.1 0L25.5 0L17.7 14.1L19.5 14.9L26.6 2.3L36.1 2.3L36.1 0Z" fill="#0f8ad2" fill-rule="evenodd" opacity="1" stroke="none"/>
</g>
<g opacity="0">
<path d="M12.8 37.3L7.5 37.3L6.5 39.7L4.7 39.7L9.3 29.2L11.1 29.2L15.7 39.7L13.8 39.7L12.8 37.3ZM12.1 35.8L10.1 31.2L8.1 35.8L12.1 35.8Z" fill="#f8f8f8" fill-rule="evenodd" opacity="1" stroke="none"/>
<path d="M22.6 31.8L22.6 33L18 38.3L22.7 38.3L22.7 39.7L15.9 39.7L15.9 38.5L20.4 33.1L16 33.1L16 31.7L22.6 31.8Z" fill="#f8f8f8" fill-rule="evenodd" opacity="1" stroke="none"/>
<path d="M28.8 39.7L28.8 38.7C28.1 39.4 27.2 39.8 26.2 39.7C24.8 39.8 23.6 38.9 23.4 37.5C23.4 37.4 23.4 37.3 23.4 37.3C23.4 35.8 24.5 34.9 26.4 34.9L28.8 34.9L28.8 34.7C28.8 33.7 28.2 33.1 26.9 33.1C26.1 33.1 25.2 33.4 24.6 33.9L23.9 32.7C24.9 32 26.1 31.7 27.3 31.7C29.3 31.7 30.5 32.7 30.5 34.5L30.5 39.7L28.8 39.7ZM28.8 36.9L28.8 36.2L26.6 36.2C25.5 36.2 25 36.5 25 37.3C25 38.1 25.6 38.5 26.5 38.5C27.7 38.4 28.6 37.8 28.8 36.9Z" fill="#f8f8f8" fill-rule="evenodd" opacity="1" stroke="none"/>
<path d="M39.9 28.6L39.9 39.7L38.2 39.7L38.2 38.3C37.6 39.3 36.5 39.8 35.4 39.7C33.3 39.7 31.6 38.1 31.6 36C31.6 35.9 31.6 35.7 31.6 35.6C31.4 33.6 33 31.8 35 31.6L35.4 31.6C36.5 31.5 37.6 32.1 38.2 33.1L38.2 28.6L39.9 28.6ZM38.2 35.8C38.3 34.5 37.3 33.3 35.9 33.2C34.6 33.1 33.4 34.1 33.3 35.5L33.3 35.8C33.2 37.1 34.2 38.3 35.6 38.4C36.9 38.5 38.1 37.5 38.2 36.1C38.2 36 38.2 35.9 38.2 35.8Z" fill="#f8f8f8" fill-rule="evenodd" opacity="1" stroke="none"/>
<path d="M44 29.5C44 30.1 43.6 30.5 43 30.5C42.4 30.5 42 30.1 42 29.5C42 28.9 42.4 28.5 43 28.5C43.6 28.5 44 28.9 44 29.5ZM43.8 31.8L43.8 39.8L42.1 39.8L42.1 31.8L43.8 31.8Z" fill="#f8f8f8" fill-rule="evenodd" opacity="1" stroke="none"/>
<path d="M27 10.7C27.2 10.7 27.4 10.8 27.5 11C27.5 11.2 27.4 11.4 27.2 11.4C27 11.4 26.8 11.3 26.7 11.1C26.7 11 26.8 10.7 27 10.7Z" fill="#f8f8f8" fill-rule="evenodd" opacity="1" stroke="none"/>
<path d="M35.3 18C35.3 18.2 35.2 18.4 35 18.5C34.8 18.5 34.6 18.4 34.5 18.2C34.4 18 34.6 17.8 34.8 17.8C35.1 17.7 35.3 17.8 35.3 18Z" fill="#f8f8f8" fill-rule="evenodd" opacity="1" stroke="none"/>
<path d="M35.3 20.1C35.3 20.3 35.1 20.5 34.9 20.5C34.7 20.5 34.5 20.3 34.5 20.1C34.5 19.9 34.7 19.7 34.9 19.7C35.1 19.7 35.3 19.9 35.3 20.1Z" fill="#f8f8f8" fill-rule="evenodd" opacity="1" stroke="none"/>
<g opacity="1">
<path d="M22.6 12.5L26.3 16.3L27 17.4L27.8 18.5L26.9 17.6L25.9 16.6L22.6 12.5Z" fill="#f8f8f8" fill-rule="evenodd" opacity="1" stroke="none"/>
<path d="M24.3 11.4L26.8 16L27.3 17.2L27.8 18.5L27.1 17.4L26.4 16.2L24.3 11.4Z" fill="#f8f8f8" fill-rule="evenodd" opacity="1" stroke="none"/>
<path d="M26.1 10.8L27.5 15.9L27.6 17.2L27.8 18.5L27.4 17.2L27 16L26.1 10.8Z" fill="#f8f8f8" fill-rule="evenodd" opacity="1" stroke="none"/>
<path d="M28.1 10.7L28.1 15.9L28 17.2L27.8 18.5L27.7 17.2L27.7 15.9L28.1 10.7Z" fill="#f8f8f8" fill-rule="evenodd" opacity="1" stroke="none"/>
<path d="M30.1 11.1L28.8 16.1L28.3 17.3L27.8 18.5L28.1 17.2L28.3 16L30.1 11.1Z" fill="#f8f8f8" fill-rule="evenodd" opacity="1" stroke="none"/>
<path d="M31.9 12.1L29.3 16.5L28.6 17.5L27.8 18.5L28.4 17.4L29 16.2L31.9 12.1Z" fill="#f8f8f8" fill-rule="evenodd" opacity="1" stroke="none"/>
<path d="M33.4 13.4L29.8 17L28.8 17.7L27.8 18.5L28.6 17.5L29.5 16.6L33.4 13.4Z" fill="#f8f8f8" fill-rule="evenodd" opacity="1" stroke="none"/>
<path d="M34.5 15.2L30.1 17.6L29 18L27.8 18.5L28.9 17.8L29.9 17.2L34.5 15.2Z" fill="#f8f8f8" fill-rule="evenodd" opacity="1" stroke="none"/>
<path d="M35.2 17.1L30.3 18.3L29 18.4L27.8 18.5L29 18.1L30.2 17.8L35.2 17.1Z" fill="#f8f8f8" fill-rule="evenodd" opacity="1" stroke="none"/>
<path d="M35.4 19.1L30.3 18.9L29 18.7L27.8 18.5L29.1 18.5L30.3 18.5L35.4 19.1Z" fill="#f8f8f8" fill-rule="evenodd" opacity="1" stroke="none"/>
<path d="M35 21.1L30.1 19.6L29 19L27.8 18.5L29 18.8L30.3 19.1L35 21.1Z" fill="#f8f8f8" fill-rule="evenodd" opacity="1" stroke="none"/>
<path d="M34.2 23L29.8 20.2L28.8 19.3L27.8 18.5L28.9 19.1L30 19.8L34.2 23Z" fill="#f8f8f8" fill-rule="evenodd" opacity="1" stroke="none"/>
<path d="M32.9 24.5L29.3 20.6L28.6 19.5L27.8 18.5L28.7 19.4L29.7 20.3L32.9 24.5Z" fill="#f8f8f8" fill-rule="evenodd" opacity="1" stroke="none"/>
<path d="M31.3 25.6L28.8 20.9L28.3 19.7L27.8 18.5L28.5 19.6L29.2 20.7L31.3 25.6Z" fill="#f8f8f8" fill-rule="evenodd" opacity="1" stroke="none"/>
<path d="M29.5 26.2L28.1 21.1L28 19.8L27.8 18.5L28.2 19.7L28.6 21L29.5 26.2Z" fill="#f8f8f8" fill-rule="evenodd" opacity="1" stroke="none"/>
<path d="M27.5 26.3L27.4 21L27.6 19.8L27.8 18.5L27.9 19.8L27.9 21.1L27.5 26.3Z" fill="#f8f8f8" fill-rule="evenodd" opacity="1" stroke="none"/>
<path d="M25.5 25.8L26.8 20.8L27.3 19.7L27.8 18.5L27.5 19.7L27.3 21L25.5 25.8Z" fill="#f8f8f8" fill-rule="evenodd" opacity="1" stroke="none"/>
<path d="M23.7 24.9L26.2 20.5L27 19.5L27.8 18.5L27.2 19.6L26.6 20.8L23.7 24.9Z" fill="#f8f8f8" fill-rule="evenodd" opacity="1" stroke="none"/>
<path d="M22.2 23.5L25.8 20L26.8 19.2L27.8 18.5L26.9 19.4L26.1 20.3L22.2 23.5Z" fill="#f8f8f8" fill-rule="evenodd" opacity="1" stroke="none"/>
<path d="M21 21.8L25.4 19.4L26.6 18.9L27.8 18.5L26.7 19.1L25.7 19.8L21 21.8Z" fill="#f8f8f8" fill-rule="evenodd" opacity="1" stroke="none"/>
<path d="M20.4 19.9L25.3 18.7L26.5 18.6L27.8 18.5L26.6 18.8L25.4 19.2L20.4 19.9Z" fill="#f8f8f8" fill-rule="evenodd" opacity="1" stroke="none"/>
<path d="M20.2 17.8L25.3 18L26.5 18.2L27.8 18.5L26.5 18.5L25.3 18.5L20.2 17.8Z" fill="#f8f8f8" fill-rule="evenodd" opacity="1" stroke="none"/>
<path d="M20.5 15.8L25.5 17.4L26.6 17.9L27.8 18.5L26.5 18.1L25.3 17.8L20.5 15.8Z" fill="#f8f8f8" fill-rule="evenodd" opacity="1" stroke="none"/>
<path d="M21.4 14L25.8 16.8L26.8 17.6L27.8 18.5L26.7 17.8L25.5 17.2L21.4 14Z" fill="#f8f8f8" fill-rule="evenodd" opacity="1" stroke="none"/>
<path d="M25.1 11.1C25.3 11 25.5 11.1 25.6 11.3C25.7 11.5 25.6 11.7 25.4 11.8C25.2 11.9 25 11.8 24.9 11.6C24.9 11.4 24.9 11.2 25.1 11.1Z" fill="#f8f8f8" fill-rule="evenodd" opacity="1" stroke="none"/>
<path d="M29 10.9C29.2 10.9 29.4 11.1 29.4 11.3C29.4 11.5 29.2 11.7 29 11.7C28.8 11.7 28.6 11.5 28.6 11.3C28.6 11 28.8 10.9 29 10.9Z" fill="#f8f8f8" fill-rule="evenodd" opacity="1" stroke="none"/>
<path d="M30.9 11.5C31.1 11.6 31.2 11.8 31.1 12C31 12.2 30.8 12.3 30.6 12.2C30.4 12.1 30.3 11.9 30.4 11.7C30.5 11.6 30.7 11.5 30.9 11.5Z" fill="#f8f8f8" fill-rule="evenodd" opacity="1" stroke="none"/>
<path d="M32.6 12.7C32.8 12.8 32.8 13.1 32.7 13.2C32.6 13.4 32.4 13.4 32.2 13.3C32 13.2 32 13 32.1 12.8C32.2 12.6 32.4 12.6 32.6 12.7Z" fill="#f8f8f8" fill-rule="evenodd" opacity="1" stroke="none"/>
<path d="M34 14.2C34.2 14.4 34.2 14.6 34 14.8C33.9 14.9 33.6 15 33.5 14.8C33.4 14.6 33.4 14.4 33.5 14.2C33.6 14.1 33.9 14.1 34 14.2Z" fill="#f8f8f8" fill-rule="evenodd" opacity="1" stroke="none"/>
<path d="M34.9 16C35 16.2 34.9 16.4 34.7 16.5C34.5 16.6 34.3 16.5 34.2 16.3C34.1 16.1 34.2 15.9 34.4 15.8C34.6 15.8 34.8 15.9 34.9 16Z" fill="#f8f8f8" fill-rule="evenodd" opacity="1" stroke="none"/>
<path d="M34.7 22C34.6 22.2 34.4 22.3 34.3 22.2C34.1 22.1 34 21.9 34.1 21.7C34.2 21.5 34.4 21.4 34.6 21.5C34.6 21.6 34.8 21.8 34.7 22Z" fill="#f8f8f8" fill-rule="evenodd" opacity="1" stroke="none"/>
<path d="M33.6 23.7C33.5 23.9 33.3 23.9 33.1 23.8C32.9 23.7 32.9 23.4 33 23.3C33.1 23.1 33.3 23.1 33.5 23.2C33.7 23.3 33.8 23.5 33.6 23.7Z" fill="#f8f8f8" fill-rule="evenodd" opacity="1" stroke="none"/>
<path d="M32.2 25C32 25.1 31.8 25.1 31.7 25C31.6 24.8 31.6 24.6 31.7 24.5C31.9 24.4 32.1 24.4 32.2 24.5C32.3 24.6 32.3 24.8 32.2 25Z" fill="#f8f8f8" fill-rule="evenodd" opacity="1" stroke="none"/>
<path d="M30.5 25.9C30.3 26 30.1 25.9 30 25.7C29.9 25.5 30 25.3 30.2 25.2C30.4 25.1 30.6 25.2 30.7 25.5C30.7 25.6 30.6 25.8 30.5 25.9Z" fill="#f8f8f8" fill-rule="evenodd" opacity="1" stroke="none"/>
<path d="M28.5 26.2C28.3 26.2 28.1 26.1 28 25.9C27.9 25.7 28.1 25.5 28.3 25.4C28.5 25.4 28.7 25.5 28.7 25.7C28.9 26 28.8 26.2 28.5 26.2Z" fill="#f8f8f8" fill-rule="evenodd" opacity="1" stroke="none"/>
<path d="M26.5 26.1C26.3 26.1 26.1 25.9 26.1 25.7C26.1 25.5 26.3 25.3 26.5 25.3C26.7 25.3 26.9 25.5 26.9 25.7C26.9 25.9 26.8 26.1 26.5 26.1C26.6 26.1 26.6 26.1 26.5 26.1Z" fill="#f8f8f8" fill-rule="evenodd" opacity="1" stroke="none"/>
<path d="M27.1 17.7C27.5 17.4 28.1 17.4 28.5 17.8C28.9 18.2 28.8 18.8 28.4 19.2C28 19.5 27.4 19.5 27 19.1C26.7 18.7 26.7 18.1 27.1 17.7Z" fill="#f8f8f8" fill-rule="evenodd" opacity="1" stroke="none"/>
<path d="M33.6 13.3C31.4 10.6 27.7 9.7 24.5 11L24.5 11.7C27.5 10.3 31.1 11.1 33.2 13.7C35.9 16.8 35.7 21.4 32.8 24.3C30.5 26.3 27.2 26.6 24.6 25.1L24.6 25.8C27.4 27.3 30.8 26.9 33.2 24.8C36.3 21.6 36.6 16.6 33.6 13.3Z" fill="#f8f8f8" fill-rule="evenodd" opacity="1" stroke="none"/>
</g>
<path d="M54.1 43.3L51.4 39.6L50 41.2L50 43.3L48.6 43.3L48.6 34.9L50 34.9L50 39.2L54 34.9L55.7 34.9L52.4 38.5L55.9 43.3L54.1 43.3Z" fill="#f8f8f8" fill-rule="evenodd" opacity="1" stroke="none"/>
<path d="M60.5 43.3L60.5 42.5C60 43.1 59.2 43.4 58.4 43.3C57.3 43.4 56.3 42.6 56.2 41.5C56.2 41.4 56.2 41.3 56.2 41.3C56.2 40.1 57.1 39.4 58.6 39.4L60.5 39.4L60.5 39.2C60.5 38.4 60 38 59 38C58.3 38 57.7 38.2 57.1 38.6L56.5 37.6C57.3 37.1 58.3 36.8 59.2 36.8C60.8 36.8 61.7 37.6 61.8 39L61.8 43.2L60.5 43.3ZM60.5 41.1L60.5 40.5L58.8 40.5C57.9 40.5 57.5 40.7 57.5 41.3C57.5 41.9 58 42.3 58.7 42.3C59.6 42.3 60.4 41.8 60.5 41.1Z" fill="#f8f8f8" fill-rule="evenodd" opacity="1" stroke="none"/>
<path d="M37.8 45.5L41.2 52.5L44.6 45.5L46.7 45.5L46.7 56L45.1 56L45.1 48.2L41.8 54.9L40.6 54.9L37.3 48.2L37.3 56L35.6 56L35.6 45.5L37.8 45.5Z" fill="#f8f8f8" fill-rule="evenodd" opacity="1" stroke="none"/>
<path d="M53.8 55.9L53.8 55C53.1 55.7 52.2 56.1 51.2 56C49.8 56.1 48.6 55.2 48.4 53.8C48.4 53.7 48.4 53.6 48.4 53.6C48.4 52.1 49.5 51.2 51.4 51.2L53.8 51.2L53.8 51C53.8 50 53.2 49.4 51.9 49.4C51.1 49.4 50.2 49.7 49.6 50.2L48.9 49C49.9 48.3 51.1 48 52.3 48C54.3 48 55.5 49 55.5 50.8L55.5 56L53.8 55.9ZM53.8 53.1L53.8 52.4L51.6 52.4C50.5 52.4 50 52.7 50 53.5C50 54.3 50.6 54.7 51.5 54.7C52.8 54.6 53.7 54 53.8 53.1Z" fill="#f8f8f8" fill-rule="evenodd" opacity="1" stroke="none"/>
<path d="M65.1 51L65.1 56L63.4 56L63.4 51.5C63.5 50.5 62.8 49.7 61.8 49.6C61.7 49.6 61.6 49.6 61.5 49.6C60.3 49.6 59.2 50.6 59.2 51.8L59.2 52L59.2 55.9L57.5 55.9L57.5 44.8L59.2 44.8L59.2 49.5C59.8 48.4 60.9 47.8 62.1 47.9C63.6 47.8 65 49 65.1 50.5L65.1 51Z" fill="#f8f8f8" fill-rule="evenodd" opacity="1" stroke="none"/>
<path d="M74.5 51.9C74.6 54.2 72.8 56.1 70.5 56.2C68.2 56.3 66.3 54.5 66.2 52.2C66.1 49.9 67.9 48 70.2 47.9L70.3 47.9C72.5 47.8 74.3 49.4 74.4 51.6C74.5 51.7 74.5 51.8 74.5 51.9ZM68 52C68.1 53.3 69.2 54.3 70.6 54.3C71.9 54.2 72.9 53.1 72.9 51.7C72.8 50.4 71.8 49.4 70.5 49.4C69.2 49.4 68.1 50.4 68.1 51.8C68 51.9 68 51.9 68 52Z" fill="#f8f8f8" fill-rule="evenodd" opacity="1" stroke="none"/>
<path d="M80.4 55.4C79.8 55.8 79.1 56 78.4 56C77.2 56.1 76.3 55.2 76.2 54.1C76.2 54 76.2 53.8 76.2 53.7L76.2 49.6L75.1 49.6L75.1 48.3L76.2 48.3L76.2 46.1L78 46.1L78 48.3L80.3 48.3L80.3 49.6L78 49.6L78 53.4C78 54.2 78.3 54.5 78.8 54.5C79.2 54.5 79.6 54.4 80 54.1L80.4 55.4Z" fill="#f8f8f8" fill-rule="evenodd" opacity="1" stroke="none"/>
<path d="M83.9 49.3C83.2 49.3 82.7 49.5 82.7 50.1C82.7 51.6 86.9 50.8 86.9 53.7C86.9 55.3 85.5 56.1 83.9 56.1C82.7 56.1 81.6 55.7 80.7 55L81.3 53.8C82 54.4 83 54.8 84 54.8C84.7 54.8 85.3 54.6 85.3 54C85.3 52.4 81.1 53.3 81.1 50.4C81.1 48.8 82.5 48.1 84 48.1C85 48.1 85.9 48.4 86.8 48.9L86.1 50C85.5 49.6 84.7 49.3 83.9 49.3Z" fill="#f8f8f8" fill-rule="evenodd" opacity="1" stroke="none"/>
<path d="M93 55.9L93 55C92.3 55.7 91.4 56.1 90.4 56C89 56.2 87.8 55.2 87.6 53.8C87.6 53.7 87.6 53.6 87.6 53.5C87.6 52 88.7 51.1 90.6 51.1L93 51.1L93 50.9C93 49.9 92.4 49.3 91.1 49.3C90.3 49.3 89.4 49.6 88.8 50.1L88.1 48.9C89.1 48.2 90.3 47.9 91.5 47.9C93.5 47.9 94.7 48.9 94.7 50.7L94.7 55.9L93 55.9ZM93 53.1L93 52.4L90.8 52.4C89.7 52.4 89.2 52.7 89.2 53.5C89.2 54.3 89.8 54.7 90.7 54.7C92 54.6 92.9 54 93 53.1Z" fill="#f8f8f8" fill-rule="evenodd" opacity="1" stroke="none"/>
<path d="M96.9 48L99.1 54.3L101.3 48L103 48L100 56L98.2 56L95.1 48L96.9 48Z" fill="#f8f8f8" fill-rule="evenodd" opacity="1" stroke="none"/>
<path d="M6.5 49.8L2.3 49.8L1.5 51.7L1.78814e-07 51.7L3.7 43.3L5.1 43.3L8.8 51.7L7.3 51.7L6.5 49.8ZM5.9 48.5L4.3 44.8L2.7 48.5L5.9 48.5Z" fill="#f8f8f8" fill-rule="evenodd" opacity="1" stroke="none"/>
<path d="M20.1 47.7L20.1 51.7L18.7 51.7L18.7 48.1C18.8 47.3 18.2 46.6 17.5 46.5C17.4 46.5 17.3 46.5 17.2 46.5C16.2 46.5 15.4 47.4 15.5 48.4L15.5 48.5L15.5 51.6L14.1 51.6L14.1 48C14.2 47.2 13.6 46.5 12.9 46.4C12.8 46.4 12.7 46.4 12.7 46.4C11.7 46.4 10.9 47.3 10.9 48.3L10.9 48.4L10.9 51.5L9.5 51.5L9.5 45.1L10.9 45.1L10.9 46.3C11.3 45.4 12.2 44.9 13.2 45C14.2 44.9 15.1 45.6 15.4 46.5C15.8 45.5 16.7 44.9 17.8 45C19 44.9 20.1 45.8 20.1 47.1L20.1 47.7Z" fill="#f8f8f8" fill-rule="evenodd" opacity="1" stroke="none"/>
<path d="M25.2 45.3L25.2 46.6C24.1 46.5 23.2 47.2 23 48.2L23 48.3L23 51.6L21.6 51.6L21.6 45.2L23 45.2L23 46.5C23.4 45.8 24.3 45.2 25.2 45.3Z" fill="#f8f8f8" fill-rule="evenodd" opacity="1" stroke="none"/>
<path d="M27.5 43.5C27.5 43.9 27.1 44.3 26.7 44.3C26.3 44.3 25.9 43.9 25.9 43.5C25.9 43.1 26.3 42.7 26.7 42.7C27.1 42.7 27.5 43 27.5 43.5ZM27.4 45.3L27.4 51.7L26 51.7L26 45.3L27.4 45.3Z" fill="#f8f8f8" fill-rule="evenodd" opacity="1" stroke="none"/>
<path d="M32.7 51.3C32.2 51.6 31.7 51.8 31.1 51.8C30.2 51.9 29.4 51.2 29.3 50.2C29.3 50.1 29.3 50 29.3 49.9L29.3 46.6L28.4 46.6L28.4 45.6L29.3 45.6L29.3 43.8L30.7 43.8L30.7 45.6L32.6 45.6L32.6 46.6L30.7 46.6L30.7 49.6C30.7 50.3 30.9 50.5 31.4 50.5C31.8 50.5 32.1 50.4 32.4 50.2L32.7 51.3Z" fill="#f8f8f8" fill-rule="evenodd" opacity="1" stroke="none"/>
<path d="M83.2 8.9C82.8 8.8 82.4 8.8 82.1 9C79.3 10.2 76.2 10.3 73.3 9.4C70.9 8.6 68.4 8.1 65.9 7.8C61.4 7.4 57.4 9 53.5 11C51.8 12 50.1 12.7 48.2 13.2C46.5 13.6 45.9 12.9 46.2 11.2C46.5 9.8 46.1 9.2 44.8 8.7C44.4 8.6 44 8.5 43.7 8.4C38.9 7.9 34 8.4 29.4 9.7L29 9.9C29 9.9 34.3 9.5 36.6 14.2C39.5 13.8 42.5 13.8 45.4 14.3C46.6 14.5 47.1 15.1 46.6 16.3C46.4 16.8 46.3 17.3 46.3 17.8C46.2 19.4 46.9 20 48.4 19.6C48.9 19.5 49.4 19.3 49.9 19.1C52 18.1 54.1 17 56.1 15.7C58.2 14.3 60.6 13.4 63.1 13.1C66.5 12.7 69.9 13 73.3 12.9C76.2 12.8 79.1 12.5 81.6 10.7C82.3 10.4 82.9 9.7 83.2 8.9Z" fill="#f6921e" fill-rule="evenodd" opacity="1" stroke="none"/>
<path d="M83.2 19.6C82.8 19.4 82.4 19.5 82.1 19.7C79.3 20.9 76.2 21 73.3 20.1C70.9 19.3 68.4 18.8 65.9 18.6C61.4 18.2 57.3 19.8 53.4 21.8C51.7 22.8 50 23.5 48.1 24C46.4 24.4 45.8 23.7 46.1 22C46.4 20.6 46 20 44.7 19.5C44.3 19.4 43.9 19.3 43.6 19.2C41.6 19 39.6 18.9 37.6 19.1C37.3 21.8 35.8 24.3 33.4 25.7L34.7 25.4C38.2 24.6 41.8 24.6 45.3 25.1C46.5 25.3 47 25.9 46.5 27.1C46.3 27.6 46.2 28.1 46.2 28.6C46.1 30.2 46.8 30.8 48.3 30.4C48.8 30.3 49.3 30.1 49.8 29.9C51.9 28.9 54 27.8 56 26.5C58.1 25.1 60.4 24.1 62.9 23.9C66.3 23.5 69.7 23.8 73.1 23.7C76 23.6 78.9 23.2 81.4 21.5C82.3 21.2 82.9 20.5 83.2 19.6Z" fill="#00a04e" fill-rule="evenodd" opacity="1" stroke="none"/>
<path d="M5.4 0L5.4 2.3L19 2.3L7.5 23.5L9.4 24.9L23.1 1.07288e-06L5.4 0Z" fill="#f8f8f8" fill-rule="evenodd" opacity="1" stroke="none"/>
<path d="M36.1 0L25.5 0L17.7 14.1L19.5 14.9L26.6 2.3L36.1 2.3L36.1 0Z" fill="#f8f8f8" fill-rule="evenodd" opacity="1" stroke="none"/>
</g>
<g opacity="0">
<path d="M12.8 37.3L7.5 37.3L6.5 39.7L4.7 39.7L9.3 29.2L11.1 29.2L15.7 39.7L13.8 39.7L12.8 37.3ZM12.1 35.8L10.1 31.2L8.1 35.8L12.1 35.8Z" fill="#000000" fill-rule="evenodd" opacity="1" stroke="none"/>
<path d="M22.6 31.8L22.6 33L18 38.3L22.7 38.3L22.7 39.7L15.9 39.7L15.9 38.5L20.4 33.1L16 33.1L16 31.7L22.6 31.8Z" fill="#000000" fill-rule="evenodd" opacity="1" stroke="none"/>
<path d="M28.8 39.7L28.8 38.7C28.1 39.4 27.2 39.8 26.2 39.7C24.8 39.8 23.6 38.9 23.4 37.5C23.4 37.4 23.4 37.3 23.4 37.3C23.4 35.8 24.5 34.9 26.4 34.9L28.8 34.9L28.8 34.7C28.8 33.7 28.2 33.1 26.9 33.1C26.1 33.1 25.2 33.4 24.6 33.9L23.9 32.7C24.9 32 26.1 31.7 27.3 31.7C29.3 31.7 30.5 32.7 30.5 34.5L30.5 39.7L28.8 39.7ZM28.8 36.9L28.8 36.2L26.6 36.2C25.5 36.2 25 36.5 25 37.3C25 38.1 25.6 38.5 26.5 38.5C27.7 38.4 28.6 37.8 28.8 36.9Z" fill="#000000" fill-rule="evenodd" opacity="1" stroke="none"/>
<path d="M39.9 28.6L39.9 39.7L38.2 39.7L38.2 38.3C37.6 39.3 36.5 39.8 35.4 39.7C33.3 39.7 31.6 38.1 31.6 36C31.6 35.9 31.6 35.7 31.6 35.6C31.4 33.6 33 31.8 35 31.6L35.4 31.6C36.5 31.5 37.6 32.1 38.2 33.1L38.2 28.6L39.9 28.6ZM38.2 35.8C38.3 34.5 37.3 33.3 35.9 33.2C34.6 33.1 33.4 34.1 33.3 35.5L33.3 35.8C33.2 37.1 34.2 38.3 35.6 38.4C36.9 38.5 38.1 37.5 38.2 36.1C38.2 36 38.2 35.9 38.2 35.8Z" fill="#000000" fill-rule="evenodd" opacity="1" stroke="none"/>
<path d="M44 29.5C44 30.1 43.6 30.5 43 30.5C42.4 30.5 42 30.1 42 29.5C42 28.9 42.4 28.5 43 28.5C43.6 28.5 44 28.9 44 29.5ZM43.8 31.8L43.8 39.8L42.1 39.8L42.1 31.8L43.8 31.8Z" fill="#000000" fill-rule="evenodd" opacity="1" stroke="none"/>
<path d="M27 10.7C27.2 10.7 27.4 10.8 27.5 11C27.5 11.2 27.4 11.4 27.2 11.4C27 11.4 26.8 11.3 26.7 11.1C26.7 11 26.8 10.7 27 10.7Z" fill="#000000" fill-rule="evenodd" opacity="1" stroke="none"/>
<path d="M35.3 18C35.3 18.2 35.2 18.4 35 18.5C34.8 18.5 34.6 18.4 34.5 18.2C34.4 18 34.6 17.8 34.8 17.8C35.1 17.7 35.3 17.8 35.3 18Z" fill="#000000" fill-rule="evenodd" opacity="1" stroke="none"/>
<path d="M35.3 20.1C35.3 20.3 35.1 20.5 34.9 20.5C34.7 20.5 34.5 20.3 34.5 20.1C34.5 19.9 34.7 19.7 34.9 19.7C35.1 19.7 35.3 19.9 35.3 20.1Z" fill="#000000" fill-rule="evenodd" opacity="1" stroke="none"/>
<g opacity="1">
<path d="M22.6 12.5L26.3 16.3L27 17.4L27.8 18.5L26.9 17.6L25.9 16.6L22.6 12.5Z" fill="#000000" fill-rule="evenodd" opacity="1" stroke="none"/>
<path d="M24.3 11.4L26.8 16L27.3 17.2L27.8 18.5L27.1 17.4L26.4 16.2L24.3 11.4Z" fill="#000000" fill-rule="evenodd" opacity="1" stroke="none"/>
<path d="M26.1 10.8L27.5 15.9L27.6 17.2L27.8 18.5L27.4 17.2L27 16L26.1 10.8Z" fill="#000000" fill-rule="evenodd" opacity="1" stroke="none"/>
<path d="M28.1 10.7L28.1 15.9L28 17.2L27.8 18.5L27.7 17.2L27.7 15.9L28.1 10.7Z" fill="#000000" fill-rule="evenodd" opacity="1" stroke="none"/>
<path d="M30.1 11.1L28.8 16.1L28.3 17.3L27.8 18.5L28.1 17.2L28.3 16L30.1 11.1Z" fill="#000000" fill-rule="evenodd" opacity="1" stroke="none"/>
<path d="M31.9 12.1L29.3 16.5L28.6 17.5L27.8 18.5L28.4 17.4L29 16.2L31.9 12.1Z" fill="#000000" fill-rule="evenodd" opacity="1" stroke="none"/>
<path d="M33.4 13.4L29.8 17L28.8 17.7L27.8 18.5L28.6 17.5L29.5 16.6L33.4 13.4Z" fill="#000000" fill-rule="evenodd" opacity="1" stroke="none"/>
<path d="M34.5 15.2L30.1 17.6L29 18L27.8 18.5L28.9 17.8L29.9 17.2L34.5 15.2Z" fill="#000000" fill-rule="evenodd" opacity="1" stroke="none"/>
<path d="M35.2 17.1L30.3 18.3L29 18.4L27.8 18.5L29 18.1L30.2 17.8L35.2 17.1Z" fill="#000000" fill-rule="evenodd" opacity="1" stroke="none"/>
<path d="M35.4 19.1L30.3 18.9L29 18.7L27.8 18.5L29.1 18.5L30.3 18.5L35.4 19.1Z" fill="#000000" fill-rule="evenodd" opacity="1" stroke="none"/>
<path d="M35 21.1L30.1 19.6L29 19L27.8 18.5L29 18.8L30.3 19.1L35 21.1Z" fill="#000000" fill-rule="evenodd" opacity="1" stroke="none"/>
<path d="M34.2 23L29.8 20.2L28.8 19.3L27.8 18.5L28.9 19.1L30 19.8L34.2 23Z" fill="#000000" fill-rule="evenodd" opacity="1" stroke="none"/>
<path d="M32.9 24.5L29.3 20.6L28.6 19.5L27.8 18.5L28.7 19.4L29.7 20.3L32.9 24.5Z" fill="#000000" fill-rule="evenodd" opacity="1" stroke="none"/>
<path d="M31.3 25.6L28.8 20.9L28.3 19.7L27.8 18.5L28.5 19.6L29.2 20.7L31.3 25.6Z" fill="#000000" fill-rule="evenodd" opacity="1" stroke="none"/>
<path d="M29.5 26.2L28.1 21.1L28 19.8L27.8 18.5L28.2 19.7L28.6 21L29.5 26.2Z" fill="#000000" fill-rule="evenodd" opacity="1" stroke="none"/>
<path d="M27.5 26.3L27.4 21L27.6 19.8L27.8 18.5L27.9 19.8L27.9 21.1L27.5 26.3Z" fill="#000000" fill-rule="evenodd" opacity="1" stroke="none"/>
<path d="M25.5 25.8L26.8 20.8L27.3 19.7L27.8 18.5L27.5 19.7L27.3 21L25.5 25.8Z" fill="#000000" fill-rule="evenodd" opacity="1" stroke="none"/>
<path d="M23.7 24.9L26.2 20.5L27 19.5L27.8 18.5L27.2 19.6L26.6 20.8L23.7 24.9Z" fill="#000000" fill-rule="evenodd" opacity="1" stroke="none"/>
<path d="M22.2 23.5L25.8 20L26.8 19.2L27.8 18.5L26.9 19.4L26.1 20.3L22.2 23.5Z" fill="#000000" fill-rule="evenodd" opacity="1" stroke="none"/>
<path d="M21 21.8L25.4 19.4L26.6 18.9L27.8 18.5L26.7 19.1L25.7 19.8L21 21.8Z" fill="#000000" fill-rule="evenodd" opacity="1" stroke="none"/>
<path d="M20.4 19.9L25.3 18.7L26.5 18.6L27.8 18.5L26.6 18.8L25.4 19.2L20.4 19.9Z" fill="#000000" fill-rule="evenodd" opacity="1" stroke="none"/>
<path d="M20.2 17.8L25.3 18L26.5 18.2L27.8 18.5L26.5 18.5L25.3 18.5L20.2 17.8Z" fill="#000000" fill-rule="evenodd" opacity="1" stroke="none"/>
<path d="M20.5 15.8L25.5 17.4L26.6 17.9L27.8 18.5L26.5 18.1L25.3 17.8L20.5 15.8Z" fill="#000000" fill-rule="evenodd" opacity="1" stroke="none"/>
<path d="M21.4 14L25.8 16.8L26.8 17.6L27.8 18.5L26.7 17.8L25.5 17.2L21.4 14Z" fill="#000000" fill-rule="evenodd" opacity="1" stroke="none"/>
<path d="M25.1 11.1C25.3 11 25.5 11.1 25.6 11.3C25.7 11.5 25.6 11.7 25.4 11.8C25.2 11.9 25 11.8 24.9 11.6C24.9 11.4 24.9 11.2 25.1 11.1Z" fill="#000000" fill-rule="evenodd" opacity="1" stroke="none"/>
<path d="M29 10.9C29.2 10.9 29.4 11.1 29.4 11.3C29.4 11.5 29.2 11.7 29 11.7C28.8 11.7 28.6 11.5 28.6 11.3C28.6 11 28.8 10.9 29 10.9Z" fill="#000000" fill-rule="evenodd" opacity="1" stroke="none"/>
<path d="M30.9 11.5C31.1 11.6 31.2 11.8 31.1 12C31 12.2 30.8 12.3 30.6 12.2C30.4 12.1 30.3 11.9 30.4 11.7C30.5 11.6 30.7 11.5 30.9 11.5Z" fill="#000000" fill-rule="evenodd" opacity="1" stroke="none"/>
<path d="M32.6 12.7C32.8 12.8 32.8 13.1 32.7 13.2C32.6 13.4 32.4 13.4 32.2 13.3C32 13.2 32 13 32.1 12.8C32.2 12.6 32.4 12.6 32.6 12.7Z" fill="#000000" fill-rule="evenodd" opacity="1" stroke="none"/>
<path d="M34 14.2C34.2 14.4 34.2 14.6 34 14.8C33.9 14.9 33.6 15 33.5 14.8C33.4 14.6 33.4 14.4 33.5 14.2C33.6 14.1 33.9 14.1 34 14.2Z" fill="#000000" fill-rule="evenodd" opacity="1" stroke="none"/>
<path d="M34.9 16C35 16.2 34.9 16.4 34.7 16.5C34.5 16.6 34.3 16.5 34.2 16.3C34.1 16.1 34.2 15.9 34.4 15.8C34.6 15.8 34.8 15.9 34.9 16Z" fill="#000000" fill-rule="evenodd" opacity="1" stroke="none"/>
<path d="M34.7 22C34.6 22.2 34.4 22.3 34.3 22.2C34.1 22.1 34 21.9 34.1 21.7C34.2 21.5 34.4 21.4 34.6 21.5C34.6 21.6 34.8 21.8 34.7 22Z" fill="#000000" fill-rule="evenodd" opacity="1" stroke="none"/>
<path d="M33.6 23.7C33.5 23.9 33.3 23.9 33.1 23.8C32.9 23.7 32.9 23.4 33 23.3C33.1 23.1 33.3 23.1 33.5 23.2C33.7 23.3 33.8 23.5 33.6 23.7Z" fill="#000000" fill-rule="evenodd" opacity="1" stroke="none"/>
<path d="M32.2 25C32 25.1 31.8 25.1 31.7 25C31.6 24.8 31.6 24.6 31.7 24.5C31.9 24.4 32.1 24.4 32.2 24.5C32.3 24.6 32.3 24.8 32.2 25Z" fill="#000000" fill-rule="evenodd" opacity="1" stroke="none"/>
<path d="M30.5 25.9C30.3 26 30.1 25.9 30 25.7C29.9 25.5 30 25.3 30.2 25.2C30.4 25.1 30.6 25.2 30.7 25.5C30.7 25.6 30.6 25.8 30.5 25.9Z" fill="#000000" fill-rule="evenodd" opacity="1" stroke="none"/>
<path d="M28.5 26.2C28.3 26.2 28.1 26.1 28 25.9C27.9 25.7 28.1 25.5 28.3 25.4C28.5 25.4 28.7 25.5 28.7 25.7C28.9 26 28.8 26.2 28.5 26.2Z" fill="#000000" fill-rule="evenodd" opacity="1" stroke="none"/>
<path d="M26.5 26.1C26.3 26.1 26.1 25.9 26.1 25.7C26.1 25.5 26.3 25.3 26.5 25.3C26.7 25.3 26.9 25.5 26.9 25.7C26.9 25.9 26.8 26.1 26.5 26.1C26.6 26.1 26.6 26.1 26.5 26.1Z" fill="#000000" fill-rule="evenodd" opacity="1" stroke="none"/>
<path d="M27.1 17.7C27.5 17.4 28.1 17.4 28.5 17.8C28.9 18.2 28.8 18.8 28.4 19.2C28 19.5 27.4 19.5 27 19.1C26.7 18.7 26.7 18.1 27.1 17.7Z" fill="#000000" fill-rule="evenodd" opacity="1" stroke="none"/>
<path d="M33.6 13.3C31.4 10.6 27.7 9.7 24.5 11L24.5 11.7C27.5 10.3 31.1 11.1 33.2 13.7C35.9 16.8 35.7 21.4 32.8 24.3C30.5 26.3 27.2 26.6 24.6 25.1L24.6 25.8C27.4 27.3 30.8 26.9 33.2 24.8C36.3 21.6 36.6 16.6 33.6 13.3Z" fill="#000000" fill-rule="evenodd" opacity="1" stroke="none"/>
</g>
<path d="M54.1 43.3L51.4 39.6L50 41.2L50 43.3L48.6 43.3L48.6 34.9L50 34.9L50 39.2L54 34.9L55.7 34.9L52.4 38.5L55.9 43.3L54.1 43.3Z" fill="#000000" fill-rule="evenodd" opacity="1" stroke="none"/>
<path d="M60.5 43.3L60.5 42.5C60 43.1 59.2 43.4 58.4 43.3C57.3 43.4 56.3 42.6 56.2 41.5C56.2 41.4 56.2 41.3 56.2 41.3C56.2 40.1 57.1 39.4 58.6 39.4L60.5 39.4L60.5 39.2C60.5 38.4 60 38 59 38C58.3 38 57.7 38.2 57.1 38.6L56.5 37.6C57.3 37.1 58.3 36.8 59.2 36.8C60.8 36.8 61.7 37.6 61.8 39L61.8 43.2L60.5 43.3ZM60.5 41.1L60.5 40.5L58.8 40.5C57.9 40.5 57.5 40.7 57.5 41.3C57.5 41.9 58 42.3 58.7 42.3C59.6 42.3 60.4 41.8 60.5 41.1Z" fill="#000000" fill-rule="evenodd" opacity="1" stroke="none"/>
<path d="M37.8 45.5L41.2 52.5L44.6 45.5L46.7 45.5L46.7 56L45.1 56L45.1 48.2L41.8 54.9L40.6 54.9L37.3 48.2L37.3 56L35.6 56L35.6 45.5L37.8 45.5Z" fill="#000000" fill-rule="evenodd" opacity="1" stroke="none"/>
<path d="M53.8 55.9L53.8 55C53.1 55.7 52.2 56.1 51.2 56C49.8 56.1 48.6 55.2 48.4 53.8C48.4 53.7 48.4 53.6 48.4 53.6C48.4 52.1 49.5 51.2 51.4 51.2L53.8 51.2L53.8 51C53.8 50 53.2 49.4 51.9 49.4C51.1 49.4 50.2 49.7 49.6 50.2L48.9 49C49.9 48.3 51.1 48 52.3 48C54.3 48 55.5 49 55.5 50.8L55.5 56L53.8 55.9ZM53.8 53.1L53.8 52.4L51.6 52.4C50.5 52.4 50 52.7 50 53.5C50 54.3 50.6 54.7 51.5 54.7C52.8 54.6 53.7 54 53.8 53.1Z" fill="#000000" fill-rule="evenodd" opacity="1" stroke="none"/>
<path d="M65.1 51L65.1 56L63.4 56L63.4 51.5C63.5 50.5 62.8 49.7 61.8 49.6C61.7 49.6 61.6 49.6 61.5 49.6C60.3 49.6 59.2 50.6 59.2 51.8L59.2 52L59.2 55.9L57.5 55.9L57.5 44.8L59.2 44.8L59.2 49.5C59.8 48.4 60.9 47.8 62.1 47.9C63.6 47.8 65 49 65.1 50.5L65.1 51Z" fill="#000000" fill-rule="evenodd" opacity="1" stroke="none"/>
<path d="M74.5 51.9C74.6 54.2 72.8 56.1 70.5 56.2C68.2 56.3 66.3 54.5 66.2 52.2C66.1 49.9 67.9 48 70.2 47.9L70.3 47.9C72.5 47.8 74.3 49.4 74.4 51.6C74.5 51.7 74.5 51.8 74.5 51.9ZM68 52C68.1 53.3 69.2 54.3 70.6 54.3C71.9 54.2 72.9 53.1 72.9 51.7C72.8 50.4 71.8 49.4 70.5 49.4C69.2 49.4 68.1 50.4 68.1 51.8C68 51.9 68 51.9 68 52Z" fill="#000000" fill-rule="evenodd" opacity="1" stroke="none"/>
<path d="M80.4 55.4C79.8 55.8 79.1 56 78.4 56C77.2 56.1 76.3 55.2 76.2 54.1C76.2 54 76.2 53.8 76.2 53.7L76.2 49.6L75.1 49.6L75.1 48.3L76.2 48.3L76.2 46.1L78 46.1L78 48.3L80.3 48.3L80.3 49.6L78 49.6L78 53.4C78 54.2 78.3 54.5 78.8 54.5C79.2 54.5 79.6 54.4 80 54.1L80.4 55.4Z" fill="#000000" fill-rule="evenodd" opacity="1" stroke="none"/>
<path d="M83.9 49.3C83.2 49.3 82.7 49.5 82.7 50.1C82.7 51.6 86.9 50.8 86.9 53.7C86.9 55.3 85.5 56.1 83.9 56.1C82.7 56.1 81.6 55.7 80.7 55L81.3 53.8C82 54.4 83 54.8 84 54.8C84.7 54.8 85.3 54.6 85.3 54C85.3 52.4 81.1 53.3 81.1 50.4C81.1 48.8 82.5 48.1 84 48.1C85 48.1 85.9 48.4 86.8 48.9L86.1 50C85.5 49.6 84.7 49.3 83.9 49.3Z" fill="#000000" fill-rule="evenodd" opacity="1" stroke="none"/>
<path d="M93 55.9L93 55C92.3 55.7 91.4 56.1 90.4 56C89 56.2 87.8 55.2 87.6 53.8C87.6 53.7 87.6 53.6 87.6 53.5C87.6 52 88.7 51.1 90.6 51.1L93 51.1L93 50.9C93 49.9 92.4 49.3 91.1 49.3C90.3 49.3 89.4 49.6 88.8 50.1L88.1 48.9C89.1 48.2 90.3 47.9 91.5 47.9C93.5 47.9 94.7 48.9 94.7 50.7L94.7 55.9L93 55.9ZM93 53.1L93 52.4L90.8 52.4C89.7 52.4 89.2 52.7 89.2 53.5C89.2 54.3 89.8 54.7 90.7 54.7C92 54.6 92.9 54 93 53.1Z" fill="#000000" fill-rule="evenodd" opacity="1" stroke="none"/>
<path d="M96.9 48L99.1 54.3L101.3 48L103 48L100 56L98.2 56L95.1 48L96.9 48Z" fill="#000000" fill-rule="evenodd" opacity="1" stroke="none"/>
<path d="M6.5 49.8L2.3 49.8L1.5 51.7L1.78814e-07 51.7L3.7 43.3L5.1 43.3L8.8 51.7L7.3 51.7L6.5 49.8ZM5.9 48.5L4.3 44.8L2.7 48.5L5.9 48.5Z" fill="#000000" fill-rule="evenodd" opacity="1" stroke="none"/>
<path d="M20.1 47.7L20.1 51.7L18.7 51.7L18.7 48.1C18.8 47.3 18.2 46.6 17.5 46.5C17.4 46.5 17.3 46.5 17.2 46.5C16.2 46.5 15.4 47.4 15.5 48.4L15.5 48.5L15.5 51.6L14.1 51.6L14.1 48C14.2 47.2 13.6 46.5 12.9 46.4C12.8 46.4 12.7 46.4 12.7 46.4C11.7 46.4 10.9 47.3 10.9 48.3L10.9 48.4L10.9 51.5L9.5 51.5L9.5 45.1L10.9 45.1L10.9 46.3C11.3 45.4 12.2 44.9 13.2 45C14.2 44.9 15.1 45.6 15.4 46.5C15.8 45.5 16.7 44.9 17.8 45C19 44.9 20.1 45.8 20.1 47.1L20.1 47.7Z" fill="#000000" fill-rule="evenodd" opacity="1" stroke="none"/>
<path d="M25.2 45.3L25.2 46.6C24.1 46.5 23.2 47.2 23 48.2L23 48.3L23 51.6L21.6 51.6L21.6 45.2L23 45.2L23 46.5C23.4 45.8 24.3 45.2 25.2 45.3Z" fill="#000000" fill-rule="evenodd" opacity="1" stroke="none"/>
<path d="M27.5 43.5C27.5 43.9 27.1 44.3 26.7 44.3C26.3 44.3 25.9 43.9 25.9 43.5C25.9 43.1 26.3 42.7 26.7 42.7C27.1 42.7 27.5 43 27.5 43.5ZM27.4 45.3L27.4 51.7L26 51.7L26 45.3L27.4 45.3Z" fill="#000000" fill-rule="evenodd" opacity="1" stroke="none"/>
<path d="M32.7 51.3C32.2 51.6 31.7 51.8 31.1 51.8C30.2 51.9 29.4 51.2 29.3 50.2C29.3 50.1 29.3 50 29.3 49.9L29.3 46.6L28.4 46.6L28.4 45.6L29.3 45.6L29.3 43.8L30.7 43.8L30.7 45.6L32.6 45.6L32.6 46.6L30.7 46.6L30.7 49.6C30.7 50.3 30.9 50.5 31.4 50.5C31.8 50.5 32.1 50.4 32.4 50.2L32.7 51.3Z" fill="#000000" fill-rule="evenodd" opacity="1" stroke="none"/>
<path d="M83.2 8.9C82.8 8.8 82.4 8.8 82.1 9C79.3 10.2 76.2 10.3 73.3 9.4C70.9 8.6 68.4 8.1 65.9 7.8C61.4 7.4 57.4 9 53.5 11C51.8 12 50.1 12.7 48.2 13.2C46.5 13.6 45.9 12.9 46.2 11.2C46.5 9.8 46.1 9.2 44.8 8.7C44.4 8.6 44 8.5 43.7 8.4C38.9 7.9 34 8.4 29.4 9.7L29 9.9C29 9.9 34.3 9.5 36.6 14.2C39.5 13.8 42.5 13.8 45.4 14.3C46.6 14.5 47.1 15.1 46.6 16.3C46.4 16.8 46.3 17.3 46.3 17.8C46.2 19.4 46.9 20 48.4 19.6C48.9 19.5 49.4 19.3 49.9 19.1C52 18.1 54.1 17 56.1 15.7C58.2 14.3 60.6 13.4 63.1 13.1C66.5 12.7 69.9 13 73.3 12.9C76.2 12.8 79.1 12.5 81.6 10.7C82.3 10.4 82.9 9.7 83.2 8.9Z" fill="#f6921e" fill-rule="evenodd" opacity="1" stroke="none"/>
<path d="M83.2 19.6C82.8 19.4 82.4 19.5 82.1 19.7C79.3 20.9 76.2 21 73.3 20.1C70.9 19.3 68.4 18.8 65.9 18.6C61.4 18.2 57.3 19.8 53.4 21.8C51.7 22.8 50 23.5 48.1 24C46.4 24.4 45.8 23.7 46.1 22C46.4 20.6 46 20 44.7 19.5C44.3 19.4 43.9 19.3 43.6 19.2C41.6 19 39.6 18.9 37.6 19.1C37.3 21.8 35.8 24.3 33.4 25.7L34.7 25.4C38.2 24.6 41.8 24.6 45.3 25.1C46.5 25.3 47 25.9 46.5 27.1C46.3 27.6 46.2 28.1 46.2 28.6C46.1 30.2 46.8 30.8 48.3 30.4C48.8 30.3 49.3 30.1 49.8 29.9C51.9 28.9 54 27.8 56 26.5C58.1 25.1 60.4 24.1 62.9 23.9C66.3 23.5 69.7 23.8 73.1 23.7C76 23.6 78.9 23.2 81.4 21.5C82.3 21.2 82.9 20.5 83.2 19.6Z" fill="#00a04e" fill-rule="evenodd" opacity="1" stroke="none"/>
<path d="M5.4 0L5.4 2.3L19 2.3L7.5 23.5L9.4 24.9L23.1 1.07288e-06L5.4 0Z" fill="#000000" fill-rule="evenodd" opacity="1" stroke="none"/>
<path d="M36.1 0L25.5 0L17.7 14.1L19.5 14.9L26.6 2.3L36.1 2.3L36.1 0Z" fill="#000000" fill-rule="evenodd" opacity="1" stroke="none"/>
</g>
<g opacity="1">
<path d="M12.8 37.3L7.5 37.3L6.5 39.7L4.7 39.7L9.3 29.2L11.1 29.2L15.7 39.7L13.8 39.7L12.8 37.3ZM12.1 35.8L10.1 31.2L8.1 35.8L12.1 35.8Z" fill="#00a2ed" fill-rule="evenodd" opacity="1" stroke="none"/>
<path d="M22.6 31.8L22.6 33L18 38.3L22.7 38.3L22.7 39.7L15.9 39.7L15.9 38.5L20.4 33.1L16 33.1L16 31.7L22.6 31.8Z" fill="#00a2ed" fill-rule="evenodd" opacity="1" stroke="none"/>
<path d="M28.8 39.7L28.8 38.7C28.1 39.4 27.2 39.8 26.2 39.7C24.8 39.8 23.6 38.9 23.4 37.5C23.4 37.4 23.4 37.3 23.4 37.3C23.4 35.8 24.5 34.9 26.4 34.9L28.8 34.9L28.8 34.7C28.8 33.7 28.2 33.1 26.9 33.1C26.1 33.1 25.2 33.4 24.6 33.9L23.9 32.7C24.9 32 26.1 31.7 27.3 31.7C29.3 31.7 30.5 32.7 30.5 34.5L30.5 39.7L28.8 39.7ZM28.8 36.9L28.8 36.2L26.6 36.2C25.5 36.2 25 36.5 25 37.3C25 38.1 25.6 38.5 26.5 38.5C27.7 38.4 28.6 37.8 28.8 36.9Z" fill="#00a2ed" fill-rule="evenodd" opacity="1" stroke="none"/>
<path d="M39.9 28.6L39.9 39.7L38.2 39.7L38.2 38.3C37.6 39.3 36.5 39.8 35.4 39.7C33.3 39.7 31.6 38.1 31.6 36C31.6 35.9 31.6 35.7 31.6 35.6C31.4 33.6 33 31.8 35 31.6L35.4 31.6C36.5 31.5 37.6 32.1 38.2 33.1L38.2 28.6L39.9 28.6ZM38.2 35.8C38.3 34.5 37.3 33.3 35.9 33.2C34.6 33.1 33.4 34.1 33.3 35.5L33.3 35.8C33.2 37.1 34.2 38.3 35.6 38.4C36.9 38.5 38.1 37.5 38.2 36.1C38.2 36 38.2 35.9 38.2 35.8Z" fill="#00a2ed" fill-rule="evenodd" opacity="1" stroke="none"/>
<path d="M44 29.5C44 30.1 43.6 30.5 43 30.5C42.4 30.5 42 30.1 42 29.5C42 28.9 42.4 28.5 43 28.5C43.6 28.5 44 28.9 44 29.5ZM43.8 31.8L43.8 39.8L42.1 39.8L42.1 31.8L43.8 31.8Z" fill="#00a2ed" fill-rule="evenodd" opacity="1" stroke="none"/>
<path d="M27 10.7C27.2 10.7 27.4 10.8 27.5 11C27.5 11.2 27.4 11.4 27.2 11.4C27 11.4 26.8 11.3 26.7 11.1C26.7 11 26.8 10.7 27 10.7Z" fill="#00a2ed" fill-rule="evenodd" opacity="1" stroke="none"/>
<path d="M35.3 18C35.3 18.2 35.2 18.4 35 18.5C34.8 18.5 34.6 18.4 34.5 18.2C34.4 18 34.6 17.8 34.8 17.8C35.1 17.7 35.3 17.8 35.3 18Z" fill="#00a2ed" fill-rule="evenodd" opacity="1" stroke="none"/>
<path d="M35.3 20.1C35.3 20.3 35.1 20.5 34.9 20.5C34.7 20.5 34.5 20.3 34.5 20.1C34.5 19.9 34.7 19.7 34.9 19.7C35.1 19.7 35.3 19.9 35.3 20.1Z" fill="#00a2ed" fill-rule="evenodd" opacity="1" stroke="none"/>
<g opacity="1">
<path d="M22.6 12.5L26.3 16.3L27 17.4L27.8 18.5L26.9 17.6L25.9 16.6L22.6 12.5Z" fill="#00a2ed" fill-rule="evenodd" opacity="1" stroke="none"/>
<path d="M24.3 11.4L26.8 16L27.3 17.2L27.8 18.5L27.1 17.4L26.4 16.2L24.3 11.4Z" fill="#00a2ed" fill-rule="evenodd" opacity="1" stroke="none"/>
<path d="M26.1 10.8L27.5 15.9L27.6 17.2L27.8 18.5L27.4 17.2L27 16L26.1 10.8Z" fill="#00a2ed" fill-rule="evenodd" opacity="1" stroke="none"/>
<path d="M28.1 10.7L28.1 15.9L28 17.2L27.8 18.5L27.7 17.2L27.7 15.9L28.1 10.7Z" fill="#00a2ed" fill-rule="evenodd" opacity="1" stroke="none"/>
<path d="M30.1 11.1L28.8 16.1L28.3 17.3L27.8 18.5L28.1 17.2L28.3 16L30.1 11.1Z" fill="#00a2ed" fill-rule="evenodd" opacity="1" stroke="none"/>
<path d="M31.9 12.1L29.3 16.5L28.6 17.5L27.8 18.5L28.4 17.4L29 16.2L31.9 12.1Z" fill="#00a2ed" fill-rule="evenodd" opacity="1" stroke="none"/>
<path d="M33.4 13.4L29.8 17L28.8 17.7L27.8 18.5L28.6 17.5L29.5 16.6L33.4 13.4Z" fill="#00a2ed" fill-rule="evenodd" opacity="1" stroke="none"/>
<path d="M34.5 15.2L30.1 17.6L29 18L27.8 18.5L28.9 17.8L29.9 17.2L34.5 15.2Z" fill="#00a2ed" fill-rule="evenodd" opacity="1" stroke="none"/>
<path d="M35.2 17.1L30.3 18.3L29 18.4L27.8 18.5L29 18.1L30.2 17.8L35.2 17.1Z" fill="#00a2ed" fill-rule="evenodd" opacity="1" stroke="none"/>
<path d="M35.4 19.1L30.3 18.9L29 18.7L27.8 18.5L29.1 18.5L30.3 18.5L35.4 19.1Z" fill="#00a2ed" fill-rule="evenodd" opacity="1" stroke="none"/>
<path d="M35 21.1L30.1 19.6L29 19L27.8 18.5L29 18.8L30.3 19.1L35 21.1Z" fill="#00a2ed" fill-rule="evenodd" opacity="1" stroke="none"/>
<path d="M34.2 23L29.8 20.2L28.8 19.3L27.8 18.5L28.9 19.1L30 19.8L34.2 23Z" fill="#00a2ed" fill-rule="evenodd" opacity="1" stroke="none"/>
<path d="M32.9 24.5L29.3 20.6L28.6 19.5L27.8 18.5L28.7 19.4L29.7 20.3L32.9 24.5Z" fill="#00a2ed" fill-rule="evenodd" opacity="1" stroke="none"/>
<path d="M31.3 25.6L28.8 20.9L28.3 19.7L27.8 18.5L28.5 19.6L29.2 20.7L31.3 25.6Z" fill="#00a2ed" fill-rule="evenodd" opacity="1" stroke="none"/>
<path d="M29.5 26.2L28.1 21.1L28 19.8L27.8 18.5L28.2 19.7L28.6 21L29.5 26.2Z" fill="#00a2ed" fill-rule="evenodd" opacity="1" stroke="none"/>
<path d="M27.5 26.3L27.4 21L27.6 19.8L27.8 18.5L27.9 19.8L27.9 21.1L27.5 26.3Z" fill="#00a2ed" fill-rule="evenodd" opacity="1" stroke="none"/>
<path d="M25.5 25.8L26.8 20.8L27.3 19.7L27.8 18.5L27.5 19.7L27.3 21L25.5 25.8Z" fill="#00a2ed" fill-rule="evenodd" opacity="1" stroke="none"/>
<path d="M23.7 24.9L26.2 20.5L27 19.5L27.8 18.5L27.2 19.6L26.6 20.8L23.7 24.9Z" fill="#00a2ed" fill-rule="evenodd" opacity="1" stroke="none"/>
<path d="M22.2 23.5L25.8 20L26.8 19.2L27.8 18.5L26.9 19.4L26.1 20.3L22.2 23.5Z" fill="#00a2ed" fill-rule="evenodd" opacity="1" stroke="none"/>
<path d="M21 21.8L25.4 19.4L26.6 18.9L27.8 18.5L26.7 19.1L25.7 19.8L21 21.8Z" fill="#00a2ed" fill-rule="evenodd" opacity="1" stroke="none"/>
<path d="M20.4 19.9L25.3 18.7L26.5 18.6L27.8 18.5L26.6 18.8L25.4 19.2L20.4 19.9Z" fill="#00a2ed" fill-rule="evenodd" opacity="1" stroke="none"/>
<path d="M20.2 17.8L25.3 18L26.5 18.2L27.8 18.5L26.5 18.5L25.3 18.5L20.2 17.8Z" fill="#00a2ed" fill-rule="evenodd" opacity="1" stroke="none"/>
<path d="M20.5 15.8L25.5 17.4L26.6 17.9L27.8 18.5L26.5 18.1L25.3 17.8L20.5 15.8Z" fill="#00a2ed" fill-rule="evenodd" opacity="1" stroke="none"/>
<path d="M21.4 14L25.8 16.8L26.8 17.6L27.8 18.5L26.7 17.8L25.5 17.2L21.4 14Z" fill="#00a2ed" fill-rule="evenodd" opacity="1" stroke="none"/>
<path d="M25.1 11.1C25.3 11 25.5 11.1 25.6 11.3C25.7 11.5 25.6 11.7 25.4 11.8C25.2 11.9 25 11.8 24.9 11.6C24.9 11.4 24.9 11.2 25.1 11.1Z" fill="#00a2ed" fill-rule="evenodd" opacity="1" stroke="none"/>
<path d="M29 10.9C29.2 10.9 29.4 11.1 29.4 11.3C29.4 11.5 29.2 11.7 29 11.7C28.8 11.7 28.6 11.5 28.6 11.3C28.6 11 28.8 10.9 29 10.9Z" fill="#00a2ed" fill-rule="evenodd" opacity="1" stroke="none"/>
<path d="M30.9 11.5C31.1 11.6 31.2 11.8 31.1 12C31 12.2 30.8 12.3 30.6 12.2C30.4 12.1 30.3 11.9 30.4 11.7C30.5 11.6 30.7 11.5 30.9 11.5Z" fill="#00a2ed" fill-rule="evenodd" opacity="1" stroke="none"/>
<path d="M32.6 12.7C32.8 12.8 32.8 13.1 32.7 13.2C32.6 13.4 32.4 13.4 32.2 13.3C32 13.2 32 13 32.1 12.8C32.2 12.6 32.4 12.6 32.6 12.7Z" fill="#00a2ed" fill-rule="evenodd" opacity="1" stroke="none"/>
<path d="M34 14.2C34.2 14.4 34.2 14.6 34 14.8C33.9 14.9 33.6 15 33.5 14.8C33.4 14.6 33.4 14.4 33.5 14.2C33.6 14.1 33.9 14.1 34 14.2Z" fill="#00a2ed" fill-rule="evenodd" opacity="1" stroke="none"/>
<path d="M34.9 16C35 16.2 34.9 16.4 34.7 16.5C34.5 16.6 34.3 16.5 34.2 16.3C34.1 16.1 34.2 15.9 34.4 15.8C34.6 15.8 34.8 15.9 34.9 16Z" fill="#00a2ed" fill-rule="evenodd" opacity="1" stroke="none"/>
<path d="M34.7 22C34.6 22.2 34.4 22.3 34.3 22.2C34.1 22.1 34 21.9 34.1 21.7C34.2 21.5 34.4 21.4 34.6 21.5C34.6 21.6 34.8 21.8 34.7 22Z" fill="#00a2ed" fill-rule="evenodd" opacity="1" stroke="none"/>
<path d="M33.6 23.7C33.5 23.9 33.3 23.9 33.1 23.8C32.9 23.7 32.9 23.4 33 23.3C33.1 23.1 33.3 23.1 33.5 23.2C33.7 23.3 33.8 23.5 33.6 23.7Z" fill="#00a2ed" fill-rule="evenodd" opacity="1" stroke="none"/>
<path d="M32.2 25C32 25.1 31.8 25.1 31.7 25C31.6 24.8 31.6 24.6 31.7 24.5C31.9 24.4 32.1 24.4 32.2 24.5C32.3 24.6 32.3 24.8 32.2 25Z" fill="#00a2ed" fill-rule="evenodd" opacity="1" stroke="none"/>
<path d="M30.5 25.9C30.3 26 30.1 25.9 30 25.7C29.9 25.5 30 25.3 30.2 25.2C30.4 25.1 30.6 25.2 30.7 25.5C30.7 25.6 30.6 25.8 30.5 25.9Z" fill="#00a2ed" fill-rule="evenodd" opacity="1" stroke="none"/>
<path d="M28.5 26.2C28.3 26.2 28.1 26.1 28 25.9C27.9 25.7 28.1 25.5 28.3 25.4C28.5 25.4 28.7 25.5 28.7 25.7C28.9 26 28.8 26.2 28.5 26.2Z" fill="#00a2ed" fill-rule="evenodd" opacity="1" stroke="none"/>
<path d="M26.5 26.1C26.3 26.1 26.1 25.9 26.1 25.7C26.1 25.5 26.3 25.3 26.5 25.3C26.7 25.3 26.9 25.5 26.9 25.7C26.9 25.9 26.8 26.1 26.5 26.1C26.6 26.1 26.6 26.1 26.5 26.1Z" fill="#00a2ed" fill-rule="evenodd" opacity="1" stroke="none"/>
<path d="M27.1 17.7C27.5 17.4 28.1 17.4 28.5 17.8C28.9 18.2 28.8 18.8 28.4 19.2C28 19.5 27.4 19.5 27 19.1C26.7 18.7 26.7 18.1 27.1 17.7Z" fill="#00a2ed" fill-rule="evenodd" opacity="1" stroke="none"/>
<path d="M33.6 13.3C31.4 10.6 27.7 9.7 24.5 11L24.5 11.7C27.5 10.3 31.1 11.1 33.2 13.7C35.9 16.8 35.7 21.4 32.8 24.3C30.5 26.3 27.2 26.6 24.6 25.1L24.6 25.8C27.4 27.3 30.8 26.9 33.2 24.8C36.3 21.6 36.6 16.6 33.6 13.3Z" fill="#00a2ed" fill-rule="evenodd" opacity="1" stroke="none"/>
</g>
<path d="M54.1 43.3L51.4 39.6L50 41.2L50 43.3L48.6 43.3L48.6 34.9L50 34.9L50 39.2L54 34.9L55.7 34.9L52.4 38.5L55.9 43.3L54.1 43.3Z" fill="#00a2ed" fill-rule="evenodd" opacity="1" stroke="none"/>
<path d="M60.5 43.3L60.5 42.5C60 43.1 59.2 43.4 58.4 43.3C57.3 43.4 56.3 42.6 56.2 41.5C56.2 41.4 56.2 41.3 56.2 41.3C56.2 40.1 57.1 39.4 58.6 39.4L60.5 39.4L60.5 39.2C60.5 38.4 60 38 59 38C58.3 38 57.7 38.2 57.1 38.6L56.5 37.6C57.3 37.1 58.3 36.8 59.2 36.8C60.8 36.8 61.7 37.6 61.8 39L61.8 43.2L60.5 43.3ZM60.5 41.1L60.5 40.5L58.8 40.5C57.9 40.5 57.5 40.7 57.5 41.3C57.5 41.9 58 42.3 58.7 42.3C59.6 42.3 60.4 41.8 60.5 41.1Z" fill="#00a2ed" fill-rule="evenodd" opacity="1" stroke="none"/>
<path d="M37.8 45.5L41.2 52.5L44.6 45.5L46.7 45.5L46.7 56L45.1 56L45.1 48.2L41.8 54.9L40.6 54.9L37.3 48.2L37.3 56L35.6 56L35.6 45.5L37.8 45.5Z" fill="#00a2ed" fill-rule="evenodd" opacity="1" stroke="none"/>
<path d="M53.8 55.9L53.8 55C53.1 55.7 52.2 56.1 51.2 56C49.8 56.1 48.6 55.2 48.4 53.8C48.4 53.7 48.4 53.6 48.4 53.6C48.4 52.1 49.5 51.2 51.4 51.2L53.8 51.2L53.8 51C53.8 50 53.2 49.4 51.9 49.4C51.1 49.4 50.2 49.7 49.6 50.2L48.9 49C49.9 48.3 51.1 48 52.3 48C54.3 48 55.5 49 55.5 50.8L55.5 56L53.8 55.9ZM53.8 53.1L53.8 52.4L51.6 52.4C50.5 52.4 50 52.7 50 53.5C50 54.3 50.6 54.7 51.5 54.7C52.8 54.6 53.7 54 53.8 53.1Z" fill="#00a2ed" fill-rule="evenodd" opacity="1" stroke="none"/>
<path d="M65.1 51L65.1 56L63.4 56L63.4 51.5C63.5 50.5 62.8 49.7 61.8 49.6C61.7 49.6 61.6 49.6 61.5 49.6C60.3 49.6 59.2 50.6 59.2 51.8L59.2 52L59.2 55.9L57.5 55.9L57.5 44.8L59.2 44.8L59.2 49.5C59.8 48.4 60.9 47.8 62.1 47.9C63.6 47.8 65 49 65.1 50.5L65.1 51Z" fill="#00a2ed" fill-rule="evenodd" opacity="1" stroke="none"/>
<path d="M74.5 51.9C74.6 54.2 72.8 56.1 70.5 56.2C68.2 56.3 66.3 54.5 66.2 52.2C66.1 49.9 67.9 48 70.2 47.9L70.3 47.9C72.5 47.8 74.3 49.4 74.4 51.6C74.5 51.7 74.5 51.8 74.5 51.9ZM68 52C68.1 53.3 69.2 54.3 70.6 54.3C71.9 54.2 72.9 53.1 72.9 51.7C72.8 50.4 71.8 49.4 70.5 49.4C69.2 49.4 68.1 50.4 68.1 51.8C68 51.9 68 51.9 68 52Z" fill="#00a2ed" fill-rule="evenodd" opacity="1" stroke="none"/>
<path d="M80.4 55.4C79.8 55.8 79.1 56 78.4 56C77.2 56.1 76.3 55.2 76.2 54.1C76.2 54 76.2 53.8 76.2 53.7L76.2 49.6L75.1 49.6L75.1 48.3L76.2 48.3L76.2 46.1L78 46.1L78 48.3L80.3 48.3L80.3 49.6L78 49.6L78 53.4C78 54.2 78.3 54.5 78.8 54.5C79.2 54.5 79.6 54.4 80 54.1L80.4 55.4Z" fill="#00a2ed" fill-rule="evenodd" opacity="1" stroke="none"/>
<path d="M83.9 49.3C83.2 49.3 82.7 49.5 82.7 50.1C82.7 51.6 86.9 50.8 86.9 53.7C86.9 55.3 85.5 56.1 83.9 56.1C82.7 56.1 81.6 55.7 80.7 55L81.3 53.8C82 54.4 83 54.8 84 54.8C84.7 54.8 85.3 54.6 85.3 54C85.3 52.4 81.1 53.3 81.1 50.4C81.1 48.8 82.5 48.1 84 48.1C85 48.1 85.9 48.4 86.8 48.9L86.1 50C85.5 49.6 84.7 49.3 83.9 49.3Z" fill="#00a2ed" fill-rule="evenodd" opacity="1" stroke="none"/>
<path d="M93 55.9L93 55C92.3 55.7 91.4 56.1 90.4 56C89 56.2 87.8 55.2 87.6 53.8C87.6 53.7 87.6 53.6 87.6 53.5C87.6 52 88.7 51.1 90.6 51.1L93 51.1L93 50.9C93 49.9 92.4 49.3 91.1 49.3C90.3 49.3 89.4 49.6 88.8 50.1L88.1 48.9C89.1 48.2 90.3 47.9 91.5 47.9C93.5 47.9 94.7 48.9 94.7 50.7L94.7 55.9L93 55.9ZM93 53.1L93 52.4L90.8 52.4C89.7 52.4 89.2 52.7 89.2 53.5C89.2 54.3 89.8 54.7 90.7 54.7C92 54.6 92.9 54 93 53.1Z" fill="#00a2ed" fill-rule="evenodd" opacity="1" stroke="none"/>
<path d="M96.9 48L99.1 54.3L101.3 48L103 48L100 56L98.2 56L95.1 48L96.9 48Z" fill="#00a2ed" fill-rule="evenodd" opacity="1" stroke="none"/>
<path d="M6.5 49.8L2.3 49.8L1.5 51.7L1.78814e-07 51.7L3.7 43.3L5.1 43.3L8.8 51.7L7.3 51.7L6.5 49.8ZM5.9 48.5L4.3 44.8L2.7 48.5L5.9 48.5Z" fill="#00a2ed" fill-rule="evenodd" opacity="1" stroke="none"/>
<path d="M20.1 47.7L20.1 51.7L18.7 51.7L18.7 48.1C18.8 47.3 18.2 46.6 17.5 46.5C17.4 46.5 17.3 46.5 17.2 46.5C16.2 46.5 15.4 47.4 15.5 48.4L15.5 48.5L15.5 51.6L14.1 51.6L14.1 48C14.2 47.2 13.6 46.5 12.9 46.4C12.8 46.4 12.7 46.4 12.7 46.4C11.7 46.4 10.9 47.3 10.9 48.3L10.9 48.4L10.9 51.5L9.5 51.5L9.5 45.1L10.9 45.1L10.9 46.3C11.3 45.4 12.2 44.9 13.2 45C14.2 44.9 15.1 45.6 15.4 46.5C15.8 45.5 16.7 44.9 17.8 45C19 44.9 20.1 45.8 20.1 47.1L20.1 47.7Z" fill="#00a2ed" fill-rule="evenodd" opacity="1" stroke="none"/>
<path d="M25.2 45.3L25.2 46.6C24.1 46.5 23.2 47.2 23 48.2L23 48.3L23 51.6L21.6 51.6L21.6 45.2L23 45.2L23 46.5C23.4 45.8 24.3 45.2 25.2 45.3Z" fill="#00a2ed" fill-rule="evenodd" opacity="1" stroke="none"/>
<path d="M27.5 43.5C27.5 43.9 27.1 44.3 26.7 44.3C26.3 44.3 25.9 43.9 25.9 43.5C25.9 43.1 26.3 42.7 26.7 42.7C27.1 42.7 27.5 43 27.5 43.5ZM27.4 45.3L27.4 51.7L26 51.7L26 45.3L27.4 45.3Z" fill="#00a2ed" fill-rule="evenodd" opacity="1" stroke="none"/>
<path d="M32.7 51.3C32.2 51.6 31.7 51.8 31.1 51.8C30.2 51.9 29.4 51.2 29.3 50.2C29.3 50.1 29.3 50 29.3 49.9L29.3 46.6L28.4 46.6L28.4 45.6L29.3 45.6L29.3 43.8L30.7 43.8L30.7 45.6L32.6 45.6L32.6 46.6L30.7 46.6L30.7 49.6C30.7 50.3 30.9 50.5 31.4 50.5C31.8 50.5 32.1 50.4 32.4 50.2L32.7 51.3Z" fill="#00a2ed" fill-rule="evenodd" opacity="1" stroke="none"/>
<path d="M83.2 8.9C82.8 8.8 82.4 8.8 82.1 9C79.3 10.2 76.2 10.3 73.3 9.4C70.9 8.6 68.4 8.1 65.9 7.8C61.4 7.4 57.4 9 53.5 11C51.8 12 50.1 12.7 48.2 13.2C46.5 13.6 45.9 12.9 46.2 11.2C46.5 9.8 46.1 9.2 44.8 8.7C44.4 8.6 44 8.5 43.7 8.4C38.9 7.9 34 8.4 29.4 9.7L29 9.9C29 9.9 34.3 9.5 36.6 14.2C39.5 13.8 42.5 13.8 45.4 14.3C46.6 14.5 47.1 15.1 46.6 16.3C46.4 16.8 46.3 17.3 46.3 17.8C46.2 19.4 46.9 20 48.4 19.6C48.9 19.5 49.4 19.3 49.9 19.1C52 18.1 54.1 17 56.1 15.7C58.2 14.3 60.6 13.4 63.1 13.1C66.5 12.7 69.9 13 73.3 12.9C76.2 12.8 79.1 12.5 81.6 10.7C82.3 10.4 82.9 9.7 83.2 8.9Z" fill="#f6921e" fill-rule="evenodd" opacity="1" stroke="none"/>
<path d="M83.2 19.6C82.8 19.4 82.4 19.5 82.1 19.7C79.3 20.9 76.2 21 73.3 20.1C70.9 19.3 68.4 18.8 65.9 18.6C61.4 18.2 57.3 19.8 53.4 21.8C51.7 22.8 50 23.5 48.1 24C46.4 24.4 45.8 23.7 46.1 22C46.4 20.6 46 20 44.7 19.5C44.3 19.4 43.9 19.3 43.6 19.2C41.6 19 39.6 18.9 37.6 19.1C37.3 21.8 35.8 24.3 33.4 25.7L34.7 25.4C38.2 24.6 41.8 24.6 45.3 25.1C46.5 25.3 47 25.9 46.5 27.1C46.3 27.6 46.2 28.1 46.2 28.6C46.1 30.2 46.8 30.8 48.3 30.4C48.8 30.3 49.3 30.1 49.8 29.9C51.9 28.9 54 27.8 56 26.5C58.1 25.1 60.4 24.1 62.9 23.9C66.3 23.5 69.7 23.8 73.1 23.7C76 23.6 78.9 23.2 81.4 21.5C82.3 21.2 82.9 20.5 83.2 19.6Z" fill="#00a04e" fill-rule="evenodd" opacity="1" stroke="none"/>
<path d="M5.4 0L5.4 2.3L19 2.3L7.5 23.5L9.4 24.9L23.1 1.07288e-06L5.4 0Z" fill="#00a2ed" fill-rule="evenodd" opacity="1" stroke="none"/>
<path d="M36.1 0L25.5 0L17.7 14.1L19.5 14.9L26.6 2.3L36.1 2.3L36.1 0Z" fill="#00a2ed" fill-rule="evenodd" opacity="1" stroke="none"/>
</g>
</g>
</svg>
