<?xml version="1.0" encoding="UTF-8" standalone="no"?>
<!DOCTYPE svg PUBLIC "-//W3C//DTD SVG 1.1//EN" "http://www.w3.org/Graphics/SVG/1.1/DTD/svg11.dtd">

<!-- Created with Vectornator (http://vectornator.io/) -->
<svg height="100%" stroke-miterlimit="10" style="fill-rule:nonzero;clip-rule:evenodd;stroke-linecap:round;stroke-linejoin:round;" version="1.1" viewBox="0 0 16 16" width="100%" xml:space="preserve" xmlns="http://www.w3.org/2000/svg" xmlns:vectornator="http://vectornator.io" xmlns:xlink="http://www.w3.org/1999/xlink">
<metadata>
<vectornator:setting key="IsTimeLapseWatermarkDisabled" value="false"/>
<vectornator:setting key="UndoHistoryDisabled" value="true"/>
<vectornator:setting key="VNDimensionsVisible" value="true"/>
<vectornator:setting key="VNSnapToGuides" value="true"/>
<vectornator:setting key="WDCMYKEnabledKey" value="false"/>
<vectornator:setting key="WDDisplayWhiteBackground" value="false"/>
<vectornator:setting key="WDDynamicGuides" value="false"/>
<vectornator:setting key="WDGuidesVisible" value="true"/>
<vectornator:setting key="WDIsolateActiveLayer" value="false"/>
<vectornator:setting key="WDOutlineMode" value="false"/>
<vectornator:setting key="WDRulersVisible" value="true"/>
<vectornator:setting key="WDSnapToEdges" value="false"/>
<vectornator:setting key="WDSnapToGrid" value="false"/>
<vectornator:setting key="WDSnapToPoints" value="false"/>
<vectornator:setting key="WDUnits" value="Pixels"/>
</metadata>
<defs>
<linearGradient gradientTransform="matrix(0 -0.186921 0.186921 0 -211.04 -314.198)" gradientUnits="userSpaceOnUse" id="LinearGradient" x1="-1742.12" x2="-1701.33" y1="1186.31" y2="1186.31">
<stop offset="0" stop-color="#1e76ba"/>
<stop offset="0.2397" stop-color="#1d71b7"/>
<stop offset="0.5427" stop-color="#2261ab"/>
<stop offset="0.8783" stop-color="#284897"/>
<stop offset="1" stop-color="#2b3c8f"/>
</linearGradient>
<linearGradient gradientTransform="matrix(0 -0.186921 -0.186921 0 -194.479 -314.198)" gradientUnits="userSpaceOnUse" id="LinearGradient_2" x1="-1721.72" x2="-1721.72" y1="-1054.36" y2="-1083.33">
<stop offset="0" stop-color="#29aae1"/>
<stop offset="0.4705" stop-color="#2aa7df"/>
<stop offset="0.6669" stop-color="#2aa1db"/>
<stop offset="0.8122" stop-color="#2694d2"/>
<stop offset="0.9317" stop-color="#2284c4"/>
<stop offset="1" stop-color="#1e76ba"/>
</linearGradient>
<linearGradient gradientTransform="matrix(0.0314278 0.181743 -0.181743 0.0314278 19.8695 -5.5886)" gradientUnits="userSpaceOnUse" id="LinearGradient_3" x1="62.2715" x2="62.2715" y1="115.912" y2="35.5527">
<stop offset="0" stop-color="#19b5ea"/>
<stop offset="0.3481" stop-color="#1d71b7"/>
<stop offset="0.5427" stop-color="#2261ab"/>
<stop offset="0.8783" stop-color="#284897"/>
<stop offset="1" stop-color="#2b3c8f"/>
</linearGradient>
<linearGradient gradientTransform="matrix(1 0 0 1 0 0)" gradientUnits="userSpaceOnUse" id="LinearGradient_4" x1="2.34375" x2="8" y1="9.57812" y2="9.57812">
<stop offset="0" stop-color="#29aae1"/>
<stop offset="0.4705" stop-color="#2aa7df"/>
<stop offset="0.6669" stop-color="#2aa1db"/>
<stop offset="0.8122" stop-color="#2694d2"/>
<stop offset="0.9317" stop-color="#2284c4"/>
<stop offset="1" stop-color="#1e76ba"/>
</linearGradient>
<linearGradient gradientTransform="matrix(1 0 0 1 0 0)" gradientUnits="userSpaceOnUse" id="LinearGradient_5" x1="8.03125" x2="13.6562" y1="9.625" y2="9.625">
<stop offset="0" stop-color="#1e76ba"/>
<stop offset="0.2397" stop-color="#1d71b7"/>
<stop offset="0.5427" stop-color="#2261ab"/>
<stop offset="0.8783" stop-color="#284897"/>
<stop offset="1" stop-color="#2b3c8f"/>
</linearGradient>
<linearGradient gradientTransform="matrix(1.23809 0 0 1.23809 -6.38492 -0.984547)" gradientUnits="userSpaceOnUse" id="LinearGradient_6" x1="8.03125" x2="13.6562" y1="9.625" y2="9.625">
<stop offset="0" stop-color="#1e76ba"/>
<stop offset="0.2397" stop-color="#1d71b7"/>
<stop offset="0.5427" stop-color="#2261ab"/>
<stop offset="0.8783" stop-color="#284897"/>
<stop offset="1" stop-color="#2b3c8f"/>
</linearGradient>
<linearGradient gradientTransform="matrix(-1.23588 0 0 1.23588 22.3644 -0.952097)" gradientUnits="userSpaceOnUse" id="LinearGradient_7" x1="8.03125" x2="13.6562" y1="9.625" y2="9.625">
<stop offset="0" stop-color="#1e76ba"/>
<stop offset="0.2397" stop-color="#1d71b7"/>
<stop offset="0.5427" stop-color="#2261ab"/>
<stop offset="0.8783" stop-color="#284897"/>
<stop offset="1" stop-color="#2b3c8f"/>
</linearGradient>
</defs>
<g id="Layer-1" vectornator:layerName="Layer 1">
<g opacity="0">
<path d="M8.09576 0.554893C3.9614 0.554893 0.611245 3.90505 0.611246 8.0394C0.611246 12.1738 3.9614 15.5239 8.09576 15.5239C12.2301 15.5239 15.5803 12.1738 15.5803 8.0394C15.5803 3.90505 12.2301 0.554892 8.09576 0.554893ZM8.09576 1.2987C11.8193 1.2987 14.8365 4.31584 14.8365 8.0394C14.8365 11.763 11.8193 14.7801 8.09576 14.7801C4.37219 14.7801 1.35505 11.763 1.35505 8.0394C1.35505 4.31584 4.37219 1.29869 8.09576 1.2987Z" fill="#00a2ed" fill-rule="evenodd" opacity="1" stroke="none"/>
<path d="M5.20115 6.51681C4.34903 6.51681 3.65825 7.20759 3.65825 8.05971C3.65825 8.91183 4.34903 9.60262 5.20115 9.60262C6.05328 9.60262 6.74406 8.91183 6.74406 8.05971C6.74406 7.20759 6.05328 6.51681 5.20115 6.51681ZM9.91304 3.77227C9.0607 3.77198 8.3696 4.46285 8.3696 5.31518C8.3696 6.16751 9.0607 6.85838 9.91304 6.85808C10.7654 6.85838 11.4565 6.16751 11.4565 5.31518C11.4565 4.46285 10.7654 3.77198 9.91304 3.77227ZM9.91304 9.20972C9.06091 9.20972 8.37013 9.9005 8.37013 10.7526C8.37013 11.6047 9.06091 12.2955 9.91304 12.2955C10.7652 12.2955 11.4559 11.6047 11.4559 10.7526C11.4559 9.9005 10.7652 9.20972 9.91304 9.20972Z" fill="#00a2ed" fill-rule="evenodd" opacity="1" stroke="none"/>
<path d="M9.70471 4.90622L10.1218 5.62244L5.41062 8.36595L4.99354 7.64973L9.70471 4.90622Z" fill="#00a2ed" fill-rule="evenodd" opacity="1" stroke="none"/>
<path d="M5.41037 7.65018L10.1215 10.3937L9.70446 11.1099L4.99329 8.36639L5.41037 7.65018Z" fill="#00a2ed" fill-rule="evenodd" opacity="1" stroke="none"/>
</g>
<g opacity="0">
<path d="M12.8553 3.86124C11.6565 2.66173 10.0622 2.00064 8.36369 2C4.86369 2 2.01526 4.84717 2.01398 8.34716C2.01335 9.46594 2.30576 10.558 2.86133 11.5204L2 14.7134L5.32646 13.9271C6.2539 14.4331 7.29767 14.6994 8.36051 14.7L8.36306 14.7C11.8624 14.7 14.7109 11.8522 14.7128 8.35289C14.714 6.65628 14.0542 5.06139 12.8553 3.86124ZM8.36115 13.4287C7.5138 13.4281 6.67472 13.2145 5.93543 12.8108L5.50763 12.5775L5.03405 12.6894L3.78305 12.985L4.08881 11.851L4.22612 11.3412L3.96231 10.8841C3.51862 10.1162 3.28469 9.23901 3.28532 8.34716C3.2866 5.54895 5.5642 3.27134 8.36306 3.27134C9.72085 3.27198 10.9966 3.80085 11.9559 4.75944C12.9151 5.7193 13.4427 6.99509 13.4414 8.35161C13.4402 11.1511 11.1619 13.4287 8.36115 13.4287Z" fill="#00a2ed" fill-rule="evenodd" opacity="1" stroke="none"/>
<path d="M11.4702 10.6159C11.338 10.9865 10.6902 11.3437 10.3991 11.3698C10.108 11.3965 9.83527 11.5014 8.49528 10.9731C6.88258 10.3374 5.86424 8.68407 5.78542 8.57855C5.70596 8.47239 5.13767 7.71849 5.13767 6.93788C5.13767 6.15728 5.54767 5.77334 5.69324 5.61505C5.83881 5.45614 6.01044 5.41673 6.1166 5.41673C6.22212 5.41673 6.32828 5.41673 6.42045 5.42054C6.5336 5.42499 6.65882 5.43071 6.7777 5.69451C6.91881 6.00853 7.22711 6.79295 7.26653 6.87241C7.30594 6.95187 7.33264 7.04468 7.27987 7.1502C7.22711 7.25572 7.20042 7.32183 7.12159 7.41464C7.04213 7.50744 6.95505 7.62123 6.88385 7.69242C6.80439 7.77125 6.72176 7.8577 6.81393 8.01598C6.90674 8.1749 7.22457 8.69424 7.69624 9.11442C8.30267 9.65474 8.81311 9.82192 8.97203 9.90201C9.13095 9.98147 9.22312 9.96812 9.31593 9.86197C9.40873 9.75644 9.71258 9.3992 9.8181 9.24028C9.92363 9.08136 10.0298 9.10806 10.1754 9.16082C10.3209 9.21358 11.1009 9.59753 11.2592 9.67699C11.4181 9.75644 11.5236 9.79586 11.563 9.86197C11.6024 9.92744 11.6024 10.2453 11.4702 10.6159Z" fill="#00a2ed" fill-rule="evenodd" opacity="1" stroke="none"/>
</g>
<g opacity="0">
<path d="M3.80955 7.66674C3.80958 7.50507 3.87401 7.35008 3.9886 7.23605C4.10319 7.12201 4.2585 7.05833 4.42016 7.05908L5.43248 7.06239C5.76861 7.06239 6.04109 7.33487 6.04109 7.67099L6.04109 11.4991C6.1551 11.4653 6.30102 11.4293 6.46159 11.3915C6.69062 11.3376 6.8525 11.1332 6.85255 10.898L6.85255 6.14978C6.85255 5.81364 7.12502 5.54113 7.46116 5.54106L8.47655 5.54106C8.8127 5.54113 9.08516 5.81364 9.08516 6.14978L9.08516 10.5569C9.08516 10.5569 9.33918 10.4541 9.58648 10.3496C9.77434 10.2702 9.89647 10.0861 9.89662 9.88209L9.89662 4.62822C9.89662 4.29214 10.169 4.01968 10.5051 4.01962L11.5194 4.01962C11.8553 4.01995 12.1275 4.29233 12.1275 4.62822L12.1275 8.95459C13.0069 8.31728 13.8981 7.55071 14.6053 6.62901C14.8138 6.35726 14.8721 5.99916 14.7608 5.67528C13.8679 3.10641 11.5975 1.26462 8.89968 0.920699C6.20189 0.576777 3.54198 1.79004 2.03313 4.05273C0.524288 6.31542 0.426708 9.23733 1.78123 11.5956C1.95788 11.9002 2.29497 12.0748 2.64563 12.0434C2.83751 12.0265 3.07641 12.0027 3.36045 11.9694C3.61636 11.9402 3.80975 11.7238 3.81002 11.4663L3.81002 7.66674" fill="#00a2ed" fill-rule="evenodd" opacity="1" stroke="none"/>
<path d="M3.78793 13.806C5.96803 15.392 8.85376 15.6204 11.2562 14.3969C13.6585 13.1735 15.1711 10.7053 15.1706 8.00938C15.1706 7.84397 15.1629 7.68115 15.1519 7.51881C12.5333 11.4243 7.69829 13.2501 3.78793 13.806" fill="#00a2ed" fill-rule="evenodd" opacity="1" stroke="none"/>
</g>
<g opacity="0">
<path d="M9.30482 15.4348C5.21799 16.1421 1.33135 13.4018 0.624604 9.3139C-0.0821425 5.22688 2.65811 1.34043 6.74532 0.633493C10.832-0.0734403 14.719 2.66681 15.4261 6.75402C16.1327 10.8416 13.3924 14.7284 9.30482 15.4348Z" fill="#ffffff" fill-rule="evenodd" opacity="1" stroke="none"/>
<g opacity="1">
<path d="M8.01245 8.24471L13.421 11.4397L7.99264 3.81637L8.01245 8.24471Z" fill="url(#LinearGradient)" fill-rule="evenodd" opacity="1" stroke="none"/>
<path d="M8.01694 8.24471L2.60204 11.4397L7.99226 3.81637L8.01694 8.24471Z" fill="url(#LinearGradient_2)" fill-rule="evenodd" opacity="1" stroke="none"/>
</g>
</g>
<g opacity="0">
<path d="M9.32572 15.4112C5.29303 16.1081 1.45788 13.4043 0.760528 9.37127C0.0631763 5.33877 2.767 1.5038 6.80005 0.806631C10.8326 0.108727 14.6677 2.81255 15.3652 6.84579C16.0626 10.879 13.3584 14.7133 9.32572 15.4112Z" fill="url(#LinearGradient_3)" fill-rule="evenodd" opacity="1" stroke="none"/>
<g opacity="1">
<path d="M8.24345 8.27553L13.444 11.2167L8.22445 4.19932L8.24345 8.27553Z" fill="#c0bfbf" fill-rule="evenodd" opacity="1" stroke="none"/>
<path d="M8.24806 8.27553L3.04144 11.2167L8.22427 4.19969L8.24806 8.27553Z" fill="#ffffff" fill-rule="evenodd" opacity="1" stroke="none"/>
</g>
</g>
<g opacity="0">
<g opacity="1">
<path d="M6.87638 8.86035L6.31388 8.86035L6.31388 9.44141L6.02091 9.44141L6.02091 8.01953L6.94669 8.01953L6.94669 8.25684L6.31388 8.25684L6.31388 8.62402L6.87638 8.62402L6.87638 8.86035Z" fill="#000000" fill-rule="evenodd" opacity="1" stroke="none"/>
<path d="M8.55317 8.7627C8.55317 8.87142 8.53853 8.96891 8.50923 9.05518C8.47993 9.14144 8.43875 9.21452 8.38569 9.27441C8.33263 9.33431 8.26899 9.38037 8.19478 9.4126C8.12056 9.44482 8.03885 9.46094 7.94966 9.46094C7.86047 9.46094 7.77876 9.44482 7.70454 9.4126C7.63032 9.38037 7.56636 9.33431 7.51265 9.27441C7.45894 9.21452 7.41711 9.14144 7.38716 9.05518C7.35721 8.96891 7.34224 8.87142 7.34224 8.7627L7.34224 8.7002C7.34224 8.59212 7.35705 8.49479 7.38667 8.4082C7.41629 8.32161 7.4578 8.24805 7.51118 8.1875C7.56457 8.12695 7.62837 8.08057 7.70259 8.04834C7.77681 8.01611 7.85851 8 7.9477 8C8.0369 8 8.1186 8.01611 8.19282 8.04834C8.26704 8.08057 8.33084 8.12695 8.38423 8.1875C8.43761 8.24805 8.47912 8.32161 8.50874 8.4082C8.53836 8.49479 8.55317 8.59212 8.55317 8.7002L8.55317 8.7627ZM8.2563 8.69824C8.2563 8.54915 8.22961 8.43587 8.17622 8.3584C8.12284 8.28092 8.04666 8.24219 7.9477 8.24219C7.84875 8.24219 7.77257 8.28092 7.71919 8.3584C7.6658 8.43587 7.63911 8.54915 7.63911 8.69824L7.63911 8.7627C7.63911 8.83691 7.64611 8.90251 7.66011 8.95947C7.6741 9.01644 7.69429 9.06429 7.72065 9.10303C7.74702 9.14176 7.77941 9.17106 7.81782 9.19092C7.85623 9.21077 7.90018 9.2207 7.94966 9.2207C8.04862 9.2207 8.12446 9.18164 8.1772 9.10352C8.22993 9.02539 8.2563 8.91178 8.2563 8.7627L8.2563 8.69824Z" fill="#000000" fill-rule="evenodd" opacity="1" stroke="none"/>
<path d="M9.56103 8.9209L9.32763 8.9209L9.32763 9.44141L9.03466 9.44141L9.03466 8.01953L9.56298 8.01953C9.64501 8.01953 9.71858 8.02881 9.78368 8.04736C9.84879 8.06592 9.9038 8.09326 9.94872 8.12939C9.99364 8.16553 10.0281 8.21029 10.0522 8.26367C10.0763 8.31706 10.0884 8.37891 10.0884 8.44922C10.0884 8.5013 10.0825 8.54801 10.0708 8.58936C10.0591 8.6307 10.0421 8.66748 10.02 8.69971C9.99788 8.73193 9.97118 8.76009 9.93993 8.78418C9.90868 8.80827 9.87353 8.8291 9.83446 8.84668L10.1421 9.42773L10.1421 9.44141L9.82763 9.44141L9.56103 8.9209ZM9.32763 8.68359L9.56396 8.68359C9.60237 8.68359 9.63606 8.67855 9.66503 8.66846C9.694 8.65837 9.71809 8.64404 9.7373 8.62549C9.7565 8.60693 9.77099 8.5848 9.78075 8.55908C9.79052 8.53337 9.7954 8.50456 9.7954 8.47266C9.7954 8.4056 9.77636 8.35286 9.73827 8.31445C9.70019 8.27604 9.64176 8.25684 9.56298 8.25684L9.32763 8.25684L9.32763 8.68359Z" fill="#000000" fill-rule="evenodd" opacity="1" stroke="none"/>
</g>
<g opacity="1">
<path d="M5.18578 13.1318L5.18578 10.8344L5.9905 10.8344C6.1241 10.8344 6.24349 10.847 6.34868 10.8722C6.45387 10.8975 6.54302 10.9361 6.61613 10.9882C6.68924 11.0403 6.74499 11.1058 6.78339 11.1847C6.82178 11.2635 6.84098 11.3566 6.84098 11.4639C6.84098 11.5165 6.83441 11.567 6.82126 11.6154C6.80811 11.6638 6.78812 11.709 6.7613 11.7511C6.73447 11.7932 6.70055 11.8313 6.65952 11.8655C6.6185 11.8997 6.56958 11.9278 6.51278 11.9499C6.5801 11.9668 6.6377 11.9923 6.68556 12.0265C6.73342 12.0606 6.77287 12.1003 6.8039 12.1456C6.83493 12.1908 6.85755 12.24 6.87175 12.2931C6.88595 12.3462 6.89305 12.4007 6.89305 12.4564C6.89305 12.6794 6.82126 12.8477 6.67767 12.9613C6.53408 13.075 6.32975 13.1318 6.06466 13.1318L5.18578 13.1318ZM5.65915 12.1314L5.65915 12.7515L6.06466 12.7515C6.12567 12.7515 6.17827 12.7439 6.22245 12.7286C6.26663 12.7134 6.30345 12.6923 6.3329 12.6655C6.36236 12.6387 6.38418 12.6071 6.39838 12.5708C6.41259 12.5345 6.41969 12.4948 6.41969 12.4517C6.41969 12.4023 6.41337 12.3578 6.40075 12.3184C6.38813 12.2789 6.3684 12.2453 6.34158 12.2174C6.31476 12.1895 6.27978 12.1682 6.23665 12.1535C6.19352 12.1387 6.14198 12.1314 6.08202 12.1314L5.65915 12.1314ZM5.65915 11.7969L6.00944 11.7969C6.13041 11.7948 6.22035 11.7693 6.27925 11.7203C6.33816 11.6714 6.36762 11.6017 6.36762 11.5113C6.36762 11.4071 6.33737 11.3322 6.27689 11.2864C6.2164 11.2407 6.12094 11.2178 5.9905 11.2178L5.65915 11.2178L5.65915 11.7969Z" fill="#000000" fill-rule="evenodd" opacity="1" stroke="none"/>
<path d="M8.1854 13.1318L7.71204 13.1318L7.71204 10.8344L8.1854 10.8344L8.1854 13.1318Z" fill="#000000" fill-rule="evenodd" opacity="1" stroke="none"/>
<path d="M9.05804 13.1318L9.05804 10.8344L9.76493 10.8344C9.91956 10.8344 10.0613 10.8609 10.1902 10.914C10.319 10.9672 10.4295 11.0419 10.5215 11.1381C10.6136 11.2344 10.6854 11.3498 10.7369 11.4844C10.7884 11.6191 10.8142 11.7685 10.8142 11.9326L10.8142 12.0367C10.8142 12.2008 10.7887 12.3499 10.7377 12.484C10.6867 12.6182 10.6146 12.7333 10.5215 12.8296C10.4284 12.9258 10.3172 13.0003 10.1878 13.0529C10.0584 13.1055 9.91588 13.1318 9.76019 13.1318L9.05804 13.1318ZM9.5314 11.2178L9.5314 12.7515L9.76019 12.7515C9.94743 12.7515 10.09 12.6897 10.1878 12.5661C10.2856 12.4425 10.3345 12.266 10.3345 12.0367L10.3345 11.9294C10.3345 11.6959 10.2862 11.5189 10.1894 11.3985C10.0926 11.278 9.95112 11.2178 9.76493 11.2178L9.5314 11.2178Z" fill="#000000" fill-rule="evenodd" opacity="1" stroke="none"/>
</g>
</g>
<g opacity="0">
<g opacity="1">
<path d="M7.72159 8.7627C7.72159 8.87142 7.70694 8.96891 7.67764 9.05518C7.64835 9.14144 7.60717 9.21452 7.55411 9.27441C7.50105 9.33431 7.43741 9.38037 7.36319 9.4126C7.28897 9.44482 7.20727 9.46094 7.11807 9.46094C7.02888 9.46094 6.94718 9.44482 6.87296 9.4126C6.79874 9.38037 6.73477 9.33431 6.68106 9.27441C6.62735 9.21452 6.58552 9.14144 6.55557 9.05518C6.52563 8.96891 6.51065 8.87142 6.51065 8.7627L6.51065 8.7002C6.51065 8.59212 6.52546 8.49479 6.55509 8.4082C6.58471 8.32161 6.62621 8.24805 6.6796 8.1875C6.73298 8.12695 6.79679 8.08057 6.871 8.04834C6.94522 8.01611 7.02693 8 7.11612 8C7.20531 8 7.28702 8.01611 7.36124 8.04834C7.43546 8.08057 7.49926 8.12695 7.55264 8.1875C7.60603 8.24805 7.64753 8.32161 7.67716 8.4082C7.70678 8.49479 7.72159 8.59212 7.72159 8.7002L7.72159 8.7627ZM7.42471 8.69824C7.42471 8.54915 7.39802 8.43587 7.34464 8.3584C7.29125 8.28092 7.21508 8.24219 7.11612 8.24219C7.01716 8.24219 6.94099 8.28092 6.88761 8.3584C6.83422 8.43587 6.80753 8.54915 6.80753 8.69824L6.80753 8.7627C6.80753 8.83691 6.81453 8.90251 6.82852 8.95947C6.84252 9.01644 6.8627 9.06429 6.88907 9.10303C6.91544 9.14176 6.94783 9.17106 6.98624 9.19092C7.02465 9.21077 7.0686 9.2207 7.11807 9.2207C7.21703 9.2207 7.29288 9.18164 7.34561 9.10352C7.39835 9.02539 7.42471 8.91178 7.42471 8.7627L7.42471 8.69824Z" fill="#000000" fill-rule="evenodd" opacity="1" stroke="none"/>
<path d="M9.39073 9.44141L9.09776 9.44141L8.52745 8.50586L8.52745 9.44141L8.23448 9.44141L8.23448 8.01953L8.52745 8.01953L9.09874 8.95703L9.09874 8.01953L9.39073 8.01953L9.39073 9.44141Z" fill="#000000" fill-rule="evenodd" opacity="1" stroke="none"/>
</g>
<g opacity="1">
<path d="M5.25352 12.5961C5.25352 12.5626 5.24867 12.5323 5.23895 12.5054C5.22924 12.4785 5.21048 12.4535 5.18266 12.4306C5.15484 12.4076 5.11643 12.3851 5.06743 12.363C5.01842 12.3409 4.95506 12.3175 4.87735 12.2928C4.78905 12.2646 4.70582 12.2328 4.62768 12.1974C4.54953 12.1621 4.48109 12.1204 4.42237 12.0723C4.36365 12.0242 4.31729 11.9687 4.2833 11.906C4.2493 11.8433 4.2323 11.7701 4.2323 11.6862C4.2323 11.6058 4.24974 11.5323 4.28462 11.4656C4.3195 11.399 4.36851 11.3422 4.43164 11.2954C4.49478 11.2486 4.56984 11.2122 4.65682 11.1862C4.74379 11.1601 4.83938 11.1471 4.94358 11.1471C5.05043 11.1471 5.14756 11.1619 5.23498 11.1915C5.3224 11.221 5.39702 11.2623 5.45883 11.3153C5.52064 11.3683 5.56832 11.4312 5.60188 11.504C5.63543 11.5769 5.65221 11.6566 5.65221 11.7431L5.25485 11.7431C5.25485 11.7025 5.24845 11.665 5.23564 11.6305C5.22284 11.5961 5.20319 11.5665 5.1767 11.5418C5.15021 11.5171 5.1171 11.4979 5.07736 11.4842C5.03762 11.4705 4.99082 11.4636 4.93696 11.4636C4.88486 11.4636 4.8396 11.4694 4.80119 11.4809C4.76278 11.4923 4.73099 11.5082 4.70582 11.5285C4.68066 11.5489 4.66167 11.5727 4.64887 11.6001C4.63607 11.6274 4.62966 11.6566 4.62966 11.6875C4.62966 11.7511 4.66211 11.8043 4.72702 11.8471C4.79192 11.8899 4.88707 11.9299 5.01246 11.967C5.11754 11.9996 5.21003 12.0359 5.28995 12.0756C5.36986 12.1153 5.43653 12.1604 5.48995 12.2107C5.54338 12.261 5.58378 12.3175 5.61115 12.3802C5.63852 12.4429 5.65221 12.514 5.65221 12.5935C5.65221 12.6783 5.63565 12.7538 5.60254 12.82C5.56943 12.8862 5.52241 12.9421 5.46148 12.9875C5.40055 13.033 5.32704 13.0679 5.24094 13.0922C5.15484 13.1165 5.05882 13.1286 4.95285 13.1286C4.88927 13.1286 4.8257 13.1231 4.76212 13.112C4.69854 13.101 4.63783 13.084 4.57999 13.061C4.52215 13.0381 4.46851 13.0094 4.41906 12.975C4.36961 12.9405 4.32656 12.8999 4.28992 12.8531C4.25327 12.8063 4.22457 12.7531 4.20382 12.6935C4.18307 12.6339 4.1727 12.5679 4.1727 12.4955L4.57138 12.4955C4.57138 12.5537 4.58066 12.6032 4.5992 12.6438C4.61774 12.6844 4.64357 12.7173 4.67668 12.7425C4.7098 12.7677 4.74976 12.786 4.79656 12.7975C4.84336 12.8089 4.89546 12.8147 4.95285 12.8147C5.00407 12.8147 5.04866 12.8092 5.08663 12.7981C5.1246 12.7871 5.15595 12.7719 5.18067 12.7524C5.2054 12.733 5.22372 12.7098 5.23564 12.6829C5.24756 12.656 5.25352 12.627 5.25352 12.5961Z" fill="#000000" fill-rule="evenodd" opacity="1" stroke="none"/>
<path d="M7.41677 12.7047L6.72006 12.7047L6.5876 13.1021L6.16507 13.1021L6.88298 11.1736L7.2512 11.1736L7.97308 13.1021L7.55055 13.1021L7.41677 12.7047ZM6.82735 12.3829L7.30948 12.3829L7.06709 11.661L6.82735 12.3829Z" fill="#000000" fill-rule="evenodd" opacity="1" stroke="none"/>
<path d="M8.95748 12.7829L9.80121 12.7829L9.80121 13.1021L8.56011 13.1021L8.56011 11.1736L8.95748 11.1736L8.95748 12.7829Z" fill="#000000" fill-rule="evenodd" opacity="1" stroke="none"/>
<path d="M11.5962 12.2663L10.8333 12.2663L10.8333 12.7829L11.7287 12.7829L11.7287 13.1021L10.4359 13.1021L10.4359 11.1736L11.726 11.1736L11.726 11.4954L10.8333 11.4954L10.8333 11.9551L11.5962 11.9551L11.5962 12.2663Z" fill="#000000" fill-rule="evenodd" opacity="1" stroke="none"/>
</g>
</g>
<g opacity="0">
<g opacity="1">
<path d="M5.25352 12.5961C5.25352 12.5626 5.24867 12.5323 5.23895 12.5054C5.22924 12.4785 5.21048 12.4535 5.18266 12.4306C5.15484 12.4076 5.11643 12.3851 5.06743 12.363C5.01842 12.3409 4.95506 12.3175 4.87735 12.2928C4.78905 12.2646 4.70582 12.2328 4.62768 12.1974C4.54953 12.1621 4.48109 12.1204 4.42237 12.0723C4.36365 12.0242 4.31729 11.9687 4.2833 11.906C4.2493 11.8433 4.2323 11.7701 4.2323 11.6862C4.2323 11.6058 4.24974 11.5323 4.28462 11.4656C4.3195 11.399 4.36851 11.3422 4.43164 11.2954C4.49478 11.2486 4.56984 11.2122 4.65682 11.1862C4.74379 11.1601 4.83938 11.1471 4.94358 11.1471C5.05043 11.1471 5.14756 11.1619 5.23498 11.1915C5.3224 11.221 5.39702 11.2623 5.45883 11.3153C5.52064 11.3683 5.56832 11.4312 5.60188 11.504C5.63543 11.5769 5.65221 11.6566 5.65221 11.7431L5.25485 11.7431C5.25485 11.7025 5.24845 11.665 5.23564 11.6305C5.22284 11.5961 5.20319 11.5665 5.1767 11.5418C5.15021 11.5171 5.1171 11.4979 5.07736 11.4842C5.03762 11.4705 4.99082 11.4636 4.93696 11.4636C4.88486 11.4636 4.8396 11.4694 4.80119 11.4809C4.76278 11.4923 4.73099 11.5082 4.70582 11.5285C4.68066 11.5489 4.66167 11.5727 4.64887 11.6001C4.63607 11.6274 4.62966 11.6566 4.62966 11.6875C4.62966 11.7511 4.66211 11.8043 4.72702 11.8471C4.79192 11.8899 4.88707 11.9299 5.01246 11.967C5.11754 11.9996 5.21003 12.0359 5.28995 12.0756C5.36986 12.1153 5.43653 12.1604 5.48995 12.2107C5.54338 12.261 5.58378 12.3175 5.61115 12.3802C5.63852 12.4429 5.65221 12.514 5.65221 12.5935C5.65221 12.6783 5.63565 12.7538 5.60254 12.82C5.56943 12.8862 5.52241 12.9421 5.46148 12.9875C5.40055 13.033 5.32704 13.0679 5.24094 13.0922C5.15484 13.1165 5.05882 13.1286 4.95285 13.1286C4.88927 13.1286 4.8257 13.1231 4.76212 13.112C4.69854 13.101 4.63783 13.084 4.57999 13.061C4.52215 13.0381 4.46851 13.0094 4.41906 12.975C4.36961 12.9405 4.32656 12.8999 4.28992 12.8531C4.25327 12.8063 4.22457 12.7531 4.20382 12.6935C4.18307 12.6339 4.1727 12.5679 4.1727 12.4955L4.57138 12.4955C4.57138 12.5537 4.58066 12.6032 4.5992 12.6438C4.61774 12.6844 4.64357 12.7173 4.67668 12.7425C4.7098 12.7677 4.74976 12.786 4.79656 12.7975C4.84336 12.8089 4.89546 12.8147 4.95285 12.8147C5.00407 12.8147 5.04866 12.8092 5.08663 12.7981C5.1246 12.7871 5.15595 12.7719 5.18067 12.7524C5.2054 12.733 5.22372 12.7098 5.23564 12.6829C5.24756 12.656 5.25352 12.627 5.25352 12.5961Z" fill="#000000" fill-rule="evenodd" opacity="1" stroke="none"/>
<path d="M7.41677 12.7047L6.72006 12.7047L6.5876 13.1021L6.16507 13.1021L6.88298 11.1736L7.2512 11.1736L7.97308 13.1021L7.55055 13.1021L7.41677 12.7047ZM6.82735 12.3829L7.30948 12.3829L7.06709 11.661L6.82735 12.3829Z" fill="#000000" fill-rule="evenodd" opacity="1" stroke="none"/>
<path d="M8.95748 12.7829L9.80121 12.7829L9.80121 13.1021L8.56011 13.1021L8.56011 11.1736L8.95748 11.1736L8.95748 12.7829Z" fill="#000000" fill-rule="evenodd" opacity="1" stroke="none"/>
<path d="M11.5962 12.2663L10.8333 12.2663L10.8333 12.7829L11.7287 12.7829L11.7287 13.1021L10.4359 13.1021L10.4359 11.1736L11.726 11.1736L11.726 11.4954L10.8333 11.4954L10.8333 11.9551L11.5962 11.9551L11.5962 12.2663Z" fill="#000000" fill-rule="evenodd" opacity="1" stroke="none"/>
</g>
<g opacity="1">
<path d="M6.25181 9.08327C6.25181 9.13763 6.24449 9.18638 6.22984 9.22951C6.21519 9.27264 6.1946 9.30918 6.16807 9.33913C6.14154 9.36908 6.10972 9.39211 6.07262 9.40822C6.03551 9.42433 5.99465 9.43239 5.95006 9.43239C5.90546 9.43239 5.86461 9.42433 5.8275 9.40822C5.79039 9.39211 5.75841 9.36908 5.73155 9.33913C5.7047 9.30918 5.68378 9.27264 5.66881 9.22951C5.65383 9.18638 5.64635 9.13763 5.64635 9.08327L5.64635 9.05202C5.64635 8.99798 5.65375 8.94932 5.66856 8.90602C5.68337 8.86273 5.70413 8.82594 5.73082 8.79567C5.75751 8.7654 5.78941 8.7422 5.82652 8.72609C5.86363 8.70998 5.90448 8.70192 5.94908 8.70192C5.99368 8.70192 6.03453 8.70998 6.07164 8.72609C6.10875 8.7422 6.14065 8.7654 6.16734 8.79567C6.19403 8.82594 6.21479 8.86273 6.2296 8.90602C6.24441 8.94932 6.25181 8.99798 6.25181 9.05202L6.25181 9.08327ZM6.10338 9.05104C6.10338 8.9765 6.09003 8.91986 6.06334 8.88112C6.03665 8.84238 5.99856 8.82301 5.94908 8.82301C5.8996 8.82301 5.86152 8.84238 5.83482 8.88112C5.80813 8.91986 5.79478 8.9765 5.79478 9.05104L5.79478 9.08327C5.79478 9.12038 5.79828 9.15317 5.80528 9.18166C5.81228 9.21014 5.82237 9.23407 5.83555 9.25343C5.84874 9.2728 5.86493 9.28745 5.88414 9.29738C5.90334 9.30731 5.92532 9.31227 5.95006 9.31227C5.99954 9.31227 6.03746 9.29274 6.06383 9.25368C6.09019 9.21462 6.10338 9.15781 6.10338 9.08327L6.10338 9.05104Z" fill="#000000" fill-rule="evenodd" opacity="1" stroke="none"/>
<path d="M7.21197 9.21755L7.30767 8.71169L7.45367 8.71169L7.29596 9.42262L7.14849 9.42262L7.03277 8.94704L6.91705 9.42262L6.76959 9.42262L6.61187 8.71169L6.75787 8.71169L6.85406 9.21657L6.97125 8.71169L7.09527 8.71169L7.21197 9.21755Z" fill="#000000" fill-rule="evenodd" opacity="1" stroke="none"/>
<path d="M8.4109 9.42262L8.26441 9.42262L7.97926 8.95485L7.97926 9.42262L7.83277 9.42262L7.83277 8.71169L7.97926 8.71169L8.2649 9.18044L8.2649 8.71169L8.4109 8.71169L8.4109 9.42262Z" fill="#000000" fill-rule="evenodd" opacity="1" stroke="none"/>
<path d="M9.26656 9.11452L8.98531 9.11452L8.98531 9.30495L9.31539 9.30495L9.31539 9.42262L8.83883 9.42262L8.83883 8.71169L9.31441 8.71169L9.31441 8.83034L8.98531 8.83034L8.98531 8.99977L9.26656 8.99977L9.26656 9.11452Z" fill="#000000" fill-rule="evenodd" opacity="1" stroke="none"/>
<path d="M9.96451 9.16237L9.84781 9.16237L9.84781 9.42262L9.70133 9.42262L9.70133 8.71169L9.96549 8.71169C10.0065 8.71169 10.0433 8.71633 10.0758 8.7256C10.1084 8.73488 10.1359 8.74855 10.1584 8.76662C10.1808 8.78468 10.1981 8.80706 10.2101 8.83376C10.2222 8.86045 10.2282 8.89137 10.2282 8.92653C10.2282 8.95257 10.2253 8.97593 10.2194 8.9966C10.2135 9.01727 10.2051 9.03566 10.194 9.05177C10.1829 9.06789 10.1696 9.08197 10.154 9.09401C10.1383 9.10606 10.1208 9.11647 10.1012 9.12526L10.255 9.41579L10.255 9.42262L10.0978 9.42262L9.96451 9.16237ZM9.84781 9.04372L9.96597 9.04372C9.98518 9.04372 10.002 9.0412 10.0165 9.03615C10.031 9.0311 10.043 9.02394 10.0526 9.01467C10.0622 9.00539 10.0695 8.99432 10.0744 8.98146C10.0793 8.9686 10.0817 8.9542 10.0817 8.93825C10.0817 8.90472 10.0722 8.87835 10.0531 8.85915C10.0341 8.83994 10.0049 8.83034 9.96549 8.83034L9.84781 8.83034L9.84781 9.04372Z" fill="#000000" fill-rule="evenodd" opacity="1" stroke="none"/>
</g>
</g>
<g opacity="0">
<g opacity="1">
<path d="M6.56478 8.22179L5.84629 8.22179L5.84629 8.96398L5.47208 8.96398L5.47208 7.1478L6.65459 7.1478L6.65459 7.45091L5.84629 7.45091L5.84629 7.91993L6.56478 7.91993L6.56478 8.22179Z" fill="#ffffff" fill-rule="evenodd" opacity="1" stroke="none"/>
<path d="M8.70658 8.09705C8.70658 8.23593 8.68787 8.36046 8.65044 8.47064C8.61302 8.58083 8.56043 8.67417 8.49265 8.75068C8.42488 8.82718 8.34359 8.88602 8.24879 8.92718C8.15399 8.96835 8.04962 8.98893 7.9357 8.98893C7.82177 8.98893 7.71741 8.96835 7.62261 8.92718C7.52781 8.88602 7.4461 8.82718 7.3775 8.75068C7.30889 8.67417 7.25546 8.58083 7.21721 8.47064C7.17896 8.36046 7.15983 8.23593 7.15983 8.09705L7.15983 8.01722C7.15983 7.87918 7.17875 7.75486 7.21658 7.64426C7.25442 7.53365 7.30744 7.43969 7.37563 7.36235C7.44382 7.28501 7.52531 7.22576 7.62011 7.1846C7.71491 7.14343 7.81928 7.12285 7.9332 7.12285C8.04713 7.12285 8.15149 7.14343 8.24629 7.1846C8.34109 7.22576 8.42259 7.28501 8.49078 7.36235C8.55897 7.43969 8.61198 7.53365 8.64982 7.64426C8.68766 7.75486 8.70658 7.87918 8.70658 8.01722L8.70658 8.09705ZM8.32737 8.01473C8.32737 7.82429 8.29328 7.6796 8.22509 7.58064C8.1569 7.48168 8.0596 7.4322 7.9332 7.4322C7.8068 7.4322 7.70951 7.48168 7.64132 7.58064C7.57313 7.6796 7.53903 7.82429 7.53903 8.01473L7.53903 8.09705C7.53903 8.19185 7.54797 8.27564 7.56585 8.3484C7.58373 8.42116 7.60951 8.48228 7.64319 8.53176C7.67687 8.58124 7.71824 8.61866 7.7673 8.64403C7.81636 8.66939 7.8725 8.68207 7.9357 8.68207C8.0621 8.68207 8.15898 8.63218 8.22634 8.53239C8.29369 8.4326 8.32737 8.28749 8.32737 8.09705L8.32737 8.01473Z" fill="#ffffff" fill-rule="evenodd" opacity="1" stroke="none"/>
<path d="M9.99392 8.29913L9.6958 8.29913L9.6958 8.96398L9.32158 8.96398L9.32158 7.1478L9.99642 7.1478C10.1012 7.1478 10.1952 7.15965 10.2783 7.18335C10.3615 7.20705 10.4317 7.24198 10.4891 7.28813C10.5465 7.33428 10.5906 7.39145 10.6214 7.45964C10.6521 7.52783 10.6675 7.60683 10.6675 7.69664C10.6675 7.76317 10.66 7.82284 10.6451 7.87564C10.6301 7.92845 10.6085 7.97543 10.5802 8.0166C10.5519 8.05776 10.5178 8.09373 10.4779 8.1245C10.438 8.15526 10.3931 8.18187 10.3432 8.20433L10.7361 8.94652L10.7361 8.96398L10.3345 8.96398L9.99392 8.29913ZM9.6958 7.99602L9.99766 7.99602C10.0467 7.99602 10.0898 7.98957 10.1268 7.97668C10.1638 7.96379 10.1945 7.9455 10.2191 7.9218C10.2436 7.8981 10.2621 7.86982 10.2746 7.83697C10.2871 7.80413 10.2933 7.76733 10.2933 7.72658C10.2933 7.64093 10.269 7.57357 10.2203 7.52451C10.1717 7.47544 10.097 7.45091 9.99642 7.45091L9.6958 7.45091L9.6958 7.99602Z" fill="#ffffff" fill-rule="evenodd" opacity="1" stroke="none"/>
</g>
<g opacity="1">
<path d="M4.40536 13.6777L4.40536 10.7432L5.43324 10.7432C5.60388 10.7432 5.75638 10.7593 5.89075 10.7916C6.02511 10.8238 6.13898 10.8732 6.23237 10.9397C6.32575 11.0062 6.39696 11.0899 6.446 11.1907C6.49505 11.2914 6.51957 11.4103 6.51957 11.5474C6.51957 11.6146 6.51117 11.6791 6.49438 11.7409C6.47758 11.8027 6.45205 11.8605 6.41779 11.9142C6.38353 11.9679 6.34019 12.0166 6.28779 12.0603C6.23539 12.104 6.17291 12.1399 6.10035 12.1681C6.18635 12.1896 6.25991 12.2222 6.32105 12.2659C6.38218 12.3096 6.43257 12.3603 6.47221 12.4181C6.51184 12.4758 6.54073 12.5387 6.55887 12.6065C6.57701 12.6744 6.58608 12.7439 6.58608 12.8151C6.58608 13.1 6.49438 13.3149 6.31097 13.46C6.12756 13.6052 5.86656 13.6777 5.52797 13.6777L4.40536 13.6777ZM5.01 12.3999L5.01 13.192L5.52797 13.192C5.6059 13.192 5.67308 13.1823 5.72951 13.1628C5.78594 13.1433 5.83297 13.1164 5.87059 13.0822C5.90822 13.0479 5.9361 13.0076 5.95423 12.9612C5.97237 12.9149 5.98144 12.8641 5.98144 12.8091C5.98144 12.7459 5.97338 12.6891 5.95726 12.6388C5.94113 12.5884 5.91594 12.5454 5.88168 12.5098C5.84742 12.4742 5.80274 12.4469 5.74765 12.4281C5.69256 12.4093 5.62672 12.3999 5.55014 12.3999L5.01 12.3999ZM5.01 11.9726L5.45743 11.9726C5.61194 11.97 5.72682 11.9374 5.80207 11.8749C5.87731 11.8124 5.91493 11.7234 5.91493 11.6078C5.91493 11.4748 5.8763 11.3791 5.79904 11.3206C5.72179 11.2622 5.59985 11.233 5.43324 11.233L5.01 11.233L5.01 11.9726Z" fill="#ffffff" fill-rule="evenodd" opacity="1" stroke="none"/>
<path d="M8.23682 13.6777L7.63218 13.6777L7.63218 10.7432L8.23682 10.7432L8.23682 13.6777Z" fill="#ffffff" fill-rule="evenodd" opacity="1" stroke="none"/>
<path d="M9.35144 13.6777L9.35144 10.7432L10.2544 10.7432C10.4519 10.7432 10.6329 10.7771 10.7975 10.845C10.9621 10.9129 11.1032 11.0083 11.2208 11.1312C11.3383 11.2541 11.43 11.4016 11.4959 11.5736C11.5617 11.7456 11.5946 11.9364 11.5946 12.146L11.5946 12.279C11.5946 12.4886 11.5621 12.6791 11.4969 12.8504C11.4317 13.0217 11.3397 13.1688 11.2208 13.2918C11.1019 13.4147 10.9598 13.5098 10.7945 13.5769C10.6292 13.6441 10.4472 13.6777 10.2483 13.6777L9.35144 13.6777ZM9.95608 11.233L9.95608 13.192L10.2483 13.192C10.4875 13.192 10.6695 13.1131 10.7945 12.9552C10.9195 12.7973 10.9819 12.5719 10.9819 12.279L10.9819 12.1419C10.9819 11.8437 10.9201 11.6176 10.7965 11.4637C10.6729 11.3099 10.4922 11.233 10.2544 11.233L9.95608 11.233Z" fill="#ffffff" fill-rule="evenodd" opacity="1" stroke="none"/>
</g>
</g>
<g opacity="0">
<g opacity="1">
<path d="M7.66831 8.11345C7.66831 8.24958 7.65026 8.37165 7.61415 8.47965C7.57804 8.58766 7.52728 8.67916 7.46188 8.75415C7.39649 8.82915 7.31805 8.88682 7.22657 8.92717C7.13509 8.96752 7.03438 8.98769 6.92445 8.98769C6.81451 8.98769 6.71381 8.96752 6.62233 8.92717C6.53085 8.88682 6.45201 8.82915 6.38581 8.75415C6.31961 8.67916 6.26805 8.58766 6.23114 8.47965C6.19423 8.37165 6.17577 8.24958 6.17577 8.11345L6.17577 8.03519C6.17577 7.89988 6.19403 7.77802 6.23054 7.6696C6.26705 7.56119 6.3182 7.46908 6.384 7.39327C6.4498 7.31746 6.52844 7.25938 6.61992 7.21903C6.7114 7.17868 6.81211 7.15851 6.92204 7.15851C7.03198 7.15851 7.13268 7.17868 7.22416 7.21903C7.31564 7.25938 7.39428 7.31746 7.46008 7.39327C7.52588 7.46908 7.57703 7.56119 7.61355 7.6696C7.65006 7.77802 7.66831 7.89988 7.66831 8.03519L7.66831 8.11345ZM7.3024 8.03275C7.3024 7.84608 7.2695 7.70425 7.2037 7.60724C7.1379 7.51024 7.04401 7.46174 6.92204 7.46174C6.80007 7.46174 6.70618 7.51024 6.64038 7.60724C6.57458 7.70425 6.54168 7.84608 6.54168 8.03275L6.54168 8.11345C6.54168 8.20638 6.55031 8.2885 6.56756 8.35983C6.58482 8.43115 6.60969 8.49107 6.64219 8.53957C6.67469 8.58807 6.71461 8.62475 6.76195 8.64961C6.8093 8.67447 6.86346 8.6869 6.92445 8.6869C7.04642 8.6869 7.1399 8.638 7.2049 8.54018C7.2699 8.44236 7.3024 8.30012 7.3024 8.11345L7.3024 8.03275Z" fill="#000000" fill-rule="evenodd" opacity="1" stroke="none"/>
<path d="M9.72561 8.96324L9.36451 8.96324L8.66157 7.79187L8.66157 8.96324L8.30048 8.96324L8.30048 7.18296L8.66157 7.18296L9.36572 8.35677L9.36572 7.18296L9.72561 7.18296L9.72561 8.96324Z" fill="#000000" fill-rule="evenodd" opacity="1" stroke="none"/>
</g>
<g opacity="1">
<path d="M5.40108 12.6211C5.40108 12.5891 5.39645 12.5603 5.38719 12.5346C5.37793 12.509 5.36005 12.4852 5.33354 12.4633C5.30703 12.4414 5.27042 12.42 5.22371 12.3989C5.177 12.3779 5.11662 12.3556 5.04256 12.332C4.9584 12.3051 4.87908 12.2748 4.8046 12.2411C4.73012 12.2075 4.6649 12.1677 4.60893 12.1218C4.55297 12.076 4.50878 12.0232 4.47638 11.9634C4.44398 11.9037 4.42778 11.8338 4.42778 11.7539C4.42778 11.6773 4.4444 11.6072 4.47764 11.5437C4.51089 11.4801 4.55759 11.4261 4.61777 11.3815C4.67794 11.3369 4.74948 11.3021 4.83237 11.2773C4.91527 11.2525 5.00637 11.2401 5.10568 11.2401C5.20751 11.2401 5.30009 11.2542 5.3834 11.2824C5.46672 11.3106 5.53784 11.3499 5.59675 11.4004C5.65566 11.4509 5.7011 11.5109 5.73308 11.5803C5.76506 11.6497 5.78106 11.7257 5.78106 11.8081L5.40234 11.8081C5.40234 11.7694 5.39624 11.7337 5.38404 11.7008C5.37183 11.668 5.35311 11.6398 5.32786 11.6163C5.30261 11.5927 5.27105 11.5744 5.23318 11.5613C5.19531 11.5483 5.1507 11.5418 5.09937 11.5418C5.04971 11.5418 5.00658 11.5473 4.96997 11.5582C4.93336 11.5691 4.90307 11.5843 4.87908 11.6036C4.8551 11.623 4.837 11.6457 4.8248 11.6718C4.8126 11.6979 4.80649 11.7257 4.80649 11.7551C4.80649 11.8157 4.83742 11.8664 4.89928 11.9072C4.96114 11.9481 5.05182 11.9861 5.17132 12.0215C5.27147 12.0526 5.35963 12.0871 5.43579 12.125C5.51196 12.1629 5.5755 12.2058 5.62641 12.2538C5.67733 12.3017 5.71583 12.3556 5.74192 12.4154C5.76801 12.4751 5.78106 12.5429 5.78106 12.6186C5.78106 12.6994 5.76528 12.7713 5.73372 12.8345C5.70216 12.8976 5.65734 12.9508 5.59927 12.9942C5.5412 13.0375 5.47114 13.0707 5.38908 13.0939C5.30703 13.117 5.21551 13.1286 5.11452 13.1286C5.05392 13.1286 4.99333 13.1233 4.93273 13.1128C4.87214 13.1023 4.81428 13.0861 4.75915 13.0642C4.70403 13.0423 4.6529 13.015 4.60577 12.9822C4.55865 12.9493 4.51762 12.9106 4.48269 12.866C4.44777 12.8214 4.42041 12.7707 4.40064 12.7139C4.38086 12.6571 4.37097 12.5942 4.37097 12.5252L4.75095 12.5252C4.75095 12.5807 4.75979 12.6279 4.77746 12.6666C4.79513 12.7053 4.81975 12.7366 4.85131 12.7606C4.88287 12.7846 4.92095 12.8021 4.96555 12.813C5.01016 12.8239 5.05981 12.8294 5.11452 12.8294C5.16333 12.8294 5.20583 12.8242 5.24202 12.8136C5.27821 12.8031 5.30808 12.7886 5.33165 12.7701C5.35521 12.7516 5.37267 12.7295 5.38404 12.7038C5.3954 12.6781 5.40108 12.6506 5.40108 12.6211Z" fill="#000000" fill-rule="evenodd" opacity="1" stroke="none"/>
<path d="M7.4628 12.7246L6.79879 12.7246L6.67255 13.1034L6.26985 13.1034L6.95406 11.2653L7.30501 11.2653L7.99301 13.1034L7.5903 13.1034L7.4628 12.7246ZM6.90104 12.4179L7.36055 12.4179L7.12953 11.7299L6.90104 12.4179Z" fill="#000000" fill-rule="evenodd" opacity="1" stroke="none"/>
<path d="M8.93121 12.7991L9.73535 12.7991L9.73535 13.1034L8.55249 13.1034L8.55249 11.2653L8.93121 11.2653L8.93121 12.7991Z" fill="#000000" fill-rule="evenodd" opacity="1" stroke="none"/>
<path d="M11.4461 12.3068L10.719 12.3068L10.719 12.7991L11.5724 12.7991L11.5724 13.1034L10.3403 13.1034L10.3403 11.2653L11.5698 11.2653L11.5698 11.5721L10.719 11.5721L10.719 12.0101L11.4461 12.0101L11.4461 12.3068Z" fill="#000000" fill-rule="evenodd" opacity="1" stroke="none"/>
</g>
</g>
<g opacity="0">
<g opacity="1">
<path d="M5.60495 8.48899C5.60495 8.56405 5.59484 8.63136 5.57461 8.69091C5.55439 8.75047 5.52596 8.80092 5.48933 8.84227C5.4527 8.88362 5.40876 8.91542 5.35752 8.93767C5.30628 8.95992 5.24988 8.97104 5.1883 8.97104C5.12672 8.97104 5.07031 8.95992 5.01908 8.93767C4.96784 8.91542 4.92368 8.88362 4.8866 8.84227C4.84951 8.80092 4.82064 8.75047 4.79996 8.69091C4.77929 8.63136 4.76895 8.56405 4.76895 8.48899L4.76895 8.44584C4.76895 8.37123 4.77917 8.30403 4.79962 8.24425C4.82007 8.18448 4.84873 8.13369 4.88558 8.09189C4.92244 8.05009 4.96649 8.01806 5.01773 7.99581C5.06897 7.97356 5.12537 7.96244 5.18695 7.96244C5.24853 7.96244 5.30494 7.97356 5.35617 7.99581C5.40741 8.01806 5.45146 8.05009 5.48832 8.09189C5.52517 8.13369 5.55383 8.18448 5.57428 8.24425C5.59473 8.30403 5.60495 8.37123 5.60495 8.44584L5.60495 8.48899ZM5.4 8.44449C5.4 8.34156 5.38157 8.26336 5.34471 8.20987C5.30786 8.15638 5.25527 8.12964 5.18695 8.12964C5.11863 8.12964 5.06604 8.15638 5.02919 8.20987C4.99233 8.26336 4.9739 8.34156 4.9739 8.44449L4.9739 8.48899C4.9739 8.54023 4.97874 8.58551 4.9884 8.62484C4.99806 8.66417 5.012 8.6972 5.0302 8.72395C5.0484 8.75069 5.07076 8.77092 5.09728 8.78462C5.1238 8.79833 5.15414 8.80519 5.1883 8.80519C5.25662 8.80519 5.30898 8.77822 5.34539 8.72428C5.38179 8.67035 5.4 8.59192 5.4 8.48899L5.4 8.44449Z" fill="#000000" fill-rule="evenodd" opacity="1" stroke="none"/>
<path d="M6.9307 8.67439L7.06284 7.97592L7.26443 7.97592L7.04666 8.95756L6.84305 8.95756L6.68327 8.30089L6.52348 8.95756L6.31987 8.95756L6.10211 7.97592L6.30369 7.97592L6.43651 8.67304L6.59832 7.97592L6.76956 7.97592L6.9307 8.67439Z" fill="#000000" fill-rule="evenodd" opacity="1" stroke="none"/>
<path d="M8.58612 8.95756L8.38386 8.95756L7.99013 8.31167L7.99013 8.95756L7.78787 8.95756L7.78787 7.97592L7.99013 7.97592L8.38454 8.62315L8.38454 7.97592L8.58612 7.97592L8.58612 8.95756Z" fill="#000000" fill-rule="evenodd" opacity="1" stroke="none"/>
<path d="M9.76759 8.53214L9.37925 8.53214L9.37925 8.79507L9.83501 8.79507L9.83501 8.95756L9.17699 8.95756L9.17699 7.97592L9.83366 7.97592L9.83366 8.13975L9.37925 8.13975L9.37925 8.3737L9.76759 8.3737L9.76759 8.53214Z" fill="#000000" fill-rule="evenodd" opacity="1" stroke="none"/>
<path d="M10.7313 8.59821L10.5702 8.59821L10.5702 8.95756L10.3679 8.95756L10.3679 7.97592L10.7326 7.97592C10.7893 7.97592 10.8401 7.98233 10.885 7.99514C10.93 8.00795 10.9679 8.02683 10.9989 8.05177C11.03 8.07672 11.0538 8.10762 11.0704 8.14447C11.087 8.18133 11.0954 8.22403 11.0954 8.27257C11.0954 8.30853 11.0913 8.34078 11.0832 8.36932C11.0751 8.39786 11.0634 8.42325 11.0482 8.4455C11.0329 8.46775 11.0145 8.48719 10.9929 8.50382C10.9713 8.52045 10.947 8.53483 10.9201 8.54697L11.1324 8.94812L11.1324 8.95756L10.9153 8.95756L10.7313 8.59821ZM10.5702 8.43438L10.7333 8.43438C10.7598 8.43438 10.7831 8.4309 10.8031 8.42393C10.8231 8.41696 10.8397 8.40707 10.853 8.39426C10.8662 8.38145 10.8762 8.36617 10.883 8.34842C10.8897 8.33066 10.8931 8.31078 10.8931 8.28875C10.8931 8.24246 10.8799 8.20605 10.8537 8.17953C10.8274 8.15301 10.787 8.13975 10.7326 8.13975L10.5702 8.13975L10.5702 8.43438Z" fill="#000000" fill-rule="evenodd" opacity="1" stroke="none"/>
</g>
<g opacity="1">
<path d="M5.40108 12.6211C5.40108 12.5891 5.39645 12.5603 5.38719 12.5346C5.37793 12.509 5.36005 12.4852 5.33354 12.4633C5.30703 12.4414 5.27042 12.42 5.22371 12.3989C5.177 12.3779 5.11662 12.3556 5.04256 12.332C4.9584 12.3051 4.87908 12.2748 4.8046 12.2411C4.73012 12.2075 4.6649 12.1677 4.60893 12.1218C4.55297 12.076 4.50878 12.0232 4.47638 11.9634C4.44398 11.9037 4.42778 11.8338 4.42778 11.7539C4.42778 11.6773 4.4444 11.6072 4.47764 11.5437C4.51089 11.4801 4.55759 11.4261 4.61777 11.3815C4.67794 11.3369 4.74948 11.3021 4.83237 11.2773C4.91527 11.2525 5.00637 11.2401 5.10568 11.2401C5.20751 11.2401 5.30009 11.2542 5.3834 11.2824C5.46672 11.3106 5.53784 11.3499 5.59675 11.4004C5.65566 11.4509 5.7011 11.5109 5.73308 11.5803C5.76506 11.6497 5.78106 11.7257 5.78106 11.8081L5.40234 11.8081C5.40234 11.7694 5.39624 11.7337 5.38404 11.7008C5.37183 11.668 5.35311 11.6398 5.32786 11.6163C5.30261 11.5927 5.27105 11.5744 5.23318 11.5613C5.19531 11.5483 5.1507 11.5418 5.09937 11.5418C5.04971 11.5418 5.00658 11.5473 4.96997 11.5582C4.93336 11.5691 4.90307 11.5843 4.87908 11.6036C4.8551 11.623 4.837 11.6457 4.8248 11.6718C4.8126 11.6979 4.80649 11.7257 4.80649 11.7551C4.80649 11.8157 4.83742 11.8664 4.89928 11.9072C4.96114 11.9481 5.05182 11.9861 5.17132 12.0215C5.27147 12.0526 5.35963 12.0871 5.43579 12.125C5.51196 12.1629 5.5755 12.2058 5.62641 12.2538C5.67733 12.3017 5.71583 12.3556 5.74192 12.4154C5.76801 12.4751 5.78106 12.5429 5.78106 12.6186C5.78106 12.6994 5.76528 12.7713 5.73372 12.8345C5.70216 12.8976 5.65734 12.9508 5.59927 12.9942C5.5412 13.0375 5.47114 13.0707 5.38908 13.0939C5.30703 13.117 5.21551 13.1286 5.11452 13.1286C5.05392 13.1286 4.99333 13.1233 4.93273 13.1128C4.87214 13.1023 4.81428 13.0861 4.75915 13.0642C4.70403 13.0423 4.6529 13.015 4.60577 12.9822C4.55865 12.9493 4.51762 12.9106 4.48269 12.866C4.44777 12.8214 4.42041 12.7707 4.40064 12.7139C4.38086 12.6571 4.37097 12.5942 4.37097 12.5252L4.75095 12.5252C4.75095 12.5807 4.75979 12.6279 4.77746 12.6666C4.79513 12.7053 4.81975 12.7366 4.85131 12.7606C4.88287 12.7846 4.92095 12.8021 4.96555 12.813C5.01016 12.8239 5.05981 12.8294 5.11452 12.8294C5.16333 12.8294 5.20583 12.8242 5.24202 12.8136C5.27821 12.8031 5.30808 12.7886 5.33165 12.7701C5.35521 12.7516 5.37267 12.7295 5.38404 12.7038C5.3954 12.6781 5.40108 12.6506 5.40108 12.6211Z" fill="#000000" fill-rule="evenodd" opacity="1" stroke="none"/>
<path d="M7.4628 12.7246L6.79879 12.7246L6.67255 13.1034L6.26985 13.1034L6.95406 11.2653L7.30501 11.2653L7.99301 13.1034L7.5903 13.1034L7.4628 12.7246ZM6.90104 12.4179L7.36055 12.4179L7.12953 11.7299L6.90104 12.4179Z" fill="#000000" fill-rule="evenodd" opacity="1" stroke="none"/>
<path d="M8.93121 12.7991L9.73535 12.7991L9.73535 13.1034L8.55249 13.1034L8.55249 11.2653L8.93121 11.2653L8.93121 12.7991Z" fill="#000000" fill-rule="evenodd" opacity="1" stroke="none"/>
<path d="M11.4461 12.3068L10.719 12.3068L10.719 12.7991L11.5724 12.7991L11.5724 13.1034L10.3403 13.1034L10.3403 11.2653L11.5698 11.2653L11.5698 11.5721L10.719 11.5721L10.719 12.0101L11.4461 12.0101L11.4461 12.3068Z" fill="#000000" fill-rule="evenodd" opacity="1" stroke="none"/>
</g>
</g>
<g opacity="0">
<path d="M4.40625 0.75L0.8125 5.59375L0.8125 9.25L0.8125 13.0312C0.812528 13.334 1.16882 13.5625 1.59375 13.5625L2.34375 13.5625L7.96875 5.59375L8 9.25L8 5.59375L4.40625 0.75ZM4.40625 1.96875C4.75519 1.96875 5.03125 2.24481 5.03125 2.59375C5.03125 2.94269 4.75519 3.25 4.40625 3.25C4.05731 3.25 3.78125 2.94269 3.78125 2.59375C3.78125 2.24481 4.05731 1.96875 4.40625 1.96875Z" fill="#000000" fill-rule="evenodd" opacity="1" stroke="none"/>
<path d="M7.96875 5.59375L2.34375 13.5625L4.46875 13.5625L7.21875 13.5625C7.64368 13.5625 8.00003 13.3028 8 13L8 9.25L7.96875 5.59375Z" fill="url(#LinearGradient_4)" fill-rule="evenodd" opacity="1" stroke="none"/>
<path d="M4.39913 0.76519L0.826575 5.60116L0.82691 9.25475L0.827256 13.0158C0.827284 13.3186 1.18145 13.5531 1.60638 13.553L4.45404 13.5528L7.2211 13.5525C7.64603 13.5525 8.00015 13.3179 8.00012 13.0151L7.99978 9.25409L7.99944 5.6005L4.39913 0.76519ZM4.39972 1.9741C4.74866 1.9741 5.04447 2.24305 5.04447 2.59199C5.04447 2.94092 4.74866 3.23674 4.39972 3.23674C4.05078 3.23674 3.78183 2.94092 3.78183 2.59199C3.78183 2.24305 4.05078 1.9741 4.39972 1.9741Z" fill="#000000" fill-rule="evenodd" opacity="0.5" stroke="none"/>
<g opacity="1">
<path d="M4.02674 8.3803C4.02674 8.48903 4.0121 8.58652 3.9828 8.67278C3.9535 8.75905 3.91232 8.83213 3.85926 8.89202C3.8062 8.95192 3.74256 8.99798 3.66835 9.03021C3.59413 9.06243 3.51242 9.07855 3.42323 9.07855C3.33404 9.07855 3.25233 9.06243 3.17811 9.03021C3.10389 8.99798 3.03993 8.95192 2.98622 8.89202C2.93251 8.83213 2.89068 8.75905 2.86073 8.67278C2.83078 8.58652 2.81581 8.48903 2.81581 8.3803L2.81581 8.3178C2.81581 8.20973 2.83062 8.1124 2.86024 8.02581C2.88986 7.93922 2.93137 7.86565 2.98475 7.80511C3.03814 7.74456 3.10194 7.69817 3.17616 7.66595C3.25038 7.63372 3.33208 7.61761 3.42128 7.61761C3.51047 7.61761 3.59217 7.63372 3.66639 7.66595C3.74061 7.69817 3.80441 7.74456 3.8578 7.80511C3.91118 7.86565 3.95269 7.93922 3.98231 8.02581C4.01193 8.1124 4.02674 8.20973 4.02674 8.3178L4.02674 8.3803ZM3.72987 8.31585C3.72987 8.16676 3.70318 8.05348 3.64979 7.97601C3.59641 7.89853 3.52023 7.8598 3.42128 7.8598C3.32232 7.8598 3.24615 7.89853 3.19276 7.97601C3.13937 8.05348 3.11268 8.16676 3.11268 8.31585L3.11268 8.3803C3.11268 8.45452 3.11968 8.52011 3.13368 8.57708C3.14768 8.63405 3.16786 8.6819 3.19422 8.72064C3.22059 8.75937 3.25298 8.78867 3.29139 8.80853C3.3298 8.82838 3.37375 8.83831 3.42323 8.83831C3.52219 8.83831 3.59803 8.79925 3.65077 8.72112C3.7035 8.643 3.72987 8.52939 3.72987 8.3803L3.72987 8.31585Z" fill="#ffffff" fill-rule="evenodd" opacity="1" stroke="none"/>
<path d="M5.89588 9.05901L5.60292 9.05901L5.0326 8.12347L5.0326 9.05901L4.73963 9.05901L4.73963 7.63714L5.0326 7.63714L5.60389 8.57464L5.60389 7.63714L5.89588 7.63714L5.89588 9.05901Z" fill="#ffffff" fill-rule="evenodd" opacity="1" stroke="none"/>
<path d="M2.10096 11.0297C2.10096 11.005 2.09738 10.9827 2.09022 10.9628C2.08306 10.943 2.06922 10.9246 2.04872 10.9076C2.02821 10.8907 1.99989 10.8741 1.96376 10.8578C1.92762 10.8416 1.88091 10.8243 1.82362 10.8061C1.75852 10.7853 1.69715 10.7618 1.63954 10.7358C1.58192 10.7097 1.53146 10.679 1.48817 10.6435C1.44488 10.608 1.4107 10.5672 1.38563 10.5209C1.36057 10.4747 1.34803 10.4207 1.34803 10.3588C1.34803 10.2996 1.36089 10.2454 1.38661 10.1962C1.41232 10.1471 1.44846 10.1052 1.49501 10.0707C1.54156 10.0362 1.59689 10.0094 1.66102 9.99017C1.72515 9.97096 1.79562 9.96136 1.87245 9.96136C1.95122 9.96136 2.02284 9.97226 2.08729 9.99407C2.15174 10.0159 2.20676 10.0463 2.25233 10.0854C2.2979 10.1244 2.33306 10.1708 2.3578 10.2245C2.38254 10.2783 2.39491 10.337 2.39491 10.4008L2.10194 10.4008C2.10194 10.3709 2.09722 10.3432 2.08778 10.3178C2.07834 10.2924 2.06385 10.2706 2.04432 10.2524C2.02479 10.2341 2.00038 10.22 1.97108 10.2099C1.94178 10.1998 1.90728 10.1948 1.86756 10.1948C1.82915 10.1948 1.79579 10.199 1.76747 10.2075C1.73915 10.2159 1.71571 10.2276 1.69715 10.2426C1.6786 10.2576 1.6646 10.2752 1.65516 10.2953C1.64572 10.3155 1.641 10.337 1.641 10.3598C1.641 10.4067 1.66493 10.4459 1.71278 10.4775C1.76063 10.509 1.83078 10.5385 1.92323 10.5659C2.0007 10.5899 2.0689 10.6166 2.12782 10.6459C2.18674 10.6752 2.23589 10.7084 2.27528 10.7455C2.31467 10.7826 2.34445 10.8243 2.36463 10.8705C2.38482 10.9168 2.39491 10.9692 2.39491 11.0278C2.39491 11.0903 2.3827 11.1459 2.35829 11.1948C2.33387 11.2436 2.29921 11.2848 2.25428 11.3183C2.20936 11.3518 2.15516 11.3775 2.09169 11.3954C2.02821 11.4133 1.95741 11.4223 1.87928 11.4223C1.83241 11.4223 1.78553 11.4182 1.73866 11.4101C1.69178 11.402 1.64702 11.3894 1.60438 11.3725C1.56174 11.3556 1.52219 11.3344 1.48573 11.309C1.44927 11.2836 1.41753 11.2537 1.39051 11.2192C1.3635 11.1847 1.34234 11.1454 1.32704 11.1015C1.31174 11.0575 1.30409 11.0089 1.30409 10.9555L1.59803 10.9555C1.59803 10.9985 1.60487 11.0349 1.61854 11.0649C1.63221 11.0948 1.65126 11.1191 1.67567 11.1376C1.70008 11.1562 1.72954 11.1697 1.76405 11.1782C1.79855 11.1866 1.83697 11.1909 1.87928 11.1909C1.91704 11.1909 1.94992 11.1868 1.97792 11.1786C2.00591 11.1705 2.02902 11.1593 2.04725 11.145C2.06548 11.1306 2.07899 11.1135 2.08778 11.0937C2.09657 11.0738 2.10096 11.0525 2.10096 11.0297Z" fill="#ffffff" fill-rule="evenodd" opacity="1" stroke="none"/>
<path d="M3.89588 11.1098L3.38221 11.1098L3.28456 11.4028L2.97303 11.4028L3.50233 9.98089L3.77381 9.98089L4.30604 11.4028L3.99452 11.4028L3.89588 11.1098ZM3.46131 10.8725L3.81678 10.8725L3.63807 10.3403L3.46131 10.8725Z" fill="#ffffff" fill-rule="evenodd" opacity="1" stroke="none"/>
<path d="M5.23182 11.1674L5.85389 11.1674L5.85389 11.4028L4.93885 11.4028L4.93885 9.98089L5.23182 9.98089L5.23182 11.1674Z" fill="#ffffff" fill-rule="evenodd" opacity="1" stroke="none"/>
<path d="M7.37733 10.7866L6.81483 10.7866L6.81483 11.1674L7.47499 11.1674L7.47499 11.4028L6.52186 11.4028L6.52186 9.98089L7.47303 9.98089L7.47303 10.2182L6.81483 10.2182L6.81483 10.5571L7.37733 10.5571L7.37733 10.7866Z" fill="#ffffff" fill-rule="evenodd" opacity="1" stroke="none"/>
</g>
</g>
<g opacity="0">
<path d="M11.5938 0.75L8.03125 5.59375L8.03125 5.6875L13.6562 13.5625L14.4062 13.5625C14.8312 13.5625 15.1875 13.3028 15.1875 13L15.1875 9.25L15.1875 5.59375L11.5938 0.75ZM11.5938 1.96875C11.9427 1.96875 12.25 2.24481 12.25 2.59375C12.25 2.94269 11.9427 3.25 11.5938 3.25C11.2448 3.25 10.9688 2.94269 10.9688 2.59375C10.9688 2.24481 11.2448 1.96875 11.5938 1.96875Z" fill="#000000" fill-rule="evenodd" opacity="1" stroke="none"/>
<path d="M8.03125 5.6875L8.03125 9.25L8.03125 13C8.03125 13.3028 8.38757 13.5625 8.8125 13.5625L11.6562 13.5625L13.6562 13.5625L8.03125 5.6875Z" fill="url(#LinearGradient_5)" fill-rule="evenodd" opacity="1" stroke="none"/>
<path d="M11.5989 0.765189L8.02585 5.60083L8.02585 9.25442L8.02585 13.0155C8.02585 13.3182 8.38 13.5528 8.80493 13.5528L11.6526 13.5528L14.4196 13.5528C14.8446 13.5528 15.1987 13.3183 15.1987 13.0155L15.1987 9.25442L15.1987 5.60083L11.5989 0.765189ZM11.5989 1.9741C11.9478 1.9741 12.2436 2.24305 12.2436 2.59199C12.2436 2.94092 11.9478 3.23674 11.5989 3.23674C11.2499 3.23674 10.981 2.94092 10.981 2.59199C10.981 2.24305 11.2499 1.9741 11.5989 1.9741Z" fill="#000000" fill-rule="evenodd" opacity="0.5" stroke="none"/>
<g opacity="1">
<path d="M10.1754 8.47796L9.61292 8.47796L9.61292 9.05901L9.31995 9.05901L9.31995 7.63714L10.2457 7.63714L10.2457 7.87444L9.61292 7.87444L9.61292 8.24163L10.1754 8.24163L10.1754 8.47796Z" fill="#ffffff" fill-rule="evenodd" opacity="1" stroke="none"/>
<path d="M12.0836 8.3803C12.0836 8.48903 12.069 8.58652 12.0397 8.67278C12.0104 8.75905 11.9692 8.83213 11.9161 8.89202C11.8631 8.95192 11.7994 8.99798 11.7252 9.03021C11.651 9.06243 11.5693 9.07855 11.4801 9.07855C11.3909 9.07855 11.3092 9.06243 11.235 9.03021C11.1608 8.99798 11.0968 8.95192 11.0431 8.89202C10.9894 8.83213 10.9476 8.75905 10.9176 8.67278C10.8877 8.58652 10.8727 8.48903 10.8727 8.3803L10.8727 8.3178C10.8727 8.20973 10.8875 8.1124 10.9171 8.02581C10.9467 7.93922 10.9882 7.86565 11.0416 7.80511C11.095 7.74456 11.1588 7.69817 11.233 7.66595C11.3073 7.63372 11.389 7.61761 11.4782 7.61761C11.5673 7.61761 11.6491 7.63372 11.7233 7.66595C11.7975 7.69817 11.8613 7.74456 11.9147 7.80511C11.9681 7.86565 12.0096 7.93922 12.0392 8.02581C12.0688 8.1124 12.0836 8.20973 12.0836 8.3178L12.0836 8.3803ZM11.7868 8.31585C11.7868 8.16676 11.7601 8.05348 11.7067 7.97601C11.6533 7.89853 11.5771 7.8598 11.4782 7.8598C11.3792 7.8598 11.303 7.89853 11.2496 7.97601C11.1963 8.05348 11.1696 8.16676 11.1696 8.31585L11.1696 8.3803C11.1696 8.45452 11.1766 8.52011 11.1906 8.57708C11.2046 8.63405 11.2247 8.6819 11.2511 8.72064C11.2775 8.75937 11.3099 8.78867 11.3483 8.80853C11.3867 8.82838 11.4306 8.83831 11.4801 8.83831C11.5791 8.83831 11.6549 8.79925 11.7076 8.72112C11.7604 8.643 11.7868 8.52939 11.7868 8.3803L11.7868 8.31585Z" fill="#ffffff" fill-rule="evenodd" opacity="1" stroke="none"/>
<path d="M13.3229 8.53851L13.0895 8.53851L13.0895 9.05901L12.7965 9.05901L12.7965 7.63714L13.3248 7.63714C13.4069 7.63714 13.4804 7.64642 13.5455 7.66497C13.6106 7.68353 13.6657 7.71087 13.7106 7.747C13.7555 7.78314 13.79 7.82789 13.8141 7.88128C13.8382 7.93467 13.8502 7.99651 13.8502 8.06683C13.8502 8.11891 13.8444 8.16562 13.8326 8.20696C13.8209 8.2483 13.804 8.28509 13.7819 8.31731C13.7597 8.34954 13.733 8.3777 13.7018 8.40179C13.6705 8.42588 13.6354 8.44671 13.5963 8.46429L13.9039 9.04534L13.9039 9.05901L13.5895 9.05901L13.3229 8.53851ZM13.0895 8.3012L13.3258 8.3012C13.3642 8.3012 13.3979 8.29616 13.4269 8.28606C13.4559 8.27597 13.4799 8.26165 13.4992 8.2431C13.5184 8.22454 13.5328 8.20241 13.5426 8.17669C13.5524 8.15097 13.5573 8.12217 13.5573 8.09026C13.5573 8.02321 13.5382 7.97047 13.5001 7.93206C13.462 7.89365 13.4036 7.87444 13.3248 7.87444L13.0895 7.87444L13.0895 8.3012Z" fill="#ffffff" fill-rule="evenodd" opacity="1" stroke="none"/>
<path d="M9.61683 11.4028L9.61683 9.98089L10.1149 9.98089C10.1976 9.98089 10.2715 9.9887 10.3366 10.0043C10.4017 10.02 10.4568 10.0439 10.5021 10.0761C10.5473 10.1083 10.5818 10.1489 10.6056 10.1977C10.6294 10.2465 10.6412 10.3041 10.6412 10.3705C10.6412 10.4031 10.6372 10.4343 10.629 10.4643C10.6209 10.4942 10.6085 10.5222 10.5919 10.5483C10.5753 10.5743 10.5543 10.5979 10.5289 10.6191C10.5035 10.6402 10.4733 10.6576 10.4381 10.6713C10.4798 10.6817 10.5154 10.6975 10.5451 10.7187C10.5747 10.7398 10.5991 10.7644 10.6183 10.7924C10.6375 10.8204 10.6515 10.8508 10.6603 10.8837C10.6691 10.9166 10.6735 10.9503 10.6735 10.9848C10.6735 11.1228 10.629 11.227 10.5402 11.2973C10.4513 11.3676 10.3248 11.4028 10.1608 11.4028L9.61683 11.4028ZM9.9098 10.7836L9.9098 11.1674L10.1608 11.1674C10.1985 11.1674 10.2311 11.1627 10.2584 11.1533C10.2858 11.1438 10.3086 11.1308 10.3268 11.1142C10.345 11.0976 10.3585 11.0781 10.3673 11.0556C10.3761 11.0331 10.3805 11.0086 10.3805 10.9819C10.3805 10.9513 10.3766 10.9238 10.3688 10.8993C10.361 10.8749 10.3488 10.8541 10.3322 10.8368C10.3156 10.8196 10.2939 10.8064 10.2672 10.7973C10.2405 10.7882 10.2086 10.7836 10.1715 10.7836L9.9098 10.7836ZM9.9098 10.5766L10.1266 10.5766C10.2015 10.5753 10.2571 10.5595 10.2936 10.5292C10.33 10.499 10.3483 10.4558 10.3483 10.3998C10.3483 10.3354 10.3296 10.289 10.2921 10.2607C10.2547 10.2324 10.1956 10.2182 10.1149 10.2182L9.9098 10.2182L9.9098 10.5766Z" fill="#ffffff" fill-rule="evenodd" opacity="1" stroke="none"/>
<path d="M11.7047 11.4028L11.4118 11.4028L11.4118 9.98089L11.7047 9.98089L11.7047 11.4028Z" fill="#ffffff" fill-rule="evenodd" opacity="1" stroke="none"/>
<path d="M12.4762 11.4028L12.4762 9.98089L12.9137 9.98089C13.0094 9.98089 13.0971 9.99733 13.1769 10.0302C13.2566 10.0631 13.325 10.1093 13.382 10.1689C13.4389 10.2284 13.4834 10.2999 13.5153 10.3832C13.5472 10.4666 13.5631 10.559 13.5631 10.6606L13.5631 10.725C13.5631 10.8266 13.5473 10.9189 13.5158 11.0019C13.4842 11.0849 13.4396 11.1562 13.382 11.2158C13.3243 11.2753 13.2555 11.3214 13.1754 11.3539C13.0953 11.3865 13.0071 11.4028 12.9108 11.4028L12.4762 11.4028ZM12.7692 10.2182L12.7692 11.1674L12.9108 11.1674C13.0267 11.1674 13.1149 11.1292 13.1754 11.0527C13.236 10.9762 13.2662 10.867 13.2662 10.725L13.2662 10.6586C13.2662 10.5141 13.2363 10.4046 13.1764 10.33C13.1165 10.2555 13.0289 10.2182 12.9137 10.2182L12.7692 10.2182Z" fill="#ffffff" fill-rule="evenodd" opacity="1" stroke="none"/>
</g>
</g>
<g opacity="0">
<path d="M11.5718 0.775712L7.99884 5.61135L7.99884 9.26495L7.99884 13.026C7.99884 13.3288 8.35299 13.5633 8.77792 13.5633L11.6256 13.5633L14.3926 13.5633C14.8176 13.5633 15.1717 13.3288 15.1717 13.026L15.1717 9.26495L15.1717 5.61135L11.5718 0.775712ZM11.5718 1.98462C11.9208 1.98462 12.2166 2.25357 12.2166 2.60251C12.2166 2.95145 11.9208 3.24726 11.5718 3.24726C11.2229 3.24726 10.954 2.95145 10.954 2.60251C10.954 2.25357 11.2229 1.98462 11.5718 1.98462Z" fill="#00a2ed" fill-rule="evenodd" opacity="1" stroke="none"/>
<path d="M8 5.60024L8 9.17178L8 12.9313C8 13.2348 8.35632 13.4952 8.78125 13.4952L11.625 13.4952L13.875 13.4952L8 5.60024Z" fill="#c0bfbf" fill-rule="evenodd" opacity="1" stroke="none"/>
<g opacity="1">
<path d="M10.1754 8.02859L9.61292 8.02859L9.61292 8.60964L9.31995 8.60964L9.31995 7.18777L10.2457 7.18777L10.2457 7.42507L9.61292 7.42507L9.61292 7.79226L10.1754 7.79226L10.1754 8.02859Z" fill="#000000" fill-rule="evenodd" opacity="1" stroke="none"/>
<path d="M12.0836 7.93093C12.0836 8.03966 12.069 8.13715 12.0397 8.22341C12.0104 8.30967 11.9692 8.38275 11.9161 8.44265C11.8631 8.50255 11.7994 8.54861 11.7252 8.58083C11.651 8.61306 11.5693 8.62917 11.4801 8.62917C11.3909 8.62917 11.3092 8.61306 11.235 8.58083C11.1608 8.54861 11.0968 8.50255 11.0431 8.44265C10.9894 8.38275 10.9476 8.30967 10.9176 8.22341C10.8877 8.13715 10.8727 8.03966 10.8727 7.93093L10.8727 7.86843C10.8727 7.76036 10.8875 7.66303 10.9171 7.57644C10.9467 7.48985 10.9882 7.41628 11.0416 7.35574C11.095 7.29519 11.1588 7.2488 11.233 7.21658C11.3073 7.18435 11.389 7.16824 11.4782 7.16824C11.5673 7.16824 11.6491 7.18435 11.7233 7.21658C11.7975 7.2488 11.8613 7.29519 11.9147 7.35574C11.9681 7.41628 12.0096 7.48985 12.0392 7.57644C12.0688 7.66303 12.0836 7.76036 12.0836 7.86843L12.0836 7.93093ZM11.7868 7.86648C11.7868 7.71739 11.7601 7.60411 11.7067 7.52663C11.6533 7.44916 11.5771 7.41042 11.4782 7.41042C11.3792 7.41042 11.303 7.44916 11.2496 7.52663C11.1963 7.60411 11.1696 7.71739 11.1696 7.86648L11.1696 7.93093C11.1696 8.00515 11.1766 8.07074 11.1906 8.12771C11.2046 8.18467 11.2247 8.23253 11.2511 8.27126C11.2775 8.31 11.3099 8.3393 11.3483 8.35915C11.3867 8.37901 11.4306 8.38894 11.4801 8.38894C11.5791 8.38894 11.6549 8.34988 11.7076 8.27175C11.7604 8.19363 11.7868 8.08002 11.7868 7.93093L11.7868 7.86648Z" fill="#000000" fill-rule="evenodd" opacity="1" stroke="none"/>
<path d="M13.3229 8.08913L13.0895 8.08913L13.0895 8.60964L12.7965 8.60964L12.7965 7.18777L13.3248 7.18777C13.4069 7.18777 13.4804 7.19704 13.5455 7.2156C13.6106 7.23415 13.6657 7.2615 13.7106 7.29763C13.7555 7.33376 13.79 7.37852 13.8141 7.43191C13.8382 7.48529 13.8502 7.54714 13.8502 7.61745C13.8502 7.66954 13.8444 7.71625 13.8326 7.75759C13.8209 7.79893 13.804 7.83572 13.7819 7.86794C13.7597 7.90017 13.733 7.92833 13.7018 7.95242C13.6705 7.9765 13.6354 7.99734 13.5963 8.01492L13.9039 8.59597L13.9039 8.60964L13.5895 8.60964L13.3229 8.08913ZM13.0895 7.85183L13.3258 7.85183C13.3642 7.85183 13.3979 7.84678 13.4269 7.83669C13.4559 7.8266 13.4799 7.81228 13.4992 7.79372C13.5184 7.77517 13.5328 7.75303 13.5426 7.72732C13.5524 7.7016 13.5573 7.67279 13.5573 7.64089C13.5573 7.57383 13.5382 7.5211 13.5001 7.48269C13.462 7.44428 13.4036 7.42507 13.3248 7.42507L13.0895 7.42507L13.0895 7.85183Z" fill="#000000" fill-rule="evenodd" opacity="1" stroke="none"/>
<path d="M9.61683 10.9534L9.61683 9.53152L10.1149 9.53152C10.1976 9.53152 10.2715 9.53933 10.3366 9.55495C10.4017 9.57058 10.4568 9.59451 10.5021 9.62673C10.5473 9.65896 10.5818 9.69949 10.6056 9.74831C10.6294 9.79714 10.6412 9.85476 10.6412 9.92117C10.6412 9.95372 10.6372 9.98497 10.629 10.0149C10.6209 10.0449 10.6085 10.0729 10.5919 10.0989C10.5753 10.1249 10.5543 10.1485 10.5289 10.1697C10.5035 10.1909 10.4733 10.2083 10.4381 10.2219C10.4798 10.2324 10.5154 10.2482 10.5451 10.2693C10.5747 10.2905 10.5991 10.315 10.6183 10.343C10.6375 10.371 10.6515 10.4015 10.6603 10.4343C10.6691 10.4672 10.6735 10.5009 10.6735 10.5354C10.6735 10.6734 10.629 10.7776 10.5402 10.8479C10.4513 10.9182 10.3248 10.9534 10.1608 10.9534L9.61683 10.9534ZM9.9098 10.3343L9.9098 10.718L10.1608 10.718C10.1985 10.718 10.2311 10.7133 10.2584 10.7039C10.2858 10.6944 10.3086 10.6814 10.3268 10.6648C10.345 10.6482 10.3585 10.6287 10.3673 10.6062C10.3761 10.5838 10.3805 10.5592 10.3805 10.5325C10.3805 10.5019 10.3766 10.4744 10.3688 10.45C10.361 10.4256 10.3488 10.4047 10.3322 10.3875C10.3156 10.3702 10.2939 10.357 10.2672 10.3479C10.2405 10.3388 10.2086 10.3343 10.1715 10.3343L9.9098 10.3343ZM9.9098 10.1272L10.1266 10.1272C10.2015 10.1259 10.2571 10.1101 10.2936 10.0799C10.33 10.0496 10.3483 10.0065 10.3483 9.95046C10.3483 9.88601 10.3296 9.83962 10.2921 9.8113C10.2547 9.78298 10.1956 9.76882 10.1149 9.76882L9.9098 9.76882L9.9098 10.1272Z" fill="#000000" fill-rule="evenodd" opacity="1" stroke="none"/>
<path d="M11.7047 10.9534L11.4118 10.9534L11.4118 9.53152L11.7047 9.53152L11.7047 10.9534Z" fill="#000000" fill-rule="evenodd" opacity="1" stroke="none"/>
<path d="M12.4762 10.9534L12.4762 9.53152L12.9137 9.53152C13.0094 9.53152 13.0971 9.54796 13.1769 9.58083C13.2566 9.61371 13.325 9.65994 13.382 9.71951C13.4389 9.77908 13.4834 9.85053 13.5153 9.93386C13.5472 10.0172 13.5631 10.1096 13.5631 10.2112L13.5631 10.2757C13.5631 10.3772 13.5473 10.4695 13.5158 10.5525C13.4842 10.6355 13.4396 10.7068 13.382 10.7664C13.3243 10.826 13.2555 10.872 13.1754 10.9046C13.0953 10.9371 13.0071 10.9534 12.9108 10.9534L12.4762 10.9534ZM12.7692 9.76882L12.7692 10.718L12.9108 10.718C13.0267 10.718 13.1149 10.6798 13.1754 10.6033C13.236 10.5268 13.2662 10.4176 13.2662 10.2757L13.2662 10.2093C13.2662 10.0647 13.2363 9.95518 13.1764 9.88064C13.1165 9.80609 13.0289 9.76882 12.9137 9.76882L12.7692 9.76882Z" fill="#000000" fill-rule="evenodd" opacity="1" stroke="none"/>
</g>
</g>
<g opacity="0">
<path d="M4.39913 0.76519L0.826575 5.60116L0.82691 9.25475L0.827256 13.0158C0.827284 13.3186 1.18145 13.5531 1.60638 13.553L4.45404 13.5528L7.2211 13.5525C7.64603 13.5525 8.00015 13.3179 8.00012 13.0151L7.99978 9.25409L7.99944 5.6005L4.39913 0.76519ZM4.39972 1.9741C4.74866 1.9741 5.04447 2.24305 5.04447 2.59199C5.04447 2.94092 4.74866 3.23674 4.39972 3.23674C4.05078 3.23674 3.78183 2.94092 3.78183 2.59199C3.78183 2.24305 4.05078 1.9741 4.39972 1.9741Z" fill="#00a2ed" fill-rule="evenodd" opacity="1" stroke="none"/>
<path d="M4.40625 0.75L0.8125 5.59375L0.8125 9.25L0.8125 13.0313C0.812528 13.334 1.16882 13.5625 1.59375 13.5625L2.0625 13.5625L7.96875 5.59375L8 9.25L8 5.59375L4.40625 0.75ZM4.40625 1.96875C4.75519 1.96875 5.03125 2.24481 5.03125 2.59375C5.03125 2.94269 4.75519 3.25 4.40625 3.25C4.05731 3.25 3.78125 2.94269 3.78125 2.59375C3.78125 2.24481 4.05731 1.96875 4.40625 1.96875Z" fill="#00a2ed" fill-rule="evenodd" opacity="1" stroke="none"/>
<path d="M8 5.60024L2.06134 13.4824L4.46759 13.4824L7.21759 13.4824C7.64252 13.4824 7.99887 13.2255 7.99884 12.926L7.99884 9.21677L8 5.60024Z" fill="#ffffff" fill-rule="evenodd" opacity="1" stroke="none"/>
<g opacity="1">
<path d="M4.02674 7.93093C4.02674 8.03966 4.0121 8.13715 3.9828 8.22341C3.9535 8.30967 3.91232 8.38275 3.85926 8.44265C3.8062 8.50255 3.74256 8.54861 3.66835 8.58083C3.59413 8.61306 3.51242 8.62917 3.42323 8.62917C3.33404 8.62917 3.25233 8.61306 3.17811 8.58083C3.10389 8.54861 3.03993 8.50255 2.98622 8.44265C2.93251 8.38275 2.89068 8.30967 2.86073 8.22341C2.83078 8.13715 2.81581 8.03966 2.81581 7.93093L2.81581 7.86843C2.81581 7.76036 2.83062 7.66303 2.86024 7.57644C2.88986 7.48985 2.93137 7.41628 2.98475 7.35574C3.03814 7.29519 3.10194 7.2488 3.17616 7.21658C3.25038 7.18435 3.33208 7.16824 3.42128 7.16824C3.51047 7.16824 3.59217 7.18435 3.66639 7.21658C3.74061 7.2488 3.80441 7.29519 3.8578 7.35574C3.91118 7.41628 3.95269 7.48985 3.98231 7.57644C4.01193 7.66303 4.02674 7.76036 4.02674 7.86843L4.02674 7.93093ZM3.72987 7.86648C3.72987 7.71739 3.70318 7.60411 3.64979 7.52663C3.59641 7.44916 3.52023 7.41042 3.42128 7.41042C3.32232 7.41042 3.24615 7.44916 3.19276 7.52663C3.13937 7.60411 3.11268 7.71739 3.11268 7.86648L3.11268 7.93093C3.11268 8.00515 3.11968 8.07074 3.13368 8.12771C3.14768 8.18467 3.16786 8.23253 3.19422 8.27126C3.22059 8.31 3.25298 8.3393 3.29139 8.35915C3.3298 8.37901 3.37375 8.38894 3.42323 8.38894C3.52219 8.38894 3.59803 8.34988 3.65077 8.27175C3.7035 8.19363 3.72987 8.08002 3.72987 7.93093L3.72987 7.86648Z" fill="#000000" fill-rule="evenodd" opacity="1" stroke="none"/>
<path d="M5.89588 8.60964L5.60292 8.60964L5.0326 7.6741L5.0326 8.60964L4.73963 8.60964L4.73963 7.18777L5.0326 7.18777L5.60389 8.12527L5.60389 7.18777L5.89588 7.18777L5.89588 8.60964Z" fill="#000000" fill-rule="evenodd" opacity="1" stroke="none"/>
<path d="M2.10096 10.5803C2.10096 10.5556 2.09738 10.5333 2.09022 10.5135C2.08306 10.4936 2.06922 10.4752 2.04872 10.4583C2.02821 10.4413 1.99989 10.4247 1.96376 10.4085C1.92762 10.3922 1.88091 10.3749 1.82362 10.3567C1.75852 10.3359 1.69715 10.3124 1.63954 10.2864C1.58192 10.2604 1.53146 10.2296 1.48817 10.1941C1.44488 10.1586 1.4107 10.1178 1.38563 10.0716C1.36057 10.0253 1.34803 9.9713 1.34803 9.90945C1.34803 9.8502 1.36089 9.796 1.38661 9.74685C1.41232 9.6977 1.44846 9.65587 1.49501 9.62136C1.54156 9.58686 1.59689 9.56 1.66102 9.54079C1.72515 9.52159 1.79562 9.51199 1.87245 9.51199C1.95122 9.51199 2.02284 9.52289 2.08729 9.5447C2.15174 9.56651 2.20676 9.59695 2.25233 9.63601C2.2979 9.67507 2.33306 9.72146 2.3578 9.77517C2.38254 9.82888 2.39491 9.88764 2.39491 9.95144L2.10194 9.95144C2.10194 9.92149 2.09722 9.89382 2.08778 9.86843C2.07834 9.84304 2.06385 9.82123 2.04432 9.803C2.02479 9.78477 2.00038 9.77061 1.97108 9.76052C1.94178 9.75043 1.90728 9.74538 1.86756 9.74538C1.82915 9.74538 1.79579 9.74962 1.76747 9.75808C1.73915 9.76654 1.71571 9.77826 1.69715 9.79324C1.6786 9.80821 1.6646 9.82579 1.65516 9.84597C1.64572 9.86615 1.641 9.88764 1.641 9.91042C1.641 9.9573 1.66493 9.99652 1.71278 10.0281C1.76063 10.0597 1.83078 10.0891 1.92323 10.1165C2.0007 10.1406 2.0689 10.1673 2.12782 10.1966C2.18674 10.2259 2.23589 10.2591 2.27528 10.2962C2.31467 10.3333 2.34445 10.3749 2.36463 10.4212C2.38482 10.4674 2.39491 10.5198 2.39491 10.5784C2.39491 10.6409 2.3827 10.6966 2.35829 10.7454C2.33387 10.7942 2.29921 10.8354 2.25428 10.8689C2.20936 10.9024 2.15516 10.9282 2.09169 10.9461C2.02821 10.964 1.95741 10.9729 1.87928 10.9729C1.83241 10.9729 1.78553 10.9689 1.73866 10.9607C1.69178 10.9526 1.64702 10.94 1.60438 10.9231C1.56174 10.9062 1.52219 10.885 1.48573 10.8596C1.44927 10.8343 1.41753 10.8043 1.39051 10.7698C1.3635 10.7353 1.34234 10.6961 1.32704 10.6521C1.31174 10.6082 1.30409 10.5595 1.30409 10.5061L1.59803 10.5061C1.59803 10.5491 1.60487 10.5856 1.61854 10.6155C1.63221 10.6454 1.65126 10.6697 1.67567 10.6883C1.70008 10.7068 1.72954 10.7203 1.76405 10.7288C1.79855 10.7372 1.83697 10.7415 1.87928 10.7415C1.91704 10.7415 1.94992 10.7374 1.97792 10.7293C2.00591 10.7211 2.02902 10.7099 2.04725 10.6956C2.06548 10.6813 2.07899 10.6642 2.08778 10.6443C2.09657 10.6245 2.10096 10.6031 2.10096 10.5803Z" fill="#000000" fill-rule="evenodd" opacity="1" stroke="none"/>
<path d="M3.89588 10.6604L3.38221 10.6604L3.28456 10.9534L2.97303 10.9534L3.50233 9.53152L3.77381 9.53152L4.30604 10.9534L3.99452 10.9534L3.89588 10.6604ZM3.46131 10.4231L3.81678 10.4231L3.63807 9.89089L3.46131 10.4231Z" fill="#000000" fill-rule="evenodd" opacity="1" stroke="none"/>
<path d="M5.23182 10.718L5.85389 10.718L5.85389 10.9534L4.93885 10.9534L4.93885 9.53152L5.23182 9.53152L5.23182 10.718Z" fill="#000000" fill-rule="evenodd" opacity="1" stroke="none"/>
<path d="M7.37733 10.3372L6.81483 10.3372L6.81483 10.718L7.47499 10.718L7.47499 10.9534L6.52186 10.9534L6.52186 9.53152L7.47303 9.53152L7.47303 9.76882L6.81483 9.76882L6.81483 10.1077L7.37733 10.1077L7.37733 10.3372Z" fill="#000000" fill-rule="evenodd" opacity="1" stroke="none"/>
</g>
</g>
<path d="M8 5.60024L8 9.17178L8 12.9313C8 13.2348 8.35632 13.4952 8.78125 13.4952L11.625 13.4952L13.875 13.4952L8 5.60024Z" fill="#c0bfbf" fill-rule="evenodd" opacity="0" stroke="none"/>
<path d="M8 5.60024L2.06134 13.4824L4.46759 13.4824L7.21759 13.4824C7.64252 13.4824 7.99887 13.2255 7.99884 12.926L7.99884 9.21677L8 5.60024Z" fill="#ffffff" fill-rule="evenodd" opacity="0" stroke="none"/>
<g opacity="1">
<path d="M7.98221 0.0838973L3.55851 6.07087L3.55851 10.5944L3.55851 15.2509C3.55851 15.6257 3.99697 15.9161 4.52308 15.9161L8.04873 15.9161L11.4746 15.9161C12.0007 15.9161 12.4392 15.6258 12.4392 15.2509L12.4392 10.5944L12.4392 6.07087L7.98221 0.0838973ZM7.98221 1.58064C8.41423 1.58064 8.78048 1.91362 8.78048 2.34564C8.78048 2.77766 8.41423 3.1439 7.98221 3.1439C7.55019 3.1439 7.21721 2.77766 7.21721 2.34564C7.21721 1.91362 7.5502 1.58064 7.98221 1.58064Z" fill="#00a2ed" fill-rule="evenodd" opacity="1" stroke="none"/>
<path d="M3.55851 6.0571L3.55851 10.4678L3.55851 15.1107C3.55851 15.4855 3.99967 15.8071 4.52577 15.8071L8.04659 15.8071L10.5228 15.8071L3.55851 6.0571Z" fill="url(#LinearGradient_6)" fill-rule="evenodd" opacity="0.5" stroke="none"/>
<g opacity="1">
<path d="M6.25331 9.06363L5.55689 9.06363L5.55689 9.78303L5.19416 9.78303L5.19416 8.02261L6.34037 8.02261L6.34037 8.31642L5.55689 8.31642L5.55689 8.77103L6.25331 8.77103L6.25331 9.06363Z" fill="#ffffff" fill-rule="evenodd" opacity="1" stroke="none"/>
<path d="M8.61585 8.94272C8.61585 9.07733 8.59771 9.19803 8.56144 9.30484C8.52516 9.41164 8.47418 9.50212 8.40849 9.57627C8.3428 9.65043 8.264 9.70746 8.17212 9.74736C8.08023 9.78726 7.97907 9.80721 7.86864 9.80721C7.75821 9.80721 7.65705 9.78726 7.56516 9.74736C7.47327 9.70746 7.39408 9.65043 7.32758 9.57627C7.26108 9.50212 7.20929 9.41164 7.17221 9.30484C7.13513 9.19803 7.11659 9.07733 7.11659 8.94272L7.11659 8.86534C7.11659 8.73153 7.13493 8.61103 7.17161 8.50382C7.20828 8.39662 7.25967 8.30554 7.32576 8.23057C7.39186 8.15561 7.47085 8.09818 7.56274 8.05828C7.65463 8.01838 7.75579 7.99843 7.86622 7.99843C7.97665 7.99843 8.07781 8.01838 8.1697 8.05828C8.26159 8.09818 8.34058 8.15561 8.40668 8.23057C8.47277 8.30554 8.52416 8.39662 8.56083 8.50382C8.59751 8.61103 8.61585 8.73153 8.61585 8.86534L8.61585 8.94272ZM8.24829 8.86292C8.24829 8.67833 8.21524 8.53808 8.14914 8.44216C8.08305 8.34624 7.98874 8.29828 7.86622 8.29828C7.7437 8.29828 7.64939 8.34624 7.5833 8.44216C7.5172 8.53808 7.48415 8.67833 7.48415 8.86292L7.48415 8.94272C7.48415 9.03461 7.49282 9.11582 7.51015 9.18635C7.52748 9.25688 7.55246 9.31612 7.58511 9.36408C7.61775 9.41204 7.65786 9.44831 7.70541 9.4729C7.75297 9.49748 7.80738 9.50977 7.86864 9.50977C7.99116 9.50977 8.08506 9.46141 8.15035 9.36469C8.21564 9.26796 8.24829 9.1273 8.24829 8.94272L8.24829 8.86292Z" fill="#ffffff" fill-rule="evenodd" opacity="1" stroke="none"/>
<path d="M10.1502 9.13859L9.86119 9.13859L9.86119 9.78303L9.49847 9.78303L9.49847 8.02261L10.1526 8.02261C10.2541 8.02261 10.3452 8.0341 10.4258 8.05707C10.5064 8.08004 10.5745 8.1139 10.6302 8.15863C10.6858 8.20337 10.7285 8.25879 10.7583 8.32488C10.7881 8.39098 10.8031 8.46755 10.8031 8.55461C10.8031 8.61909 10.7958 8.67692 10.7813 8.72811C10.7668 8.77929 10.7458 8.82483 10.7184 8.86473C10.691 8.90463 10.658 8.93949 10.6193 8.96932C10.5806 8.99914 10.5371 9.02494 10.4887 9.0467L10.8696 9.7661L10.8696 9.78303L10.4802 9.78303L10.1502 9.13859ZM9.86119 8.84478L10.1538 8.84478C10.2013 8.84478 10.2431 8.83854 10.2789 8.82604C10.3148 8.81355 10.3446 8.79582 10.3684 8.77284C10.3922 8.74987 10.4101 8.72247 10.4222 8.69063C10.4343 8.65879 10.4403 8.62312 10.4403 8.58362C10.4403 8.5006 10.4168 8.43531 10.3696 8.38775C10.3225 8.3402 10.2501 8.31642 10.1526 8.31642L9.86119 8.31642L9.86119 8.84478Z" fill="#ffffff" fill-rule="evenodd" opacity="1" stroke="none"/>
<path d="M5.56172 12.6848L5.56172 10.9244L6.17835 10.9244C6.28072 10.9244 6.37221 10.9341 6.45281 10.9534C6.53342 10.9728 6.60173 11.0024 6.65775 11.0423C6.71377 11.0822 6.75649 11.1324 6.78591 11.1928C6.81533 11.2533 6.83004 11.3246 6.83004 11.4068C6.83004 11.4471 6.825 11.4858 6.81493 11.5229C6.80485 11.56 6.78954 11.5946 6.76898 11.6269C6.74843 11.6591 6.72243 11.6883 6.691 11.7145C6.65956 11.7407 6.62208 11.7623 6.57856 11.7792C6.63014 11.7921 6.67427 11.8117 6.71095 11.8378C6.74762 11.864 6.77785 11.8945 6.80163 11.9291C6.82541 11.9638 6.84274 12.0015 6.85362 12.0422C6.8645 12.0829 6.86994 12.1246 6.86994 12.1673C6.86994 12.3382 6.81493 12.4672 6.7049 12.5542C6.59488 12.6413 6.4383 12.6848 6.23518 12.6848L5.56172 12.6848ZM5.92445 11.9183L5.92445 12.3934L6.23518 12.3934C6.28193 12.3934 6.32223 12.3876 6.35609 12.3759C6.38994 12.3642 6.41815 12.3481 6.44072 12.3275C6.46329 12.307 6.48002 12.2828 6.4909 12.255C6.50178 12.2272 6.50722 12.1967 6.50722 12.1637C6.50722 12.1258 6.50238 12.0918 6.49271 12.0615C6.48304 12.0313 6.46792 12.0055 6.44737 11.9841C6.42682 11.9628 6.40002 11.9465 6.36697 11.9352C6.33392 11.9239 6.29442 11.9183 6.24848 11.9183L5.92445 11.9183ZM5.92445 11.6619L6.19286 11.6619C6.28556 11.6603 6.35447 11.6408 6.39961 11.6033C6.44475 11.5658 6.46732 11.5124 6.46732 11.4431C6.46732 11.3633 6.44415 11.3059 6.3978 11.2708C6.35145 11.2357 6.2783 11.2182 6.17835 11.2182L5.92445 11.2182L5.92445 11.6619Z" fill="#ffffff" fill-rule="evenodd" opacity="1" stroke="none"/>
<path d="M8.14672 12.6848L7.784 12.6848L7.784 10.9244L8.14672 10.9244L8.14672 12.6848Z" fill="#ffffff" fill-rule="evenodd" opacity="1" stroke="none"/>
<path d="M9.10189 12.6848L9.10189 10.9244L9.64356 10.9244C9.76205 10.9244 9.87066 10.9447 9.9694 10.9854C10.0681 11.0262 10.1528 11.0834 10.2233 11.1571C10.2938 11.2309 10.3489 11.3194 10.3883 11.4225C10.4278 11.5257 10.4476 11.6402 10.4476 11.7659L10.4476 11.8457C10.4476 11.9715 10.428 12.0857 10.389 12.1885C10.3499 12.2913 10.2946 12.3795 10.2233 12.4533C10.152 12.527 10.0667 12.584 9.96759 12.6244C9.86845 12.6647 9.75923 12.6848 9.63993 12.6848L9.10189 12.6848ZM9.46462 11.2182L9.46462 12.3934L9.63993 12.3934C9.78341 12.3934 9.89263 12.3461 9.96759 12.2514C10.0426 12.1566 10.08 12.0214 10.08 11.8457L10.08 11.7635C10.08 11.5845 10.043 11.4489 9.9688 11.3566C9.89464 11.2643 9.78623 11.2182 9.64356 11.2182L9.46462 11.2182Z" fill="#ffffff" fill-rule="evenodd" opacity="1" stroke="none"/>
</g>
</g>
<g opacity="0">
<path d="M7.98997 0.101433L3.57473 6.0781L3.57514 10.5935L3.57557 15.2417C3.5756 15.6159 4.01331 15.9057 4.53847 15.9056L8.05782 15.9053L11.4776 15.905C12.0027 15.905 12.4404 15.6151 12.4404 15.2409L12.4399 10.5927L12.4395 6.07728L7.98997 0.101433ZM7.9907 1.5955C8.42194 1.5955 8.78753 1.92788 8.78753 2.35913C8.78753 2.79037 8.42194 3.15596 7.9907 3.15596C7.55945 3.15596 7.22706 2.79037 7.22706 2.35913C7.22706 1.92788 7.55945 1.5955 7.9907 1.5955Z" fill="#00a2ed" fill-rule="evenodd" opacity="1" stroke="none"/>
<path d="M7.99877 0.0826598L3.55733 6.06894L3.55733 10.5876L3.55733 15.2608C3.55737 15.635 3.9977 15.9174 4.52286 15.9173L5.10218 15.9173L12.4016 6.06894L12.4402 10.5876L12.4402 6.06894L7.99877 0.0826598ZM7.99877 1.58889C8.43001 1.58889 8.77119 1.93006 8.77119 2.36131C8.77119 2.79255 8.43001 3.17235 7.99877 3.17235C7.56752 3.17235 7.22634 2.79255 7.22634 2.36131C7.22634 1.93006 7.56752 1.58889 7.99877 1.58889Z" fill="#00a2ed" fill-rule="evenodd" opacity="1" stroke="none"/>
<path d="M12.4388 6.07696L12.4388 10.4798L12.4388 15.1143C12.4388 15.4885 11.9984 15.8095 11.4732 15.8095L7.95872 15.8095L5.48696 15.8095L12.4388 6.07696Z" fill="url(#LinearGradient_7)" fill-rule="evenodd" opacity="0.5" stroke="none"/>
<g opacity="1">
<path d="M7.52974 8.95741C7.52974 9.09178 7.51164 9.21227 7.47543 9.31888C7.43923 9.42549 7.38833 9.51581 7.32276 9.58983C7.25718 9.66386 7.17853 9.72078 7.08681 9.76061C6.99508 9.80044 6.8941 9.82035 6.78387 9.82035C6.67364 9.82035 6.57266 9.80044 6.48094 9.76061C6.38921 9.72078 6.31016 9.66386 6.24378 9.58983C6.1774 9.51581 6.1257 9.42549 6.08869 9.31888C6.05168 9.21227 6.03317 9.09178 6.03317 8.95741L6.03317 8.88017C6.03317 8.7466 6.05148 8.62632 6.08809 8.5193C6.1247 8.41229 6.17599 8.32137 6.24197 8.24654C6.30795 8.17171 6.3868 8.11438 6.47852 8.07456C6.57025 8.03473 6.67123 8.01481 6.78146 8.01481C6.89169 8.01481 6.99267 8.03473 7.08439 8.07456C7.17612 8.11438 7.25497 8.17171 7.32095 8.24654C7.38693 8.32137 7.43822 8.41229 7.47483 8.5193C7.51144 8.62632 7.52974 8.7466 7.52974 8.88017L7.52974 8.95741ZM7.16284 8.87776C7.16284 8.6935 7.12985 8.5535 7.06388 8.45775C6.9979 8.362 6.90376 8.31413 6.78146 8.31413C6.65916 8.31413 6.56502 8.362 6.49904 8.45775C6.43306 8.5535 6.40008 8.6935 6.40008 8.87776L6.40008 8.95741C6.40008 9.04914 6.40873 9.1302 6.42602 9.2006C6.44332 9.27101 6.46827 9.33015 6.50085 9.37802C6.53344 9.42589 6.57347 9.4621 6.62094 9.48664C6.66841 9.51118 6.72272 9.52345 6.78387 9.52345C6.90617 9.52345 6.99991 9.47518 7.06508 9.37862C7.13026 9.28207 7.16284 9.14167 7.16284 8.95741L7.16284 8.87776Z" fill="#ffffff" fill-rule="evenodd" opacity="1" stroke="none"/>
<path d="M9.83977 9.79621L9.4777 9.79621L8.77286 8.63999L8.77286 9.79621L8.41079 9.79621L8.41079 8.03895L8.77286 8.03895L9.47891 9.19759L9.47891 8.03895L9.83977 8.03895L9.83977 9.79621Z" fill="#ffffff" fill-rule="evenodd" opacity="1" stroke="none"/>
<path d="M5.14972 12.2318C5.14972 12.2012 5.14529 12.1736 5.13644 12.1491C5.12759 12.1245 5.11049 12.1018 5.08515 12.0809C5.0598 12.06 5.0248 12.0395 4.98014 12.0193C4.93549 11.9992 4.87776 11.9779 4.80695 11.9554C4.72649 11.9296 4.65066 11.9007 4.57945 11.8685C4.50824 11.8363 4.44588 11.7983 4.39238 11.7544C4.33887 11.7106 4.29663 11.6601 4.26565 11.603C4.23467 11.5458 4.21919 11.4791 4.21919 11.4026C4.21919 11.3294 4.23508 11.2624 4.26686 11.2017C4.29864 11.1409 4.3433 11.0892 4.40083 11.0466C4.45836 11.0039 4.52675 10.9707 4.606 10.947C4.68526 10.9233 4.77235 10.9114 4.8673 10.9114C4.96466 10.9114 5.05316 10.9249 5.13282 10.9518C5.21247 10.9788 5.28046 11.0164 5.33679 11.0647C5.39311 11.113 5.43656 11.1703 5.46713 11.2367C5.49771 11.303 5.513 11.3757 5.513 11.4545L5.15092 11.4545C5.15092 11.4175 5.14509 11.3833 5.13342 11.3519C5.12175 11.3205 5.10385 11.2936 5.07971 11.2711C5.05558 11.2485 5.0254 11.231 4.9892 11.2186C4.95299 11.2061 4.91034 11.1999 4.86126 11.1999C4.81379 11.1999 4.77256 11.2051 4.73755 11.2155C4.70255 11.226 4.67359 11.2405 4.65066 11.259C4.62773 11.2775 4.61043 11.2992 4.59876 11.3242C4.58709 11.3491 4.58126 11.3757 4.58126 11.4038C4.58126 11.4618 4.61083 11.5102 4.66997 11.5493C4.72911 11.5883 4.8158 11.6247 4.93006 11.6585C5.02581 11.6882 5.11009 11.7212 5.18291 11.7574C5.25572 11.7937 5.31647 11.8347 5.36515 11.8806C5.41383 11.9264 5.45064 11.9779 5.47558 12.035C5.50052 12.0922 5.513 12.1569 5.513 12.2293C5.513 12.3066 5.49791 12.3754 5.46774 12.4357C5.43756 12.4961 5.39472 12.547 5.3392 12.5884C5.28368 12.6298 5.2167 12.6616 5.13825 12.6838C5.0598 12.7059 4.9723 12.7169 4.87575 12.7169C4.81781 12.7169 4.75988 12.7119 4.70195 12.7019C4.64402 12.6918 4.5887 12.6763 4.536 12.6554C4.4833 12.6345 4.43442 12.6083 4.38936 12.5769C4.3443 12.5456 4.30508 12.5085 4.27169 12.4659C4.2383 12.4233 4.21215 12.3748 4.19324 12.3205C4.17433 12.2662 4.16488 12.206 4.16488 12.14L4.52816 12.14C4.52816 12.1931 4.5366 12.2382 4.5535 12.2752C4.5704 12.3122 4.59393 12.3422 4.62411 12.3651C4.65428 12.3881 4.69069 12.4048 4.73333 12.4152C4.77597 12.4257 4.82345 12.4309 4.87575 12.4309C4.92241 12.4309 4.96305 12.4259 4.99764 12.4158C5.03224 12.4058 5.06081 12.3919 5.08333 12.3742C5.10586 12.3565 5.12256 12.3354 5.13342 12.3108C5.14428 12.2863 5.14972 12.2599 5.14972 12.2318Z" fill="#ffffff" fill-rule="evenodd" opacity="1" stroke="none"/>
<path d="M7.36802 12.3307L6.73318 12.3307L6.61249 12.6928L6.22749 12.6928L6.88163 10.9355L7.21715 10.9355L7.87492 12.6928L7.48992 12.6928L7.36802 12.3307ZM6.83094 12.0374L7.27026 12.0374L7.04939 11.3797L6.83094 12.0374Z" fill="#ffffff" fill-rule="evenodd" opacity="1" stroke="none"/>
<path d="M9.01907 12.4019L9.78788 12.4019L9.78788 12.6928L8.657 12.6928L8.657 10.9355L9.01907 10.9355L9.01907 12.4019Z" fill="#ffffff" fill-rule="evenodd" opacity="1" stroke="none"/>
<path d="M11.6707 11.9312L10.9755 11.9312L10.9755 12.4019L11.7913 12.4019L11.7913 12.6928L10.6134 12.6928L10.6134 10.9355L11.7889 10.9355L11.7889 11.2288L10.9755 11.2288L10.9755 11.6476L11.6707 11.6476L11.6707 11.9312Z" fill="#ffffff" fill-rule="evenodd" opacity="1" stroke="none"/>
</g>
</g>
</g>
</svg>
