<?xml version="1.0" encoding="UTF-8" standalone="no"?>
<!DOCTYPE svg PUBLIC "-//W3C//DTD SVG 1.1//EN" "http://www.w3.org/Graphics/SVG/1.1/DTD/svg11.dtd">
<!-- Created with Vectornator (http://vectornator.io/) -->
<svg height="100%" stroke-miterlimit="10" style="fill-rule:nonzero;clip-rule:evenodd;stroke-linecap:round;stroke-linejoin:round;" version="1.1" viewBox="0 0 100 100" width="100%" xml:space="preserve" xmlns="http://www.w3.org/2000/svg" xmlns:vectornator="http://vectornator.io" xmlns:xlink="http://www.w3.org/1999/xlink">
<defs/>
<g id="Untitled" vectornator:layerName="Untitled" visibility="hidden">
<g opacity="1">
<path d="M37.2811 87.303C27.7981 87.303 18.5471 84.619 10.5291 79.543C7.9431 77.906 6.8551 74.749 7.8851 71.864C8.8051 69.286 11.2691 67.552 14.0161 67.552C14.2591 67.552 14.5031 67.566 14.7481 67.593C15.6991 67.709 16.6521 67.765 17.6261 67.765C18.7571 67.765 19.8691 67.692 20.9611 67.545C18.7931 65.253 17.1261 62.479 16.1201 59.373C15.8211 58.452 15.7401 57.485 15.8611 56.547C12.4331 52.652 10.4811 47.614 10.4811 42.347L10.4811 42.17C10.4811 40.785 10.9301 39.452 11.7211 38.358C10.9891 36.177 10.6121 33.878 10.6121 31.52C10.6121 27.673 11.6361 23.909 13.5731 20.634C14.6531 18.81 16.5581 17.624 18.6721 17.463C18.8691 17.449 19.0151 17.444 19.1601 17.444C21.1171 17.444 22.9491 18.308 24.1871 19.813C29.2371 25.953 36.2511 30.303 43.9481 32.184C45.8631 22.237 54.6841 14.697 65.2451 14.697C69.8021 14.697 74.3071 16.171 77.9821 18.807C79.6001 18.275 81.1701 17.565 82.6711 16.684C83.6711 16.099 84.8061 15.791 85.9601 15.791C87.4351 15.791 88.8801 16.3 90.0301 17.223C91.8821 18.71 92.7611 21.114 92.3611 23.417C92.5831 23.617 92.7921 23.834 92.9861 24.066C94.8341 26.262 95.0091 29.47 93.4071 31.861C91.5791 34.594 89.4181 37.045 86.9651 39.167C86.3701 63.037 67.8831 87.303 37.2811 87.303Z" fill="#000000" fill-rule="evenodd" opacity="0.35" stroke="none"/>
<path d="M35.2811 85.303C25.7981 85.303 16.5471 82.619 8.5291 77.543C5.9431 75.906 4.8551 72.749 5.8851 69.864C6.8051 67.286 9.2691 65.552 12.0161 65.552C12.2591 65.552 12.5031 65.566 12.7481 65.593C13.6991 65.709 14.6521 65.765 15.6261 65.765C16.7571 65.765 17.8691 65.692 18.9611 65.545C16.7931 63.253 15.1261 60.479 14.1201 57.373C13.8211 56.452 13.7401 55.485 13.8611 54.547C10.4331 50.652 8.4811 45.614 8.4811 40.347L8.4811 40.17C8.4811 38.785 8.9301 37.452 9.7211 36.358C8.9891 34.177 8.6121 31.878 8.6121 29.52C8.6121 25.673 9.6361 21.909 11.5731 18.634C12.6531 16.81 14.5581 15.624 16.6721 15.463C16.8691 15.449 17.0151 15.444 17.1601 15.444C19.1171 15.444 20.9491 16.308 22.1871 17.813C27.2371 23.953 34.2511 28.303 41.9481 30.184C43.8631 20.237 52.6841 12.697 63.2451 12.697C67.8021 12.697 72.3071 14.171 75.9821 16.807C77.6001 16.275 79.1701 15.565 80.6711 14.684C81.6711 14.099 82.8061 13.791 83.9601 13.791C85.4351 13.791 86.8801 14.3 88.0301 15.223C89.8821 16.71 90.7611 19.114 90.3611 21.417C90.5831 21.617 90.7921 21.834 90.9861 22.066C92.8341 24.262 93.0091 27.47 91.4071 29.861C89.5791 32.594 87.4181 35.045 84.9651 37.167C84.3701 61.037 65.8831 85.303 35.2811 85.303Z" fill="#f2f2f2" fill-rule="evenodd" opacity="1" stroke="none"/>
<path d="M86.0061 26.245C83.2871 27.449 80.3621 28.253 77.2771 28.633C80.4141 26.771 82.8271 23.801 83.9591 20.292C81.0241 22.012 77.7721 23.276 74.3131 23.942C71.5511 21.013 67.6101 19.196 63.2451 19.196C54.8591 19.196 48.0621 25.934 48.0621 34.241C48.0621 35.417 48.2001 36.562 48.4591 37.673C35.8431 37.04 24.6541 31.042 17.1681 21.941C15.8531 24.165 15.1131 26.769 15.1131 29.517C15.1131 34.74 17.7871 39.338 21.8651 42.047C19.3761 41.971 17.0331 41.278 14.9821 40.168C14.9821 40.213 14.9821 40.281 14.9821 40.345C14.9821 47.644 20.2171 53.721 27.1561 55.105C25.8881 55.452 24.5481 55.646 23.1661 55.646C22.1861 55.646 21.2301 55.535 20.3051 55.369C22.2371 61.334 27.8421 65.693 34.4831 65.823C29.2871 69.852 22.7431 72.265 15.6271 72.265C14.3981 72.265 13.1951 72.195 12.0071 72.051C18.7301 76.308 26.7131 78.803 35.2821 78.803C63.2041 78.803 78.4801 55.873 78.4801 35.981C78.4801 35.329 78.4591 34.68 78.4291 34.039C81.4081 31.934 83.9771 29.279 86.0061 26.245" fill="#70bfff" fill-rule="evenodd" opacity="1" stroke="none"/>
<path d="M35.2811 80.303C26.7461 80.303 18.4201 77.888 11.2031 73.319C10.6101 72.944 10.3571 72.208 10.5931 71.548C10.8291 70.887 11.4941 70.485 12.1871 70.563C13.2931 70.698 14.4511 70.766 15.6251 70.766C20.9151 70.766 25.9691 69.39 30.4371 66.759C25.0501 65.321 20.6351 61.266 18.8751 55.833C18.7121 55.332 18.8251 54.782 19.1711 54.385C19.5171 53.989 20.0451 53.802 20.5671 53.895C20.5701 53.896 20.5741 53.897 20.5781 53.897C16.2481 50.868 13.4781 45.862 13.4781 40.348L13.4781 40.17C13.4781 39.642 13.7561 39.151 14.2101 38.881C14.6641 38.611 15.2281 38.602 15.6911 38.851C16.0981 39.071 16.5141 39.271 16.9371 39.45C14.8031 36.623 13.6081 33.155 13.6081 29.52C13.6081 26.569 14.3911 23.684 15.8731 21.18C16.1221 20.759 16.5611 20.486 17.0481 20.449C17.5491 20.416 18.0121 20.614 18.3221 20.991C25.3791 29.57 35.6221 34.988 46.6571 36.041C46.5921 35.442 46.5581 34.842 46.5581 34.243C46.5581 25.12 54.0421 17.698 63.2411 17.698C67.5541 17.698 71.7201 19.369 74.8001 22.31C77.7311 21.662 80.5511 20.549 83.1961 18.998C83.7321 18.685 84.4071 18.731 84.8941 19.122C85.3791 19.512 85.5741 20.16 85.3831 20.753C84.7721 22.646 83.8281 24.397 82.6091 25.935C83.5601 25.628 84.4901 25.275 85.3951 24.874C86.0061 24.603 86.7211 24.769 87.1501 25.28C87.5801 25.791 87.6201 26.524 87.2491 27.079C85.2471 30.073 82.7961 32.66 79.9561 34.781C79.9691 35.179 79.9761 35.58 79.9761 35.981C79.9791 57.768 63.2601 80.303 35.2811 80.303ZM18.1861 73.666C23.5461 76.057 29.3601 77.303 35.2811 77.303C61.3821 77.303 76.9791 56.293 76.9791 35.982C76.9791 35.355 76.9591 34.728 76.9301 34.112C76.9051 33.599 77.1441 33.11 77.5631 32.814C79.0171 31.788 80.3651 30.628 81.5971 29.347C80.2491 29.69 78.8681 29.949 77.4611 30.121C76.7591 30.21 76.0871 29.79 75.8581 29.117C75.6291 28.445 75.9011 27.705 76.5121 27.343C78.1311 26.382 79.5171 25.114 80.6001 23.626C78.6581 24.422 76.6511 25.021 74.5971 25.415C74.0941 25.515 73.5751 25.346 73.2221 24.972C70.6601 22.255 67.0231 20.698 63.2451 20.698C55.7001 20.698 49.5621 26.774 49.5621 34.243C49.5621 35.275 49.6821 36.316 49.9191 37.336C50.0261 37.794 49.9111 38.276 49.6091 38.638C49.3071 39 48.8611 39.193 48.3831 39.174C36.5691 38.58 25.4471 33.316 17.5201 24.64C16.9221 26.18 16.6111 27.835 16.6111 29.52C16.6111 34.053 18.8841 38.27 22.6931 40.8C23.2511 41.17 23.4961 41.866 23.2921 42.504C23.0881 43.143 22.4761 43.577 21.8171 43.548C20.0771 43.495 18.3311 43.158 16.6641 42.561C17.5811 48.027 21.8341 52.517 27.4471 53.636C28.1291 53.772 28.6291 54.359 28.6531 55.054C28.6781 55.748 28.2211 56.369 27.5501 56.553C25.9561 56.991 24.3451 57.19 22.6821 57.14C24.9851 61.422 29.4821 64.226 34.5111 64.324C35.1471 64.337 35.7051 64.749 35.9061 65.352C36.1071 65.955 35.9041 66.62 35.4011 67.009C30.3771 70.903 24.4701 73.181 18.1861 73.666Z" fill="#40396e" fill-rule="evenodd" opacity="1" stroke="none"/>
</g>
</g>
<g id="Layer-1" vectornator:layerName="Layer 1" visibility="hidden">
<g opacity="1">
<path d="M11.991 93.2022L17.8553 71.7935C14.2375 65.5287 12.3349 58.4193 12.3371 51.138C12.348 28.3579 30.8855 9.82477 53.6677 9.82477C64.7236 9.82913 75.0982 14.1326 82.9019 21.9408C90.7035 29.7511 95.0005 40.13 94.9962 51.1706C94.9875 73.9507 76.4456 92.486 53.6677 92.486C53.6656 92.486 53.6677 92.486 53.6677 92.486L53.6503 92.486C46.7347 92.4838 39.9366 90.7489 33.9003 87.4554L11.991 93.2022Z" fill="#000000" fill-rule="evenodd" opacity="0.35" stroke="none"/>
<path d="M11.991 89.3268C11.7206 89.3268 11.4583 89.2202 11.2637 89.0235C11.0076 88.7633 10.9072 88.3843 11.0035 88.0339L16.4104 68.2911C13.0585 62.3371 11.2903 55.5759 11.2944 48.7122C11.3026 26.7033 29.2117 8.80034 51.2185 8.80034C61.8931 8.80444 71.9223 12.9616 79.46 20.5055C86.9978 28.0514 91.1468 38.0786 91.1427 48.7409C91.1345 70.7477 73.2233 88.6527 51.2185 88.6527C44.6847 88.6506 38.2205 87.0382 32.4837 83.9874L12.2512 89.2919C12.1652 89.3165 12.0791 89.3268 11.991 89.3268Z" fill="#ffffff" fill-rule="evenodd" opacity="1" stroke="none"/>
<path d="M51.2185 9.82477C61.6247 9.82887 71.3896 13.8795 78.7347 21.2287C86.0779 28.5801 90.1223 38.349 90.1182 48.7409C90.11 70.1822 72.6578 87.6283 51.2185 87.6283L51.2021 87.6283C44.6929 87.6262 38.2943 85.9933 32.6128 82.8933L11.991 88.3023L17.5106 68.1518C14.1054 62.2552 12.3147 55.5636 12.3168 48.7101C12.327 27.2688 29.7751 9.82477 51.2185 9.82477M51.2185 7.77591L51.2185 7.77591C28.6483 7.77591 10.2782 26.1378 10.2679 48.7101C10.2659 55.6086 12.0074 62.4068 15.3102 68.4243L10.0139 87.7635C9.82127 88.4703 10.018 89.2243 10.5343 89.7447C10.9236 90.1381 11.4501 90.3533 11.991 90.3533C12.1652 90.3533 12.3393 90.3307 12.5114 90.2856L32.3588 85.0815C38.1529 88.0893 44.6478 89.6771 51.2021 89.6792C73.7888 89.6792 92.1589 71.3152 92.1691 48.7429C92.1732 37.804 87.9177 27.5187 80.1874 19.7822C72.4529 12.0437 62.1656 7.78001 51.2185 7.77591L51.2185 7.77591Z" fill="#cfd8dc" fill-rule="evenodd" opacity="1" stroke="none"/>
<path d="M74.0879 25.8715C67.9823 19.7618 59.8668 16.3955 51.2288 16.3934C33.3955 16.3934 18.8916 30.8912 18.8834 48.7122C18.8813 54.8198 20.5901 60.7656 23.8273 65.9144L24.5977 67.1376L21.3297 79.064L33.5676 75.8555L34.7498 76.5562C39.7121 79.5025 45.4039 81.0596 51.2062 81.0617L51.2185 81.0617C69.0395 81.0617 83.5434 66.5619 83.5496 48.7388C83.5516 40.1029 80.1935 31.9812 74.0879 25.8715Z" fill="#40c351" fill-rule="evenodd" opacity="1" stroke="none"/>
<path d="M41.4946 32.4545C40.7673 30.8359 40.001 30.8031 39.3064 30.7744C38.7389 30.7498 38.0915 30.7519 37.444 30.7519C36.7966 30.7519 35.7435 30.9957 34.8522 31.9689C33.961 32.9421 31.4491 35.2921 31.4491 40.0742C31.4491 44.8562 34.9321 49.4785 35.4177 50.1259C35.9033 50.7733 42.1421 60.9009 52.0217 64.7978C60.2315 68.035 61.9033 67.3917 63.6859 67.2298C65.4684 67.0679 69.437 64.8797 70.2463 62.6096C71.0556 60.3395 71.0556 58.3951 70.8138 57.9894C70.57 57.5837 69.9226 57.342 68.9514 56.8544C67.9803 56.3667 63.2003 54.0167 62.309 53.693C61.4178 53.3692 60.7703 53.2074 60.1208 54.1806C59.4734 55.1518 57.611 57.342 57.0434 57.9894C56.4759 58.6389 55.9084 58.7209 54.9372 58.2332C53.9661 57.7456 50.8354 56.7212 47.1208 53.4102C44.2319 50.8348 42.2814 47.6529 41.7139 46.6797C41.1463 45.7085 41.6524 45.182 42.14 44.6964C42.5764 44.26 43.1112 43.5613 43.5988 42.9938C44.0844 42.4263 44.2462 42.0206 44.57 41.3732C44.8937 40.7237 44.7318 40.1561 44.488 39.6705C44.2483 39.1829 42.3592 34.3763 41.4946 32.4545Z" fill="#ffffff" fill-rule="evenodd" opacity="1" stroke="none"/>
</g>
</g>
<g id="Layer-2" vectornator:layerName="Layer 2">
<g opacity="1">
<g opacity="1">
<path d="M69.9823 15.1331C66.1856 15.1331 62.3872 16.58 59.4967 19.4705L51.8747 27.0925C47.0909 31.8763 46.2504 39.1328 49.3901 44.779L44.8001 49.4112C39.1539 46.2714 31.8553 47.0698 27.0715 51.8536L19.4916 59.4756C16.6887 62.2785 15.1121 65.9994 15.1121 69.9612C15.1121 73.923 16.6887 77.6439 19.4916 80.4468L21.3866 82.3417C24.2703 85.239 28.072 86.6791 31.8721 86.6791C35.6587 86.6791 39.4604 85.239 42.3577 82.3417L49.9376 74.7197C54.7214 69.9359 55.5619 62.6794 52.4221 57.0332L57.0122 52.4011C59.2491 53.6543 61.7623 54.296 64.2552 54.296C68.0553 54.296 71.8435 52.8559 74.7408 49.9586L82.3628 42.3366C85.1657 39.5337 86.7002 35.8128 86.7002 31.8511C86.7002 27.8893 85.1657 24.1684 82.3628 21.3655L80.4678 19.4705C77.5773 16.58 73.779 15.1331 69.9823 15.1331Z" fill="#000000" fill-rule="evenodd" opacity="0.35" stroke="none"/>
<path d="M68.17 13.3209C64.3733 13.3209 60.5749 14.7678 57.6844 17.6583L50.0624 25.2803C45.2786 30.0641 44.4381 37.3206 47.5779 42.9668L42.9878 47.5989C37.3416 44.4592 30.043 45.2576 25.2592 50.0414L17.6793 57.6634C14.8764 60.4663 13.2998 64.1872 13.2998 68.1489C13.2998 72.1107 14.8764 75.8316 17.6793 78.6345L19.5743 80.5295C22.458 83.4267 26.2598 84.8669 30.0599 84.8669C33.8464 84.8669 37.6482 83.4267 40.5454 80.5295L48.1253 72.9075C52.9091 68.1237 53.7496 60.8672 50.6099 55.221L55.1999 50.5888C57.4368 51.842 59.95 52.4838 62.443 52.4838C66.243 52.4838 70.0313 51.0436 72.9285 48.1464L80.5505 40.5244C83.3534 37.7215 84.8879 34.0006 84.8879 30.0388C84.8879 26.077 83.3534 22.3561 80.5505 19.5532L78.6556 17.6583C75.7651 14.7678 71.9667 13.3209 68.17 13.3209Z" fill="#ffffff" fill-rule="evenodd" opacity="1" stroke="none"/>
</g>
<path d="M46.2405 71.0024L38.6134 78.6294C33.8835 83.3593 26.189 83.3593 21.4592 78.6294L19.5591 76.7294C17.2683 74.4386 16.0016 71.3931 16.0016 68.1456C16.0016 64.9115 17.2683 61.866 19.5591 59.5752L27.1862 51.9481C29.477 49.6573 32.5225 48.4041 35.7566 48.4041C37.5892 48.4041 39.368 48.8084 40.9716 49.5899L36.6999 53.8616C36.3899 53.8212 36.08 53.7943 35.7566 53.7943C33.9509 53.7943 32.2664 54.495 30.9998 55.7617L23.3727 63.3888C22.0925 64.6554 21.3918 66.3533 21.3918 68.1456C21.3918 69.9513 22.0925 71.6357 23.3727 72.9159L25.2727 74.8159C26.5933 76.1365 28.3182 76.7833 30.043 76.7833C31.7679 76.7833 33.4927 76.1365 34.7998 74.8159L42.4269 67.2023C43.6936 65.9221 44.3943 64.2377 44.3943 62.432C44.3943 62.1086 44.3674 61.7987 44.3269 61.4887L48.5986 57.217C49.3802 58.8206 49.7845 60.5993 49.7845 62.432C49.7845 65.6661 48.5313 68.7115 46.2405 71.0024Z" fill="#70bfff" fill-rule="evenodd" opacity="1" stroke="#40396e" stroke-linecap="butt" stroke-linejoin="miter" stroke-width="1.5"/>
<path d="M54.8647 47.1374L52.9647 49.0374L52.9647 49.0374L49.0568 52.9453L49.0568 52.9453L47.1433 54.8588L47.1433 54.8588L43.2759 58.7263L43.2759 58.7263L41.3084 60.6937L41.3084 60.6937L40.5269 61.4752C40.0148 61.9873 39.3141 62.2433 38.6134 62.2433C37.9126 62.2433 37.2119 61.9873 36.7133 61.4752C36.2013 60.9632 35.9183 60.2894 35.9183 59.5752C35.9183 58.8475 36.2013 58.1738 36.7133 57.6617L37.4949 56.8801L39.4623 54.9127L43.3298 51.0453L45.2433 49.1318L49.1377 45.2374L49.1377 45.2374L51.0512 43.3239L54.9186 39.4564L56.886 37.489L56.886 37.489L57.6676 36.7074C58.1797 36.1954 58.8534 35.9124 59.5811 35.9124C60.2953 35.9124 60.9691 36.1954 61.4811 36.7074C61.9932 37.2195 62.2762 37.8933 62.2762 38.6075C62.2762 39.3351 61.9932 40.0089 61.4811 40.521L60.6996 41.3026L60.6996 41.3026L58.7322 43.27L54.8647 47.1374Z" fill="#70bfff" fill-rule="evenodd" opacity="1" stroke="#40396e" stroke-linecap="butt" stroke-linejoin="miter" stroke-width="1.5"/>
<path d="M78.6353 38.6075L71.0083 46.2346C68.7174 48.5254 65.672 49.7786 62.4379 49.7786C60.6052 49.7786 58.8265 49.3743 57.2229 48.5928L61.4946 44.321C61.8046 44.3615 62.1145 44.3884 62.4379 44.3884C64.2436 44.3884 65.928 43.6877 67.1947 42.421L74.8218 34.7939C76.102 33.5272 76.8027 31.8293 76.8027 30.0371C76.8027 28.2314 76.102 26.547 74.8218 25.2668L72.9218 23.3668C70.2941 20.7391 66.0089 20.7391 63.3946 23.3668L55.7676 30.9804C54.5009 32.2606 53.8002 33.945 53.8002 35.7507C53.8002 36.0741 53.8271 36.384 53.8675 36.694L49.5958 40.9657C48.8143 39.3621 48.41 37.5833 48.41 35.7507C48.41 32.5166 49.6632 29.4711 51.954 27.1803L59.5811 19.5532C64.311 14.8234 72.0054 14.8234 76.7353 19.5532L78.6353 21.4533C80.9262 23.7441 82.1928 26.7895 82.1928 30.0371C82.1929 33.2712 80.9262 36.3167 78.6353 38.6075Z" fill="#70bfff" fill-rule="evenodd" opacity="1" stroke="#40396e" stroke-linecap="butt" stroke-linejoin="miter" stroke-width="1.5"/>
</g>
</g>
</svg>
