<?xml version="1.0" encoding="UTF-8" standalone="no"?>
<!DOCTYPE svg PUBLIC "-//W3C//DTD SVG 1.1//EN" "http://www.w3.org/Graphics/SVG/1.1/DTD/svg11.dtd">

<!-- Created with Vectornator (http://vectornator.io/) -->
<svg height="100%" stroke-miterlimit="10" style="fill-rule:nonzero;clip-rule:evenodd;stroke-linecap:round;stroke-linejoin:round;" version="1.1" viewBox="0 0 16 16" width="100%" xml:space="preserve" xmlns="http://www.w3.org/2000/svg" xmlns:vectornator="http://vectornator.io" xmlns:xlink="http://www.w3.org/1999/xlink">
<metadata>
<vectornator:setting key="IsTimeLapseWatermarkDisabled" value="false"/>
<vectornator:setting key="UndoHistoryDisabled" value="true"/>
<vectornator:setting key="VNDimensionsVisible" value="true"/>
<vectornator:setting key="VNSnapToGuides" value="true"/>
<vectornator:setting key="WDCMYKEnabledKey" value="false"/>
<vectornator:setting key="WDDisplayWhiteBackground" value="false"/>
<vectornator:setting key="WDDynamicGuides" value="false"/>
<vectornator:setting key="WDGuidesVisible" value="true"/>
<vectornator:setting key="WDIsolateActiveLayer" value="false"/>
<vectornator:setting key="WDOutlineMode" value="false"/>
<vectornator:setting key="WDRulersVisible" value="true"/>
<vectornator:setting key="WDSnapToEdges" value="false"/>
<vectornator:setting key="WDSnapToGrid" value="false"/>
<vectornator:setting key="WDSnapToPoints" value="false"/>
<vectornator:setting key="WDUnits" value="Pixels"/>
</metadata>
<defs>
<linearGradient gradientTransform="matrix(0 -0.186921 0.186921 0 -211.04 -314.198)" gradientUnits="userSpaceOnUse" id="LinearGradient" x1="-1742.12" x2="-1701.33" y1="1186.31" y2="1186.31">
<stop offset="0" stop-color="#1e76ba"/>
<stop offset="0.2397" stop-color="#1d71b7"/>
<stop offset="0.5427" stop-color="#2261ab"/>
<stop offset="0.8783" stop-color="#284897"/>
<stop offset="1" stop-color="#2b3c8f"/>
</linearGradient>
<linearGradient gradientTransform="matrix(0 -0.186921 -0.186921 0 -194.479 -314.198)" gradientUnits="userSpaceOnUse" id="LinearGradient_2" x1="-1721.72" x2="-1721.72" y1="-1054.36" y2="-1083.33">
<stop offset="0" stop-color="#29aae1"/>
<stop offset="0.4705" stop-color="#2aa7df"/>
<stop offset="0.6669" stop-color="#2aa1db"/>
<stop offset="0.8122" stop-color="#2694d2"/>
<stop offset="0.9317" stop-color="#2284c4"/>
<stop offset="1" stop-color="#1e76ba"/>
</linearGradient>
<linearGradient gradientTransform="matrix(0.0314278 0.181743 -0.181743 0.0314278 19.8695 -5.5886)" gradientUnits="userSpaceOnUse" id="LinearGradient_3" x1="62.2715" x2="62.2715" y1="115.912" y2="35.5527">
<stop offset="0" stop-color="#19b5ea"/>
<stop offset="0.3481" stop-color="#1d71b7"/>
<stop offset="0.5427" stop-color="#2261ab"/>
<stop offset="0.8783" stop-color="#284897"/>
<stop offset="1" stop-color="#2b3c8f"/>
</linearGradient>
<linearGradient gradientTransform="matrix(1.23809 0 0 1.23809 -6.38492 -0.984547)" gradientUnits="userSpaceOnUse" id="LinearGradient_4" x1="8.03125" x2="13.6562" y1="9.625" y2="9.625">
<stop offset="0" stop-color="#1e76ba"/>
<stop offset="0.2397" stop-color="#1d71b7"/>
<stop offset="0.5427" stop-color="#2261ab"/>
<stop offset="0.8783" stop-color="#284897"/>
<stop offset="1" stop-color="#2b3c8f"/>
</linearGradient>
<linearGradient gradientTransform="matrix(1 0 0 1 0 0)" gradientUnits="userSpaceOnUse" id="LinearGradient_5" x1="5.48696" x2="12.4388" y1="10.9432" y2="10.9432">
<stop offset="0" stop-color="#ff0000"/>
<stop offset="0" stop-color="#ff0000"/>
<stop offset="0" stop-color="#ff0000"/>
<stop offset="0" stop-color="#573876"/>
<stop offset="0" stop-color="#ff0000"/>
<stop offset="0" stop-color="#ff0000"/>
<stop offset="0" stop-color="#b00101"/>
<stop offset="1" stop-color="#5a0202"/>
</linearGradient>
</defs>
<g id="Layer-1" vectornator:layerName="Layer 1">
<g opacity="0">
<path d="M8.09576 0.554893C3.9614 0.554893 0.611245 3.90505 0.611246 8.0394C0.611246 12.1738 3.9614 15.5239 8.09576 15.5239C12.2301 15.5239 15.5803 12.1738 15.5803 8.0394C15.5803 3.90505 12.2301 0.554892 8.09576 0.554893ZM8.09576 1.2987C11.8193 1.2987 14.8365 4.31584 14.8365 8.0394C14.8365 11.763 11.8193 14.7801 8.09576 14.7801C4.37219 14.7801 1.35505 11.763 1.35505 8.0394C1.35505 4.31584 4.37219 1.29869 8.09576 1.2987Z" fill="#00a2ed" fill-rule="evenodd" opacity="1" stroke="none"/>
<path d="M5.20115 6.51681C4.34903 6.51681 3.65825 7.20759 3.65825 8.05971C3.65825 8.91183 4.34903 9.60262 5.20115 9.60262C6.05328 9.60262 6.74406 8.91183 6.74406 8.05971C6.74406 7.20759 6.05328 6.51681 5.20115 6.51681ZM9.91304 3.77227C9.0607 3.77198 8.3696 4.46285 8.3696 5.31518C8.3696 6.16751 9.0607 6.85838 9.91304 6.85808C10.7654 6.85838 11.4565 6.16751 11.4565 5.31518C11.4565 4.46285 10.7654 3.77198 9.91304 3.77227ZM9.91304 9.20972C9.06091 9.20972 8.37013 9.9005 8.37013 10.7526C8.37013 11.6047 9.06091 12.2955 9.91304 12.2955C10.7652 12.2955 11.4559 11.6047 11.4559 10.7526C11.4559 9.9005 10.7652 9.20972 9.91304 9.20972Z" fill="#00a2ed" fill-rule="evenodd" opacity="1" stroke="none"/>
<path d="M9.70471 4.90622L10.1218 5.62244L5.41062 8.36595L4.99354 7.64973L9.70471 4.90622Z" fill="#00a2ed" fill-rule="evenodd" opacity="1" stroke="none"/>
<path d="M5.41037 7.65018L10.1215 10.3937L9.70446 11.1099L4.99329 8.36639L5.41037 7.65018Z" fill="#00a2ed" fill-rule="evenodd" opacity="1" stroke="none"/>
</g>
<g opacity="0">
<path d="M3.80955 7.66674C3.80958 7.50507 3.87401 7.35008 3.9886 7.23605C4.10319 7.12201 4.2585 7.05833 4.42016 7.05908L5.43248 7.06239C5.76861 7.06239 6.04109 7.33487 6.04109 7.67099L6.04109 11.4991C6.1551 11.4653 6.30102 11.4293 6.46159 11.3915C6.69062 11.3376 6.8525 11.1332 6.85255 10.898L6.85255 6.14978C6.85255 5.81364 7.12502 5.54113 7.46116 5.54106L8.47655 5.54106C8.8127 5.54113 9.08516 5.81364 9.08516 6.14978L9.08516 10.5569C9.08516 10.5569 9.33918 10.4541 9.58648 10.3496C9.77434 10.2702 9.89647 10.0861 9.89662 9.88209L9.89662 4.62822C9.89662 4.29214 10.169 4.01968 10.5051 4.01962L11.5194 4.01962C11.8553 4.01995 12.1275 4.29233 12.1275 4.62822L12.1275 8.95459C13.0069 8.31728 13.8981 7.55071 14.6053 6.62901C14.8138 6.35726 14.8721 5.99916 14.7608 5.67528C13.8679 3.10641 11.5975 1.26462 8.89968 0.920699C6.20189 0.576777 3.54198 1.79004 2.03313 4.05273C0.524288 6.31542 0.426708 9.23733 1.78123 11.5956C1.95788 11.9002 2.29497 12.0748 2.64563 12.0434C2.83751 12.0265 3.07641 12.0027 3.36045 11.9694C3.61636 11.9402 3.80975 11.7238 3.81002 11.4663L3.81002 7.66674" fill="#00a2ed" fill-rule="evenodd" opacity="1" stroke="none"/>
<path d="M3.78793 13.806C5.96803 15.392 8.85376 15.6204 11.2562 14.3969C13.6585 13.1735 15.1711 10.7053 15.1706 8.00938C15.1706 7.84397 15.1629 7.68115 15.1519 7.51881C12.5333 11.4243 7.69829 13.2501 3.78793 13.806" fill="#00a2ed" fill-rule="evenodd" opacity="1" stroke="none"/>
</g>
<g opacity="0">
<path d="M9.30482 15.4348C5.21799 16.1421 1.33135 13.4018 0.624604 9.3139C-0.0821425 5.22688 2.65811 1.34043 6.74532 0.633493C10.832-0.0734403 14.719 2.66681 15.4261 6.75402C16.1327 10.8416 13.3924 14.7284 9.30482 15.4348Z" fill="#ffffff" fill-rule="evenodd" opacity="1" stroke="none"/>
<g opacity="1">
<path d="M8.01245 8.24471L13.421 11.4397L7.99264 3.81637L8.01245 8.24471Z" fill="url(#LinearGradient)" fill-rule="evenodd" opacity="1" stroke="none"/>
<path d="M8.01694 8.24471L2.60204 11.4397L7.99226 3.81637L8.01694 8.24471Z" fill="url(#LinearGradient_2)" fill-rule="evenodd" opacity="1" stroke="none"/>
</g>
</g>
<g opacity="0">
<path d="M9.32572 15.4112C5.29303 16.1081 1.45788 13.4043 0.760528 9.37127C0.0631763 5.33877 2.767 1.5038 6.80005 0.806631C10.8326 0.108727 14.6677 2.81255 15.3652 6.84579C16.0626 10.879 13.3584 14.7133 9.32572 15.4112Z" fill="url(#LinearGradient_3)" fill-rule="evenodd" opacity="1" stroke="none"/>
<g opacity="1">
<path d="M8.24345 8.27553L13.444 11.2167L8.22445 4.19932L8.24345 8.27553Z" fill="#c0bfbf" fill-rule="evenodd" opacity="1" stroke="none"/>
<path d="M8.24806 8.27553L3.04144 11.2167L8.22427 4.19969L8.24806 8.27553Z" fill="#ffffff" fill-rule="evenodd" opacity="1" stroke="none"/>
</g>
</g>
<g opacity="1">
<path d="M7.98221 0.0838973L3.55851 6.07087L3.55851 10.5944L3.55851 15.2509C3.55851 15.6257 3.99697 15.9161 4.52308 15.9161L8.04873 15.9161L11.4746 15.9161C12.0007 15.9161 12.4392 15.6258 12.4392 15.2509L12.4392 10.5944L12.4392 6.07087L7.98221 0.0838973ZM7.98221 1.58064C8.41423 1.58064 8.78048 1.91362 8.78048 2.34564C8.78048 2.77766 8.41423 3.1439 7.98221 3.1439C7.55019 3.1439 7.21721 2.77766 7.21721 2.34564C7.21721 1.91362 7.5502 1.58064 7.98221 1.58064Z" fill="#00a2ed" fill-rule="evenodd" opacity="1" stroke="none"/>
<path d="M3.55851 6.0571L3.55851 10.4678L3.55851 15.1107C3.55851 15.4855 3.99967 15.8071 4.52577 15.8071L8.04659 15.8071L10.5228 15.8071L3.55851 6.0571Z" fill="url(#LinearGradient_4)" fill-rule="evenodd" opacity="0.5" stroke="none"/>
</g>
<g opacity="0">
<path d="M6.25331 9.06363L5.55689 9.06363L5.55689 9.78303L5.19416 9.78303L5.19416 8.02261L6.34037 8.02261L6.34037 8.31642L5.55689 8.31642L5.55689 8.77103L6.25331 8.77103L6.25331 9.06363Z" fill="#ffffff" fill-rule="evenodd" opacity="1" stroke="none"/>
<path d="M8.61585 8.94272C8.61585 9.07733 8.59771 9.19803 8.56144 9.30484C8.52516 9.41164 8.47418 9.50212 8.40849 9.57627C8.3428 9.65043 8.264 9.70746 8.17212 9.74736C8.08023 9.78726 7.97907 9.80721 7.86864 9.80721C7.75821 9.80721 7.65705 9.78726 7.56516 9.74736C7.47327 9.70746 7.39408 9.65043 7.32758 9.57627C7.26108 9.50212 7.20929 9.41164 7.17221 9.30484C7.13513 9.19803 7.11659 9.07733 7.11659 8.94272L7.11659 8.86534C7.11659 8.73153 7.13493 8.61103 7.17161 8.50382C7.20828 8.39662 7.25967 8.30554 7.32576 8.23057C7.39186 8.15561 7.47085 8.09818 7.56274 8.05828C7.65463 8.01838 7.75579 7.99843 7.86622 7.99843C7.97665 7.99843 8.07781 8.01838 8.1697 8.05828C8.26159 8.09818 8.34058 8.15561 8.40668 8.23057C8.47277 8.30554 8.52416 8.39662 8.56083 8.50382C8.59751 8.61103 8.61585 8.73153 8.61585 8.86534L8.61585 8.94272ZM8.24829 8.86292C8.24829 8.67833 8.21524 8.53808 8.14914 8.44216C8.08305 8.34624 7.98874 8.29828 7.86622 8.29828C7.7437 8.29828 7.64939 8.34624 7.5833 8.44216C7.5172 8.53808 7.48415 8.67833 7.48415 8.86292L7.48415 8.94272C7.48415 9.03461 7.49282 9.11582 7.51015 9.18635C7.52748 9.25688 7.55246 9.31612 7.58511 9.36408C7.61775 9.41204 7.65786 9.44831 7.70541 9.4729C7.75297 9.49748 7.80738 9.50977 7.86864 9.50977C7.99116 9.50977 8.08506 9.46141 8.15035 9.36469C8.21564 9.26796 8.24829 9.1273 8.24829 8.94272L8.24829 8.86292Z" fill="#ffffff" fill-rule="evenodd" opacity="1" stroke="none"/>
<path d="M10.1502 9.13859L9.86119 9.13859L9.86119 9.78303L9.49847 9.78303L9.49847 8.02261L10.1526 8.02261C10.2541 8.02261 10.3452 8.0341 10.4258 8.05707C10.5064 8.08004 10.5745 8.1139 10.6302 8.15863C10.6858 8.20337 10.7285 8.25879 10.7583 8.32488C10.7881 8.39098 10.8031 8.46755 10.8031 8.55461C10.8031 8.61909 10.7958 8.67692 10.7813 8.72811C10.7668 8.77929 10.7458 8.82483 10.7184 8.86473C10.691 8.90463 10.658 8.93949 10.6193 8.96932C10.5806 8.99914 10.5371 9.02494 10.4887 9.0467L10.8696 9.7661L10.8696 9.78303L10.4802 9.78303L10.1502 9.13859ZM9.86119 8.84478L10.1538 8.84478C10.2013 8.84478 10.2431 8.83854 10.2789 8.82604C10.3148 8.81355 10.3446 8.79582 10.3684 8.77284C10.3922 8.74987 10.4101 8.72247 10.4222 8.69063C10.4343 8.65879 10.4403 8.62312 10.4403 8.58362C10.4403 8.5006 10.4168 8.43531 10.3696 8.38775C10.3225 8.3402 10.2501 8.31642 10.1526 8.31642L9.86119 8.31642L9.86119 8.84478Z" fill="#ffffff" fill-rule="evenodd" opacity="1" stroke="none"/>
<path d="M5.56172 12.6848L5.56172 10.9244L6.17835 10.9244C6.28072 10.9244 6.37221 10.9341 6.45281 10.9534C6.53342 10.9728 6.60173 11.0024 6.65775 11.0423C6.71377 11.0822 6.75649 11.1324 6.78591 11.1928C6.81533 11.2533 6.83004 11.3246 6.83004 11.4068C6.83004 11.4471 6.825 11.4858 6.81493 11.5229C6.80485 11.56 6.78954 11.5946 6.76898 11.6269C6.74843 11.6591 6.72243 11.6883 6.691 11.7145C6.65956 11.7407 6.62208 11.7623 6.57856 11.7792C6.63014 11.7921 6.67427 11.8117 6.71095 11.8378C6.74762 11.864 6.77785 11.8945 6.80163 11.9291C6.82541 11.9638 6.84274 12.0015 6.85362 12.0422C6.8645 12.0829 6.86994 12.1246 6.86994 12.1673C6.86994 12.3382 6.81493 12.4672 6.7049 12.5542C6.59488 12.6413 6.4383 12.6848 6.23518 12.6848L5.56172 12.6848ZM5.92445 11.9183L5.92445 12.3934L6.23518 12.3934C6.28193 12.3934 6.32223 12.3876 6.35609 12.3759C6.38994 12.3642 6.41815 12.3481 6.44072 12.3275C6.46329 12.307 6.48002 12.2828 6.4909 12.255C6.50178 12.2272 6.50722 12.1967 6.50722 12.1637C6.50722 12.1258 6.50238 12.0918 6.49271 12.0615C6.48304 12.0313 6.46792 12.0055 6.44737 11.9841C6.42682 11.9628 6.40002 11.9465 6.36697 11.9352C6.33392 11.9239 6.29442 11.9183 6.24848 11.9183L5.92445 11.9183ZM5.92445 11.6619L6.19286 11.6619C6.28556 11.6603 6.35447 11.6408 6.39961 11.6033C6.44475 11.5658 6.46732 11.5124 6.46732 11.4431C6.46732 11.3633 6.44415 11.3059 6.3978 11.2708C6.35145 11.2357 6.2783 11.2182 6.17835 11.2182L5.92445 11.2182L5.92445 11.6619Z" fill="#ffffff" fill-rule="evenodd" opacity="1" stroke="none"/>
<path d="M8.14672 12.6848L7.784 12.6848L7.784 10.9244L8.14672 10.9244L8.14672 12.6848Z" fill="#ffffff" fill-rule="evenodd" opacity="1" stroke="none"/>
<path d="M9.10189 12.6848L9.10189 10.9244L9.64356 10.9244C9.76205 10.9244 9.87066 10.9447 9.9694 10.9854C10.0681 11.0262 10.1528 11.0834 10.2233 11.1571C10.2938 11.2309 10.3489 11.3194 10.3883 11.4225C10.4278 11.5257 10.4476 11.6402 10.4476 11.7659L10.4476 11.8457C10.4476 11.9715 10.428 12.0857 10.389 12.1885C10.3499 12.2913 10.2946 12.3795 10.2233 12.4533C10.152 12.527 10.0667 12.584 9.96759 12.6244C9.86845 12.6647 9.75923 12.6848 9.63993 12.6848L9.10189 12.6848ZM9.46462 11.2182L9.46462 12.3934L9.63993 12.3934C9.78341 12.3934 9.89263 12.3461 9.96759 12.2514C10.0426 12.1566 10.08 12.0214 10.08 11.8457L10.08 11.7635C10.08 11.5845 10.043 11.4489 9.9688 11.3566C9.89464 11.2643 9.78623 11.2182 9.64356 11.2182L9.46462 11.2182Z" fill="#ffffff" fill-rule="evenodd" opacity="1" stroke="none"/>
</g>
<g opacity="0">
<g opacity="1">
<path d="M4.06261 8.16643L4.06261 8.45879L3.89164 8.45879L3.89164 7.62901L4.21534 7.62901C4.26435 7.62901 4.30814 7.63584 4.3467 7.64952C4.38527 7.6632 4.41794 7.68229 4.44473 7.7068C4.47151 7.7313 4.49194 7.76037 4.50599 7.79399C4.52005 7.82762 4.52708 7.86419 4.52708 7.9037C4.52708 7.94397 4.52005 7.98026 4.50599 8.01255C4.49194 8.04485 4.47151 8.07239 4.44473 8.09519C4.41794 8.11798 4.38527 8.13556 4.3467 8.1479C4.30814 8.16025 4.26435 8.16643 4.21534 8.16643L4.06261 8.16643ZM4.06261 8.02794L4.21534 8.02794C4.23966 8.02794 4.26065 8.0249 4.27832 8.01882C4.29598 8.01274 4.31042 8.00429 4.32163 7.99346C4.33284 7.98263 4.3411 7.96962 4.34642 7.95442C4.35174 7.93922 4.3544 7.9227 4.3544 7.90484C4.3544 7.88698 4.35174 7.86979 4.34642 7.85326C4.3411 7.83674 4.33284 7.82211 4.32163 7.80938C4.31042 7.79665 4.29598 7.78649 4.27832 7.77889C4.26065 7.77129 4.23966 7.76749 4.21534 7.76749L4.06261 7.76749L4.06261 8.02794Z" fill="#ffffff" fill-rule="evenodd" opacity="1" stroke="none"/>
<path d="M5.46704 7.62901L5.46704 8.17668C5.46704 8.22456 5.45906 8.26682 5.44311 8.30349C5.42715 8.34015 5.40511 8.37083 5.377 8.39553C5.34888 8.42022 5.31535 8.43884 5.27641 8.45138C5.23747 8.46392 5.19501 8.47019 5.14904 8.47019C5.10268 8.47019 5.06003 8.46392 5.02109 8.45138C4.98215 8.43884 4.94862 8.42022 4.9205 8.39553C4.89239 8.37083 4.87045 8.34015 4.85468 8.30349C4.83891 8.26682 4.83103 8.22456 4.83103 8.17668L4.83103 7.62901L5.002 7.62901L5.002 8.17668C5.002 8.23102 5.01501 8.27062 5.04104 8.29551C5.06706 8.3204 5.10306 8.33284 5.14904 8.33284C5.19539 8.33284 5.23139 8.3204 5.25703 8.29551C5.28268 8.27062 5.2955 8.23102 5.2955 8.17668L5.2955 7.62901L5.46704 7.62901Z" fill="#ffffff" fill-rule="evenodd" opacity="1" stroke="none"/>
<path d="M6.10894 8.15503L5.97274 8.15503L5.97274 8.45879L5.80177 8.45879L5.80177 7.62901L6.11008 7.62901C6.15796 7.62901 6.20089 7.63442 6.23888 7.64525C6.27688 7.65608 6.30898 7.67203 6.3352 7.69312C6.36141 7.71421 6.38155 7.74033 6.39561 7.77148C6.40966 7.80264 6.41669 7.83873 6.41669 7.87976C6.41669 7.91016 6.41327 7.93742 6.40643 7.96155C6.3996 7.98567 6.38972 8.00714 6.3768 8.02594C6.36388 8.04475 6.3483 8.06118 6.33007 8.07524C6.31183 8.0893 6.29131 8.10146 6.26852 8.11172L6.44804 8.45081L6.44804 8.45879L6.26453 8.45879L6.10894 8.15503ZM5.97274 8.01654L6.11065 8.01654C6.13307 8.01654 6.15273 8.0136 6.16964 8.00771C6.18655 8.00182 6.2006 7.99346 6.21181 7.98263C6.22302 7.9718 6.23147 7.95889 6.23717 7.94388C6.24287 7.92887 6.24572 7.91206 6.24572 7.89344C6.24572 7.85431 6.23461 7.82353 6.21238 7.80112C6.19016 7.7787 6.15606 7.76749 6.11008 7.76749L5.97274 7.76749L5.97274 8.01654Z" fill="#ffffff" fill-rule="evenodd" opacity="1" stroke="none"/>
<path d="M7.39256 8.18238C7.38952 8.22456 7.38002 8.26331 7.36406 8.29864C7.34811 8.33398 7.32607 8.36428 7.29796 8.38954C7.26984 8.41481 7.23574 8.43457 7.19566 8.44881C7.15557 8.46306 7.10989 8.47019 7.0586 8.47019C7.0054 8.47019 6.95763 8.46097 6.91526 8.44254C6.8729 8.42412 6.837 8.39762 6.80755 8.36304C6.77811 8.32847 6.7555 8.28658 6.73973 8.23738C6.72397 8.18818 6.71608 8.13299 6.71608 8.07182L6.71608 8.01711C6.71608 7.95594 6.72425 7.90066 6.74059 7.85127C6.75693 7.80188 6.78001 7.75989 6.80983 7.72532C6.83966 7.69075 6.87585 7.66415 6.9184 7.64553C6.96095 7.62692 7.00844 7.61761 7.06088 7.61761C7.11255 7.61761 7.15823 7.62492 7.19794 7.63955C7.23764 7.65418 7.27136 7.6745 7.2991 7.70053C7.32683 7.72655 7.34849 7.75752 7.36406 7.79342C7.37964 7.82933 7.38952 7.86837 7.3937 7.91054L7.22273 7.91054C7.22083 7.88584 7.21655 7.864 7.20991 7.845C7.20326 7.826 7.19366 7.81005 7.18112 7.79713C7.16859 7.78421 7.15244 7.77443 7.13268 7.76778C7.11293 7.76113 7.08899 7.7578 7.06088 7.7578C7.00312 7.7578 6.9601 7.7788 6.93179 7.82078C6.90349 7.86276 6.88933 7.92783 6.88933 8.01597L6.88933 8.07182C6.88933 8.11475 6.89247 8.15237 6.89874 8.18466C6.90501 8.21696 6.91488 8.24393 6.92837 8.26559C6.94186 8.28725 6.95934 8.30349 6.9808 8.31432C7.00227 8.32514 7.0282 8.33056 7.0586 8.33056C7.08557 8.33056 7.10884 8.32752 7.12841 8.32144C7.14798 8.31536 7.16431 8.30615 7.17742 8.2938C7.19053 8.28145 7.20069 8.26597 7.20791 8.24735C7.21513 8.22874 7.21969 8.20708 7.22159 8.18238L7.39256 8.18238Z" fill="#ffffff" fill-rule="evenodd" opacity="1" stroke="none"/>
<path d="M8.3747 8.45879L8.20372 8.45879L8.20372 8.10317L7.87033 8.10317L7.87033 8.45879L7.69936 8.45879L7.69936 7.62901L7.87033 7.62901L7.87033 7.96525L8.20372 7.96525L8.20372 7.62901L8.3747 7.62901L8.3747 8.45879Z" fill="#ffffff" fill-rule="evenodd" opacity="1" stroke="none"/>
<path d="M9.19726 8.28782L8.89749 8.28782L8.8405 8.45879L8.6587 8.45879L8.96759 7.62901L9.12602 7.62901L9.43662 8.45879L9.25482 8.45879L9.19726 8.28782ZM8.94365 8.14933L9.1511 8.14933L9.0468 7.83873L8.94365 8.14933Z" fill="#ffffff" fill-rule="evenodd" opacity="1" stroke="none"/>
<path d="M10.1389 8.24108C10.1389 8.22665 10.1368 8.21363 10.1327 8.20205C10.1285 8.19046 10.1204 8.17972 10.1084 8.16985C10.0965 8.15997 10.0799 8.15028 10.0589 8.14078C10.0378 8.13128 10.0105 8.12121 9.97708 8.11058C9.93908 8.09842 9.90327 8.08474 9.86965 8.06954C9.83603 8.05434 9.80658 8.03639 9.78131 8.01569C9.75605 7.99498 9.7361 7.97114 9.72147 7.94416C9.70685 7.91719 9.69953 7.88565 9.69953 7.84956C9.69953 7.81498 9.70704 7.78336 9.72204 7.75467C9.73705 7.72598 9.75814 7.70157 9.7853 7.68144C9.81247 7.6613 9.84476 7.64563 9.88219 7.63442C9.91961 7.62321 9.96074 7.61761 10.0056 7.61761C10.0515 7.61761 10.0933 7.62397 10.131 7.6367C10.1686 7.64943 10.2007 7.66719 10.2273 7.68999C10.2539 7.71278 10.2744 7.73985 10.2888 7.7712C10.3033 7.80254 10.3105 7.83683 10.3105 7.87406L10.1395 7.87406C10.1395 7.85659 10.1367 7.84044 10.1312 7.82562C10.1257 7.81081 10.1173 7.79808 10.1059 7.78744C10.0945 7.7768 10.0802 7.76854 10.0631 7.76265C10.046 7.75676 10.0259 7.75382 10.0027 7.75382C9.98031 7.75382 9.96083 7.75628 9.94431 7.76122C9.92778 7.76616 9.9141 7.773 9.90327 7.78174C9.89245 7.79048 9.88428 7.80074 9.87877 7.81252C9.87326 7.82429 9.8705 7.83683 9.8705 7.85013C9.8705 7.87748 9.88447 7.90038 9.91239 7.9188C9.94032 7.93723 9.98126 7.95442 10.0352 7.97038C10.0804 7.98444 10.1202 8.00001 10.1546 8.01711C10.189 8.03421 10.2177 8.05358 10.2407 8.07524C10.2636 8.0969 10.281 8.12121 10.2928 8.14819C10.3046 8.17516 10.3105 8.20575 10.3105 8.23994C10.3105 8.27642 10.3033 8.3089 10.2891 8.3374C10.2749 8.36589 10.2546 8.38992 10.2284 8.40949C10.2022 8.42906 10.1706 8.44406 10.1335 8.45451C10.0965 8.46496 10.0552 8.47019 10.0096 8.47019C9.98221 8.47019 9.95485 8.46781 9.9275 8.46306C9.90014 8.45831 9.87402 8.451 9.84913 8.44112C9.82425 8.43124 9.80117 8.41889 9.77989 8.40408C9.75861 8.38926 9.74009 8.37178 9.72432 8.35165C9.70856 8.33151 9.69621 8.30862 9.68728 8.28297C9.67835 8.25733 9.67389 8.22893 9.67389 8.19777L9.84543 8.19777C9.84543 8.22285 9.84942 8.24412 9.8574 8.2616C9.86538 8.27908 9.87649 8.29323 9.89074 8.30406C9.90498 8.31489 9.92218 8.32277 9.94231 8.32771C9.96245 8.33265 9.98487 8.33512 10.0096 8.33512C10.0316 8.33512 10.0508 8.33274 10.0671 8.32799C10.0835 8.32324 10.0969 8.31669 10.1076 8.30833C10.1182 8.29997 10.1261 8.29 10.1312 8.27841C10.1364 8.26682 10.1389 8.25438 10.1389 8.24108Z" fill="#ffffff" fill-rule="evenodd" opacity="1" stroke="none"/>
<path d="M11.1199 8.09918L10.7917 8.09918L10.7917 8.32144L11.1769 8.32144L11.1769 8.45879L10.6207 8.45879L10.6207 7.62901L11.1758 7.62901L11.1758 7.76749L10.7917 7.76749L10.7917 7.96525L11.1199 7.96525L11.1199 8.09918Z" fill="#ffffff" fill-rule="evenodd" opacity="1" stroke="none"/>
<path d="M11.4717 8.45879L11.4717 7.62901L11.7271 7.62901C11.7829 7.62901 11.8341 7.6386 11.8807 7.65779C11.9272 7.67697 11.9671 7.70395 12.0003 7.73871C12.0336 7.77348 12.0595 7.81517 12.0781 7.86381C12.0967 7.91244 12.1061 7.96639 12.1061 8.02566L12.1061 8.06327C12.1061 8.12254 12.0968 8.1764 12.0784 8.22484C12.06 8.27328 12.034 8.31489 12.0003 8.34965C11.9667 8.38441 11.9265 8.4113 11.8798 8.43029C11.8331 8.44929 11.7816 8.45879 11.7254 8.45879L11.4717 8.45879ZM11.6427 7.76749L11.6427 8.32144L11.7254 8.32144C11.793 8.32144 11.8445 8.29912 11.8798 8.25448C11.9151 8.20983 11.9328 8.1461 11.9328 8.06327L11.9328 8.02452C11.9328 7.94017 11.9153 7.87625 11.8804 7.83275C11.8454 7.78924 11.7943 7.76749 11.7271 7.76749L11.6427 7.76749Z" fill="#ffffff" fill-rule="evenodd" opacity="1" stroke="none"/>
</g>
<path d="M7.16581 10.566L8 9.73177L8.83419 10.566L9.34859 10.566L8.1286 9.34596C8.05748 9.27484 7.94252 9.27484 7.8714 9.34596L6.65141 10.566L7.16581 10.566ZM5.81722 11.6573L10.1828 11.6573C10.2832 11.6573 10.3647 11.5759 10.3647 11.4754L10.3647 11.1116C10.3647 11.0112 10.2832 10.9297 10.1828 10.9297L5.81722 10.9297C5.71681 10.9297 5.63532 11.0112 5.63532 11.1116L5.63532 11.4754C5.63532 11.5759 5.71681 11.6573 5.81722 11.6573Z" fill="#ffffff" fill-rule="evenodd" opacity="1" stroke="none"/>
<path d="M5.81722 11.4754L6.13027 13.3543C6.15955 13.5296 6.31144 13.6582 6.48915 13.6582L9.51067 13.6582C9.68856 13.6582 9.84027 13.5296 9.86955 13.3543L10.1828 11.4754L5.81722 11.4754ZM8.8562 11.9678L7.9467 12.8773C7.91123 12.9128 7.86467 12.9306 7.8181 12.9306C7.77154 12.9306 7.72497 12.9128 7.6895 12.8773L7.3257 12.5135C7.25458 12.4424 7.25458 12.3275 7.3257 12.2563C7.39682 12.1852 7.51178 12.1852 7.58291 12.2563L7.8181 12.4915L8.59899 11.7106C8.67011 11.6395 8.78507 11.6395 8.8562 11.7106C8.92732 11.7818 8.92732 11.8967 8.8562 11.9678Z" fill="#ffffff" fill-rule="evenodd" opacity="1" stroke="none"/>
</g>
<g opacity="1">
<g opacity="1">
<path d="M4.82028 8.31664L4.33223 8.31664L4.33223 8.6471L4.90501 8.6471L4.90501 8.8513L4.07804 8.8513L4.07804 7.61761L4.90332 7.61761L4.90332 7.82351L4.33223 7.82351L4.33223 8.11752L4.82028 8.11752L4.82028 8.31664Z" fill="#ffffff" fill-rule="evenodd" opacity="1" stroke="none"/>
<path d="M6.03985 8.5971L5.59416 8.5971L5.50943 8.8513L5.23914 8.8513L5.69838 7.61761L5.93394 7.61761L6.39572 8.8513L6.12543 8.8513L6.03985 8.5971ZM5.6628 8.39121L5.97122 8.39121L5.81616 7.92942L5.6628 8.39121Z" fill="#ffffff" fill-rule="evenodd" opacity="1" stroke="none"/>
<path d="M7.25688 8.39968L7.05437 8.39968L7.05437 8.8513L6.80018 8.8513L6.80018 7.61761L7.25857 7.61761C7.32975 7.61761 7.39358 7.62566 7.45007 7.64176C7.50655 7.65786 7.55429 7.68158 7.59326 7.71293C7.63224 7.74428 7.66218 7.78312 7.68308 7.82944C7.70398 7.87576 7.71443 7.92942 7.71443 7.99043C7.71443 8.03562 7.70934 8.07615 7.69918 8.11202C7.68901 8.14789 7.67432 8.1798 7.65512 8.20776C7.63591 8.23572 7.61275 8.26015 7.58564 8.28106C7.55852 8.30196 7.52802 8.32003 7.49413 8.33528L7.76103 8.83944L7.76103 8.8513L7.48819 8.8513L7.25688 8.39968ZM7.05437 8.19378L7.25942 8.19378C7.29275 8.19378 7.32198 8.1894 7.34712 8.18065C7.37225 8.17189 7.39315 8.15947 7.40982 8.14337C7.42648 8.12727 7.43905 8.10806 7.44752 8.08575C7.456 8.06344 7.46023 8.03844 7.46023 8.01076C7.46023 7.95258 7.44371 7.90682 7.41067 7.8735C7.37762 7.84017 7.32692 7.82351 7.25857 7.82351L7.05437 7.82351L7.05437 8.19378Z" fill="#ffffff" fill-rule="evenodd" opacity="1" stroke="none"/>
<path d="M9.20005 8.8513L8.94586 8.8513L8.45103 8.03957L8.45103 8.8513L8.19683 8.8513L8.19683 7.61761L8.45103 7.61761L8.94671 8.43103L8.94671 7.61761L9.20005 7.61761L9.20005 8.8513Z" fill="#ffffff" fill-rule="evenodd" opacity="1" stroke="none"/>
<path d="M10.4535 8.31664L9.96546 8.31664L9.96546 8.6471L10.5382 8.6471L10.5382 8.8513L9.71127 8.8513L9.71127 7.61761L10.5366 7.61761L10.5366 7.82351L9.96546 7.82351L9.96546 8.11752L10.4535 8.11752L10.4535 8.31664Z" fill="#ffffff" fill-rule="evenodd" opacity="1" stroke="none"/>
<path d="M10.9766 8.8513L10.9766 7.61761L11.3562 7.61761C11.4392 7.61761 11.5153 7.63187 11.5845 7.6604C11.6537 7.68892 11.713 7.72903 11.7625 7.78072C11.8119 7.8324 11.8505 7.8944 11.8781 7.9667C11.9058 8.03901 11.9197 8.11922 11.9197 8.20734L11.9197 8.26326C11.9197 8.35138 11.906 8.43145 11.8786 8.50348C11.8512 8.5755 11.8125 8.63735 11.7625 8.68904C11.7125 8.74072 11.6527 8.78069 11.5833 8.80893C11.5138 8.83718 11.4372 8.8513 11.3536 8.8513L10.9766 8.8513ZM11.2308 7.82351L11.2308 8.6471L11.3536 8.6471C11.4542 8.6471 11.5307 8.61391 11.5833 8.54754C11.6358 8.48116 11.6621 8.3864 11.6621 8.26326L11.6621 8.20564C11.6621 8.08024 11.6361 7.9852 11.5841 7.92052C11.5321 7.85584 11.4562 7.82351 11.3562 7.82351L11.2308 7.82351Z" fill="#ffffff" fill-rule="evenodd" opacity="1" stroke="none"/>
</g>
<path d="M7.99884 10.4698C7.09565 10.4698 6.36346 11.202 6.36346 12.1052C6.36346 13.0084 7.09565 13.7405 7.99884 13.7405C8.90204 13.7405 9.63422 13.0084 9.63422 12.1052C9.63422 11.202 8.90204 10.4698 7.99884 10.4698ZM7.99884 10.7969C8.7214 10.7969 9.30715 11.3826 9.30715 12.1052C9.30715 12.8277 8.7214 13.4135 7.99884 13.4135C7.27629 13.4135 6.69054 12.8277 6.69054 12.1052C6.69054 11.3826 7.27629 10.7969 7.99884 10.7969ZM7.83531 11.2875L7.83531 12.9228L8.16238 12.9228L8.16238 11.2875L7.83531 11.2875ZM7.18115 11.9416L7.18115 12.2687L8.81653 12.2687L8.81653 11.9416L7.18115 11.9416Z" fill="#ffffff" fill-rule="evenodd" opacity="1" stroke="none"/>
</g>
<g opacity="0">
<path d="M7.98997 0.101433L3.57473 6.0781L3.57514 10.5935L3.57557 15.2417C3.5756 15.6159 4.01331 15.9057 4.53847 15.9056L8.05782 15.9053L11.4776 15.905C12.0027 15.905 12.4404 15.6151 12.4404 15.2409L12.4399 10.5927L12.4395 6.07728L7.98997 0.101433ZM7.9907 1.5955C8.42194 1.5955 8.78753 1.92788 8.78753 2.35913C8.78753 2.79037 8.42194 3.15596 7.9907 3.15596C7.55945 3.15596 7.22706 2.79037 7.22706 2.35913C7.22706 1.92788 7.55945 1.5955 7.9907 1.5955Z" fill="#ff0000" fill-rule="evenodd" opacity="1" stroke="none"/>
<path d="M12.4388 6.07696L12.4388 10.4798L12.4388 15.1143C12.4388 15.4885 11.9984 15.8095 11.4732 15.8095L7.95872 15.8095L5.48696 15.8095L12.4388 6.07696Z" fill="url(#LinearGradient_5)" fill-rule="evenodd" opacity="0.5" stroke="none"/>
</g>
<g opacity="0">
<path d="M7.52974 8.95741C7.52974 9.09178 7.51164 9.21227 7.47543 9.31888C7.43923 9.42549 7.38833 9.51581 7.32276 9.58983C7.25718 9.66386 7.17853 9.72078 7.08681 9.76061C6.99508 9.80044 6.8941 9.82035 6.78387 9.82035C6.67364 9.82035 6.57266 9.80044 6.48094 9.76061C6.38921 9.72078 6.31016 9.66386 6.24378 9.58983C6.1774 9.51581 6.1257 9.42549 6.08869 9.31888C6.05168 9.21227 6.03317 9.09178 6.03317 8.95741L6.03317 8.88017C6.03317 8.7466 6.05148 8.62632 6.08809 8.5193C6.1247 8.41229 6.17599 8.32137 6.24197 8.24654C6.30795 8.17171 6.3868 8.11438 6.47852 8.07456C6.57025 8.03473 6.67123 8.01481 6.78146 8.01481C6.89169 8.01481 6.99267 8.03473 7.08439 8.07456C7.17612 8.11438 7.25497 8.17171 7.32095 8.24654C7.38693 8.32137 7.43822 8.41229 7.47483 8.5193C7.51144 8.62632 7.52974 8.7466 7.52974 8.88017L7.52974 8.95741ZM7.16284 8.87776C7.16284 8.6935 7.12985 8.5535 7.06388 8.45775C6.9979 8.362 6.90376 8.31413 6.78146 8.31413C6.65916 8.31413 6.56502 8.362 6.49904 8.45775C6.43306 8.5535 6.40008 8.6935 6.40008 8.87776L6.40008 8.95741C6.40008 9.04914 6.40873 9.1302 6.42602 9.2006C6.44332 9.27101 6.46827 9.33015 6.50085 9.37802C6.53344 9.42589 6.57347 9.4621 6.62094 9.48664C6.66841 9.51118 6.72272 9.52345 6.78387 9.52345C6.90617 9.52345 6.99991 9.47518 7.06508 9.37862C7.13026 9.28207 7.16284 9.14167 7.16284 8.95741L7.16284 8.87776Z" fill="#ffffff" fill-rule="evenodd" opacity="1" stroke="none"/>
<path d="M9.83977 9.79621L9.4777 9.79621L8.77286 8.63999L8.77286 9.79621L8.41079 9.79621L8.41079 8.03895L8.77286 8.03895L9.47891 9.19759L9.47891 8.03895L9.83977 8.03895L9.83977 9.79621Z" fill="#ffffff" fill-rule="evenodd" opacity="1" stroke="none"/>
<path d="M5.14972 12.2318C5.14972 12.2012 5.14529 12.1736 5.13644 12.1491C5.12759 12.1245 5.11049 12.1018 5.08515 12.0809C5.0598 12.06 5.0248 12.0395 4.98014 12.0193C4.93549 11.9992 4.87776 11.9779 4.80695 11.9554C4.72649 11.9296 4.65066 11.9007 4.57945 11.8685C4.50824 11.8363 4.44588 11.7983 4.39238 11.7544C4.33887 11.7106 4.29663 11.6601 4.26565 11.603C4.23467 11.5458 4.21919 11.4791 4.21919 11.4026C4.21919 11.3294 4.23508 11.2624 4.26686 11.2017C4.29864 11.1409 4.3433 11.0892 4.40083 11.0466C4.45836 11.0039 4.52675 10.9707 4.606 10.947C4.68526 10.9233 4.77235 10.9114 4.8673 10.9114C4.96466 10.9114 5.05316 10.9249 5.13282 10.9518C5.21247 10.9788 5.28046 11.0164 5.33679 11.0647C5.39311 11.113 5.43656 11.1703 5.46713 11.2367C5.49771 11.303 5.513 11.3757 5.513 11.4545L5.15092 11.4545C5.15092 11.4175 5.14509 11.3833 5.13342 11.3519C5.12175 11.3205 5.10385 11.2936 5.07971 11.2711C5.05558 11.2485 5.0254 11.231 4.9892 11.2186C4.95299 11.2061 4.91034 11.1999 4.86126 11.1999C4.81379 11.1999 4.77256 11.2051 4.73755 11.2155C4.70255 11.226 4.67359 11.2405 4.65066 11.259C4.62773 11.2775 4.61043 11.2992 4.59876 11.3242C4.58709 11.3491 4.58126 11.3757 4.58126 11.4038C4.58126 11.4618 4.61083 11.5102 4.66997 11.5493C4.72911 11.5883 4.8158 11.6247 4.93006 11.6585C5.02581 11.6882 5.11009 11.7212 5.18291 11.7574C5.25572 11.7937 5.31647 11.8347 5.36515 11.8806C5.41383 11.9264 5.45064 11.9779 5.47558 12.035C5.50052 12.0922 5.513 12.1569 5.513 12.2293C5.513 12.3066 5.49791 12.3754 5.46774 12.4357C5.43756 12.4961 5.39472 12.547 5.3392 12.5884C5.28368 12.6298 5.2167 12.6616 5.13825 12.6838C5.0598 12.7059 4.9723 12.7169 4.87575 12.7169C4.81781 12.7169 4.75988 12.7119 4.70195 12.7019C4.64402 12.6918 4.5887 12.6763 4.536 12.6554C4.4833 12.6345 4.43442 12.6083 4.38936 12.5769C4.3443 12.5456 4.30508 12.5085 4.27169 12.4659C4.2383 12.4233 4.21215 12.3748 4.19324 12.3205C4.17433 12.2662 4.16488 12.206 4.16488 12.14L4.52816 12.14C4.52816 12.1931 4.5366 12.2382 4.5535 12.2752C4.5704 12.3122 4.59393 12.3422 4.62411 12.3651C4.65428 12.3881 4.69069 12.4048 4.73333 12.4152C4.77597 12.4257 4.82345 12.4309 4.87575 12.4309C4.92241 12.4309 4.96305 12.4259 4.99764 12.4158C5.03224 12.4058 5.06081 12.3919 5.08333 12.3742C5.10586 12.3565 5.12256 12.3354 5.13342 12.3108C5.14428 12.2863 5.14972 12.2599 5.14972 12.2318Z" fill="#ffffff" fill-rule="evenodd" opacity="1" stroke="none"/>
<path d="M7.36802 12.3307L6.73318 12.3307L6.61249 12.6928L6.22749 12.6928L6.88163 10.9355L7.21715 10.9355L7.87492 12.6928L7.48992 12.6928L7.36802 12.3307ZM6.83094 12.0374L7.27026 12.0374L7.04939 11.3797L6.83094 12.0374Z" fill="#ffffff" fill-rule="evenodd" opacity="1" stroke="none"/>
<path d="M9.01907 12.4019L9.78788 12.4019L9.78788 12.6928L8.657 12.6928L8.657 10.9355L9.01907 10.9355L9.01907 12.4019Z" fill="#ffffff" fill-rule="evenodd" opacity="1" stroke="none"/>
<path d="M11.6707 11.9312L10.9755 11.9312L10.9755 12.4019L11.7913 12.4019L11.7913 12.6928L10.6134 12.6928L10.6134 10.9355L11.7889 10.9355L11.7889 11.2288L10.9755 11.2288L10.9755 11.6476L11.6707 11.6476L11.6707 11.9312Z" fill="#ffffff" fill-rule="evenodd" opacity="1" stroke="none"/>
</g>
<g opacity="0">
<g opacity="1">
<path d="M4.25656 8.22038L4.10047 8.22038L4.10047 8.56846L3.90456 8.56846L3.90456 7.61761L4.25786 7.61761C4.31272 7.61761 4.36192 7.62381 4.40545 7.63622C4.44899 7.64863 4.48578 7.66691 4.51582 7.69108C4.54586 7.71524 4.56894 7.74517 4.58504 7.78087C4.60115 7.81657 4.60921 7.85793 4.60921 7.90495C4.60921 7.93978 4.60529 7.97102 4.59745 7.99867C4.58962 8.02631 4.5783 8.05091 4.56349 8.07246C4.54869 8.09401 4.53084 8.11284 4.50994 8.12895C4.48904 8.14506 4.46553 8.15899 4.43941 8.17075L4.64513 8.55932L4.64513 8.56846L4.43484 8.56846L4.25656 8.22038ZM4.10047 8.06169L4.25851 8.06169C4.2842 8.06169 4.30673 8.05831 4.32611 8.05157C4.34548 8.04482 4.36159 8.03524 4.37443 8.02283C4.38728 8.01042 4.39696 7.99562 4.40349 7.97842C4.41002 7.96123 4.41329 7.94196 4.41329 7.92063C4.41329 7.87578 4.40056 7.84052 4.37509 7.81483C4.34962 7.78914 4.31054 7.7763 4.25786 7.7763L4.10047 7.7763L4.10047 8.06169Z" fill="#ffffff" fill-rule="evenodd" opacity="1" stroke="none"/>
<path d="M5.5531 8.15638L5.17693 8.15638L5.17693 8.41107L5.6184 8.41107L5.6184 8.56846L4.98102 8.56846L4.98102 7.61761L5.6171 7.61761L5.6171 7.7763L5.17693 7.7763L5.17693 8.00291L5.5531 8.00291L5.5531 8.15638Z" fill="#ffffff" fill-rule="evenodd" opacity="1" stroke="none"/>
<path d="M5.95625 8.56846L5.95625 7.61761L6.24882 7.61761C6.31282 7.61761 6.37149 7.6286 6.42482 7.65059C6.47815 7.67257 6.52387 7.70349 6.56196 7.74332C6.60006 7.78316 6.62977 7.83094 6.65111 7.88667C6.67244 7.9424 6.68311 8.00422 6.68311 8.07214L6.68311 8.11524C6.68311 8.18316 6.67255 8.24487 6.65143 8.30038C6.63032 8.35589 6.60049 8.40356 6.56196 8.4434C6.52343 8.48324 6.47739 8.51404 6.42384 8.53581C6.37029 8.55758 6.3113 8.56846 6.24686 8.56846L5.95625 8.56846ZM6.15217 7.7763L6.15217 8.41107L6.24686 8.41107C6.32436 8.41107 6.38335 8.3855 6.42384 8.33434C6.46433 8.28318 6.48458 8.21015 6.48458 8.11524L6.48458 8.07083C6.48458 7.97418 6.46455 7.90093 6.42449 7.85108C6.38444 7.80123 6.32588 7.7763 6.24882 7.7763L6.15217 7.7763Z" fill="#ffffff" fill-rule="evenodd" opacity="1" stroke="none"/>
<path d="M7.62046 8.15638L7.2443 8.15638L7.2443 8.41107L7.68577 8.41107L7.68577 8.56846L7.04838 8.56846L7.04838 7.61761L7.68446 7.61761L7.68446 7.7763L7.2443 7.7763L7.2443 8.00291L7.62046 8.00291L7.62046 8.15638Z" fill="#ffffff" fill-rule="evenodd" opacity="1" stroke="none"/>
<path d="M8.5957 8.15638L8.21954 8.15638L8.21954 8.41107L8.661 8.41107L8.661 8.56846L8.02362 8.56846L8.02362 7.61761L8.6597 7.61761L8.6597 7.7763L8.21954 7.7763L8.21954 8.00291L8.5957 8.00291L8.5957 8.15638Z" fill="#ffffff" fill-rule="evenodd" opacity="1" stroke="none"/>
<path d="M9.25485 7.61761L9.4991 8.30724L9.74204 7.61761L9.99934 7.61761L9.99934 8.56846L9.80277 8.56846L9.80277 8.30854L9.82236 7.85989L9.56571 8.56846L9.43118 8.56846L9.17518 7.86055L9.19477 8.30854L9.19477 8.56846L8.99885 8.56846L8.99885 7.61761L9.25485 7.61761Z" fill="#ffffff" fill-rule="evenodd" opacity="1" stroke="none"/>
<path d="M10.9654 8.15638L10.5893 8.15638L10.5893 8.41107L11.0307 8.41107L11.0307 8.56846L10.3934 8.56846L10.3934 7.61761L11.0294 7.61761L11.0294 7.7763L10.5893 7.7763L10.5893 8.00291L10.9654 8.00291L10.9654 8.15638Z" fill="#ffffff" fill-rule="evenodd" opacity="1" stroke="none"/>
<path d="M11.3686 8.56846L11.3686 7.61761L11.6612 7.61761C11.7252 7.61761 11.7838 7.6286 11.8372 7.65059C11.8905 7.67257 11.9362 7.70349 11.9743 7.74332C12.0124 7.78316 12.0421 7.83094 12.0634 7.88667C12.0848 7.9424 12.0954 8.00422 12.0954 8.07214L12.0954 8.11524C12.0954 8.18316 12.0849 8.24487 12.0638 8.30038C12.0427 8.35589 12.0128 8.40356 11.9743 8.4434C11.9358 8.48324 11.8897 8.51404 11.8362 8.53581C11.7826 8.55758 11.7236 8.56846 11.6592 8.56846L11.3686 8.56846ZM11.5645 7.7763L11.5645 8.41107L11.6592 8.41107C11.7367 8.41107 11.7957 8.3855 11.8362 8.33434C11.8767 8.28318 11.8969 8.21015 11.8969 8.11524L11.8969 8.07083C11.8969 7.97418 11.8769 7.90093 11.8368 7.85108C11.7968 7.80123 11.7382 7.7763 11.6612 7.7763L11.5645 7.7763Z" fill="#ffffff" fill-rule="evenodd" opacity="1" stroke="none"/>
</g>
<path d="M7.22955 11.0852C7.22955 10.9437 7.11424 10.8284 6.97274 10.8284C6.83123 10.8284 6.71592 10.9437 6.71592 11.0852C6.71592 11.2267 6.83123 11.342 6.97274 11.342L7.22955 11.342L7.22955 11.0852ZM8 10.8284C7.85849 10.8284 7.74318 10.9437 7.74318 11.0852L7.74318 11.342L8 11.342C8.14151 11.342 8.25682 11.2267 8.25682 11.0852C8.25682 10.9437 8.14151 10.8284 8 10.8284ZM7.74318 10.362C7.82382 10.3332 7.9096 10.3147 8 10.3147C8.42477 10.3147 8.77045 10.6604 8.77045 11.0852C8.77045 11.1756 8.75196 11.2614 8.72319 11.342L10.5682 11.342L10.5682 10.0579C10.5682 9.77465 10.3378 9.54429 10.0545 9.54429L7.74318 9.54429L7.74318 10.362ZM7.22955 12.2188L6.71592 12.7324L6.35278 12.3693L6.86641 11.8556L5.43184 11.8556L5.43184 13.1397C5.43184 13.423 5.6622 13.6533 5.94547 13.6533L7.22955 13.6533L7.22955 12.2188ZM6.24954 11.342C6.22078 11.2614 6.20229 11.1756 6.20229 11.0852C6.20229 10.6604 6.54796 10.3147 6.97274 10.3147C7.06313 10.3147 7.14891 10.3332 7.22955 10.362L7.22955 9.54429L5.94547 9.54429C5.6622 9.54429 5.43184 9.77465 5.43184 10.0579L5.43184 11.342L6.24954 11.342ZM8.10632 11.8556L8.61995 12.3693L8.25682 12.7324L7.74318 12.2188L7.74318 13.6533L10.0545 13.6533C10.3378 13.6533 10.5682 13.423 10.5682 13.1397L10.5682 11.8556L8.10632 11.8556Z" fill="#ffffff" fill-rule="evenodd" opacity="1" stroke="none"/>
</g>
<g opacity="0">
<g opacity="1">
<path d="M5.22054 9.01571C5.22054 8.98333 5.21585 8.95415 5.20648 8.92817C5.19711 8.90218 5.179 8.87811 5.15217 8.85596C5.12533 8.83381 5.08827 8.81208 5.04098 8.79078C4.9937 8.76948 4.93257 8.74691 4.85759 8.72305C4.7724 8.69579 4.6921 8.66512 4.6167 8.63104C4.5413 8.59696 4.47527 8.5567 4.41861 8.51027C4.36195 8.46384 4.31723 8.41038 4.28442 8.34988C4.25162 8.28939 4.23522 8.21868 4.23522 8.13774C4.23522 8.06021 4.25205 7.98928 4.2857 7.92496C4.31936 7.86064 4.36664 7.8059 4.42756 7.76074C4.48847 7.71559 4.56089 7.68044 4.64481 7.65531C4.72873 7.63017 4.82096 7.61761 4.92149 7.61761C5.02458 7.61761 5.1183 7.63188 5.20265 7.66042C5.28699 7.68896 5.35898 7.72879 5.41862 7.77991C5.47826 7.83103 5.52427 7.89173 5.55664 7.96202C5.58902 8.03231 5.60521 8.1092 5.60521 8.19269L5.22182 8.19269C5.22182 8.1535 5.21564 8.11729 5.20328 8.08407C5.19093 8.05084 5.17197 8.0223 5.14641 7.99844C5.12086 7.97459 5.08891 7.95606 5.05057 7.94285C5.01223 7.92965 4.96707 7.92304 4.9151 7.92304C4.86484 7.92304 4.82117 7.92858 4.78411 7.93966C4.74705 7.95073 4.71638 7.96607 4.6921 7.98566C4.66782 8.00526 4.6495 8.02826 4.63714 8.05467C4.62479 8.08108 4.61861 8.1092 4.61861 8.13902C4.61861 8.20036 4.64992 8.25169 4.71254 8.29301C4.77516 8.33434 4.86697 8.37289 4.98795 8.40867C5.08933 8.44019 5.17858 8.47513 5.25568 8.51346C5.33279 8.5518 5.39711 8.59525 5.44865 8.64382C5.5002 8.69238 5.53918 8.74691 5.56559 8.8074C5.592 8.86789 5.60521 8.93647 5.60521 9.01315C5.60521 9.09494 5.58923 9.16779 5.55728 9.23168C5.52533 9.29558 5.47997 9.34947 5.42118 9.39335C5.36239 9.43722 5.29146 9.47088 5.2084 9.49431C5.12533 9.51774 5.03268 9.52945 4.93044 9.52945C4.8691 9.52945 4.80775 9.52413 4.74641 9.51348C4.68507 9.50283 4.62649 9.48643 4.57069 9.46427C4.51489 9.44212 4.46313 9.41443 4.41542 9.38121C4.36771 9.34798 4.32617 9.30879 4.29081 9.26363C4.25546 9.21848 4.22777 9.16715 4.20775 9.10964C4.18772 9.05213 4.17771 8.98844 4.17771 8.91858L4.56238 8.91858C4.56238 8.97481 4.57133 9.02252 4.58922 9.06171C4.60711 9.1009 4.63203 9.13264 4.66398 9.15692C4.69593 9.1812 4.73448 9.19888 4.77964 9.20996C4.82479 9.22103 4.87506 9.22657 4.93044 9.22657C4.97985 9.22657 5.02288 9.22125 5.05951 9.2106C5.09615 9.19995 5.12639 9.18525 5.15025 9.16651C5.1741 9.14776 5.19178 9.1254 5.20328 9.09941C5.21479 9.07343 5.22054 9.04553 5.22054 9.01571Z" fill="#ffffff" fill-rule="evenodd" opacity="1" stroke="none"/>
<path d="M7.8293 8.6157C7.8293 8.75798 7.81013 8.88557 7.77179 8.99845C7.73345 9.11134 7.67956 9.20698 7.61013 9.28536C7.54069 9.36374 7.45741 9.42402 7.36028 9.46619C7.26316 9.50836 7.15624 9.52945 7.03951 9.52945C6.92279 9.52945 6.81587 9.50836 6.71874 9.46619C6.62162 9.42402 6.53791 9.36374 6.46762 9.28536C6.39733 9.20698 6.34259 9.11134 6.3034 8.99845C6.26421 8.88557 6.24462 8.75798 6.24462 8.6157L6.24462 8.53391C6.24462 8.39248 6.264 8.26511 6.30276 8.1518C6.34153 8.03849 6.39584 7.94221 6.46571 7.86298C6.53557 7.78374 6.61906 7.72304 6.71619 7.68087C6.81331 7.63869 6.92024 7.61761 7.03696 7.61761C7.15368 7.61761 7.2606 7.63869 7.35773 7.68087C7.45485 7.72304 7.53835 7.78374 7.60821 7.86298C7.67807 7.94221 7.73239 8.03849 7.77115 8.1518C7.80992 8.26511 7.8293 8.39248 7.8293 8.53391L7.8293 8.6157ZM7.4408 8.53136C7.4408 8.33625 7.40587 8.18801 7.336 8.08662C7.26614 7.98524 7.16646 7.93454 7.03696 7.93454C6.90746 7.93454 6.80778 7.98524 6.73791 8.08662C6.66805 8.18801 6.63312 8.33625 6.63312 8.53136L6.63312 8.6157C6.63312 8.71283 6.64228 8.79866 6.6606 8.87321C6.67891 8.94776 6.70532 9.01038 6.73983 9.06107C6.77434 9.11177 6.81672 9.15011 6.86699 9.17609C6.91725 9.20208 6.97476 9.21507 7.03951 9.21507C7.16901 9.21507 7.26827 9.16395 7.33728 9.06171C7.40629 8.95948 7.4408 8.81081 7.4408 8.6157L7.4408 8.53136Z" fill="#ffffff" fill-rule="evenodd" opacity="1" stroke="none"/>
<path d="M8.9275 9.1959L9.74157 9.1959L9.74157 9.50389L8.54411 9.50389L8.54411 7.64317L8.9275 7.64317L8.9275 9.1959Z" fill="#ffffff" fill-rule="evenodd" opacity="1" stroke="none"/>
<path d="M10.3976 9.50389L10.3976 7.64317L10.9701 7.64317C11.0954 7.64317 11.2102 7.66468 11.3145 7.7077C11.4189 7.75073 11.5084 7.81122 11.5829 7.88918C11.6575 7.96713 11.7156 8.06064 11.7574 8.16969C11.7991 8.27874 11.82 8.39973 11.82 8.53263L11.82 8.61698C11.82 8.74989 11.7993 8.87066 11.758 8.97928C11.7167 9.08791 11.6583 9.1812 11.5829 9.25916C11.5075 9.33712 11.4174 9.39739 11.3126 9.43999C11.2078 9.48259 11.0924 9.50389 10.9663 9.50389L10.3976 9.50389ZM10.781 7.95371L10.781 9.1959L10.9663 9.1959C11.1179 9.1959 11.2334 9.14585 11.3126 9.04574C11.3919 8.94563 11.4315 8.80271 11.4315 8.61698L11.4315 8.53008C11.4315 8.34094 11.3923 8.19759 11.3139 8.10004C11.2355 8.00249 11.1209 7.95371 10.9701 7.95371L10.781 7.95371Z" fill="#ffffff" fill-rule="evenodd" opacity="1" stroke="none"/>
</g>
<path d="M8.61207 12.2599L7.30894 12.2599L7.30894 11.9342L8.61207 11.9342L8.61207 12.2599Z" fill="#ffffff" fill-rule="evenodd" opacity="1" stroke="none"/>
<path d="M8 13.7363C7.10182 13.7363 6.37109 13.0056 6.37109 12.1074C6.37109 11.2092 7.10182 10.4785 8 10.4785C8.89818 10.4785 9.62891 11.2092 9.62891 12.1074C9.62891 13.0056 8.89818 13.7363 8 13.7363ZM8 10.8043C7.28149 10.8043 6.69687 11.3889 6.69687 12.1074C6.69687 12.8259 7.28149 13.4105 8 13.4105C8.71851 13.4105 9.30313 12.8259 9.30313 12.1074C9.30313 11.3889 8.71851 10.8043 8 10.8043Z" fill="#ffffff" fill-rule="evenodd" opacity="1" stroke="none"/>
</g>
</g>
</svg>
