<svg class="svg-icon" style="width: 1em; height: 1em;vertical-align: middle;fill: currentColor;overflow: hidden;" viewBox="0 0 1024 1024" version="1.1" xmlns="http://www.w3.org/2000/svg"><path d="M510 183.14c-39.7 0-72 32.3-72 71.98 0 39.7 32.3 72 72 72s71.98-32.3 71.98-72c0-39.68-32.28-71.98-71.98-71.98z m0 123.98c-28.66 0-52-23.32-52-52 0-28.66 23.34-51.98 52-51.98s51.98 23.32 51.98 51.98c0 28.68-23.32 52-51.98 52z" fill="#23130D" /><path d="M999.14 829.54h-33.68V295.24c0-44.34-36.1-80.42-80.46-80.42H655.2c-1 0-1.92 0.18-2.82 0.46l-135.86-117.04c-0.06-0.06-0.14-0.08-0.22-0.14-0.28-0.24-0.58-0.42-0.88-0.62a10.36 10.36 0 0 0-0.78-0.5c-0.3-0.14-0.6-0.26-0.92-0.4-0.28-0.12-0.58-0.24-0.88-0.32-0.32-0.1-0.62-0.14-0.94-0.22-0.32-0.06-0.62-0.12-0.94-0.16-0.32-0.02-0.64-0.02-0.96-0.02s-0.64 0-0.96 0.02c-0.32 0.04-0.64 0.1-0.96 0.18-0.3 0.06-0.62 0.1-0.92 0.2-0.3 0.08-0.6 0.2-0.88 0.32-0.32 0.14-0.64 0.26-0.94 0.4-0.26 0.16-0.5 0.32-0.76 0.5-0.3 0.2-0.62 0.38-0.9 0.62-0.06 0.06-0.14 0.08-0.2 0.14l-135.34 116.58H139c-44.36 0-80.46 36.08-80.46 80.42v534.3H24.86c-5.52 0-10 4.46-10 10v43.68c0 3.84 2.18 7.32 5.64 9l72.08 34.96c1.36 0.66 2.86 1 4.36 1h830.12c1.5 0 3-0.34 4.36-1l72.08-34.96a9.984 9.984 0 0 0 5.64-9v-43.68c0-5.54-4.48-10-10-10zM510 119.02l262.38 226.04H247.6L510 119.02z m309.74 607.46h-19.8v-15.8c0-19.74-16.06-35.8-35.82-35.8h-6.96V459.4c8.76-4.44 14.8-13.54 14.8-24.02v-10.98h18.12c21.86 0 39.66-17.8 39.66-39.68v-29.66c0-5.52-4.48-10-10-10h-16.72l-63.54-54.76h157.92v495.54h-72.8c3.12-5.5 4.96-11.84 5.14-18.66v-0.22-30.48c0-5.52-4.46-10-10-10z m-624.2 59.36H126.6V290.3h153.92l-63.56 54.76h-16.7c-5.52 0-10 4.48-10 10v29.66c0 21.88 17.8 39.68 39.68 39.68h18.1v10.98c0 10.48 6.02 19.56 14.8 24.02v215.48h-6.96c-19.76 0-35.82 16.06-35.82 35.8v15.8h-19.8c-5.52 0-10 4.48-10 10v29.68c0 7.16 1.94 13.88 5.28 19.68z m370.02-110.96h-6.98V459.4c8.78-4.46 14.82-13.54 14.82-24.02v-10.98h71.8v10.98c0 10.48 6.02 19.56 14.8 24.02v215.48h-6.96c-19.76 0-35.82 16.06-35.82 35.8v15.8h-15.86v-15.8c0-19.74-16.06-35.8-35.8-35.8z m-198.6 0H360V459.4c8.76-4.44 14.8-13.52 14.8-24.02v-10.98h71.82v10.98c0 10.48 6.02 19.56 14.8 24.02v215.48h-6.96c-19.76 0-35.82 16.06-35.82 35.8v15.8h-15.86v-15.8c0-19.74-16.06-35.8-35.82-35.8z m-91.98-232.56c-3.84 0-6.94-3.12-6.94-6.94v-10.98h86.76v10.98c0 3.82-3.1 6.94-6.94 6.94h-72.88z m65.02 20v212.56h-57.16V462.32H340z m26.96 232.56c8.72 0 15.82 7.08 15.82 15.8v15.8h-142.72v-15.8c0-8.72 7.1-15.8 15.82-15.8h111.08z m71.68 15.8c0-8.72 7.1-15.8 15.82-15.8h111.1c8.7 0 15.8 7.08 15.8 15.8v15.8h-142.72v-15.8z m34.92-268.36c-3.84 0-6.94-3.12-6.94-6.94v-10.98h86.78v10.98a6.96 6.96 0 0 1-6.96 6.94h-72.88z m65.02 20v212.56h-57.16V462.32h57.16z m98.64 248.36c0-8.72 7.1-15.8 15.82-15.8h111.08c8.72 0 15.82 7.08 15.82 15.8v15.8h-142.72v-15.8z m42.78-35.8V462.32h57.16v212.56H680z m71.96-239.5c0 3.82-3.1 6.94-6.94 6.94h-72.88c-3.84 0-6.94-3.12-6.94-6.94v-10.98h86.76v10.98zM229.94 404.4h-0.02c-10.84 0-19.66-8.82-19.66-19.68v-19.66h599.48v19.66c0 10.86-8.82 19.68-19.8 19.68h-560z m-19.68 342.08h599.48V766.78c-0.34 10.52-9.14 19.06-19.66 19.06H229.94c-10.86 0-19.68-8.82-19.68-19.68v-19.68zM78.54 295.24c0-33.32 27.12-60.42 60.46-60.42h205.94l-41.2 35.48H116.6c-5.52 0-10 4.48-10 10v515.54c0 5.52 4.48 10 10 10h790.8c5.52 0 10-4.48 10-10V280.3c0-5.52-4.48-10-10-10h-191.14l-41.2-35.48H885c33.34 0 60.46 27.1 60.46 60.42v534.3H78.54V295.24z m910.6 581.72l-64.38 31.22H99.24l-64.38-31.22v-27.42h954.28v27.42z" fill="#23130D" /><path d="M751.96 424.4v10.98c0 3.82-3.1 6.94-6.94 6.94h-72.88c-3.84 0-6.94-3.12-6.94-6.94v-10.98h86.76zM553.4 424.4v10.98a6.96 6.96 0 0 1-6.96 6.94h-72.88c-3.84 0-6.94-3.12-6.94-6.94v-10.98h86.78zM354.8 424.4v10.98c0 3.82-3.1 6.94-6.94 6.94h-72.88c-3.84 0-6.94-3.12-6.94-6.94v-10.98h86.76z" fill="#E59D89" /><path d="M354.8 426.42v8.96c0 3.82-3.1 6.94-6.94 6.94h-72.88c-3.84 0-6.94-3.12-6.94-6.94v-8.96c0 3.82 3.1 6.94 6.94 6.94h72.88c3.84 0 6.94-3.12 6.94-6.94zM553.38 426.42v8.96c0 3.82-3.1 6.94-6.94 6.94h-72.88c-3.84 0-6.94-3.12-6.94-6.94v-8.96c0 3.82 3.1 6.94 6.94 6.94h72.88c3.84 0 6.94-3.12 6.94-6.94zM751.96 426.42v8.96c0 3.82-3.1 6.94-6.94 6.94h-72.88c-3.84 0-6.94-3.12-6.94-6.94v-8.96c0 3.82 3.1 6.94 6.94 6.94h72.88c3.84 0 6.94-3.12 6.94-6.94z" fill="#23130D" opacity=".2" /><path d="M809.74 746.48V766.78c-0.34 10.52-9.14 19.06-19.66 19.06H229.94c-10.86 0-19.68-8.82-19.68-19.68v-19.68h599.48z" fill="#F8D3C9" /><path d="M809.74 751.28v15.5c-0.34 10.52-9.14 19.06-19.66 19.06H229.94c-10.86 0-19.68-8.82-19.68-19.68v-15.5c0 10.86 8.82 19.68 19.68 19.68h560.14c10.52 0 19.32-8.54 19.66-19.06z" fill="#23130D" opacity=".2" /><path d="M779.94 710.68v15.8h-142.72v-15.8c0-8.72 7.1-15.8 15.82-15.8h111.08c8.72 0 15.82 7.08 15.82 15.8zM581.36 710.68v15.8h-142.72v-15.8c0-8.72 7.1-15.8 15.82-15.8h111.1c8.7 0 15.8 7.08 15.8 15.8zM382.78 710.68v15.8h-142.72v-15.8c0-8.72 7.1-15.8 15.82-15.8h111.08c8.72 0 15.82 7.08 15.82 15.8z" fill="#E59D89" /><path d="M382.78 710.68v15.8c0-8.72-7.1-15.8-15.82-15.8h-111.08c-8.72 0-15.82 7.08-15.82 15.8v-15.8c0-8.72 7.1-15.8 15.82-15.8h111.08c8.72 0 15.82 7.08 15.82 15.8zM581.36 710.68v15.8c0-8.72-7.1-15.8-15.82-15.8h-111.08c-8.72 0-15.82 7.08-15.82 15.8v-15.8c0-8.72 7.1-15.8 15.82-15.8h111.08c8.72 0 15.82 7.08 15.82 15.8zM779.94 710.68v15.8c0-8.72-7.1-15.8-15.82-15.8h-111.08c-8.72 0-15.82 7.08-15.82 15.8v-15.8c0-8.72 7.1-15.8 15.82-15.8h111.08c8.72 0 15.82 7.08 15.82 15.8z" fill="#23130D" opacity=".2" /><path d="M282.84 462.32H340v212.56h-57.16zM481.42 462.32h57.16v212.56h-57.16zM680 462.32h57.16v212.56H680z" fill="#CC7B5A" /><path d="M809.74 365.06v19.66c0 10.86-8.82 19.68-19.8 19.68h-560-0.02c-10.84 0-19.66-8.82-19.66-19.68v-19.66h599.48z" fill="#F8D3C9" /><path d="M809.74 369.22v15.5c0 10.86-8.82 19.68-19.8 19.68h-560-0.02c-10.84 0-19.66-8.82-19.66-19.68v-15.5c0 10.86 8.82 19.68 19.66 19.68h560.02c10.98 0 19.8-8.82 19.8-19.68z" fill="#23130D" opacity=".2" /><path d="M510 119.02L247.6 345.06h524.78L510 119.02z m0 208.1c-39.7 0-72-32.3-72-72 0-39.68 32.3-71.98 72-71.98s71.98 32.3 71.98 71.98c0 39.7-32.28 72-71.98 72z" fill="#CC7B5A" /><path d="M510 119.02L247.6 345.06h23.22L510 139.02l239.16 206.04h23.22L510 119.02z" fill="#FFFFFF" opacity=".4" /><path d="M749.16 325.06H527.1a72 72 0 0 1-34.2 0H270.82l-23.22 20h524.78l-23.22-20z" fill="#23130D" opacity=".2" /><path d="M561.98 255.12c0 28.68-23.32 52-51.98 52s-52-23.32-52-52c0-28.66 23.34-51.98 52-51.98s51.98 23.32 51.98 51.98z" fill="#E1E1E5" /><path d="M945.46 295.24v534.3H78.54V295.24c0-33.32 27.12-60.42 60.46-60.42h205.94l-41.2 35.48H116.6c-5.52 0-10 4.48-10 10v515.54c0 5.52 4.48 10 10 10h790.8c5.52 0 10-4.48 10-10V280.3c0-5.52-4.48-10-10-10h-191.14l-41.2-35.48H885c33.34 0 60.46 27.1 60.46 60.42z" fill="#E1E1E5" /><path d="M34.86 849.54v27.42l64.38 31.22h825.52l64.38-31.22v-27.42H34.86z m595.1 39.32H394.04c-5.52 0-10-4.48-10-10s4.48-10 10-10h235.92c5.52 0 10 4.48 10 10s-4.48 10-10 10z" fill="#636368" /><path d="M924.76 884.84h-286.8a9.952 9.952 0 0 1-8 4.02H394.04c-3.28 0-6.18-1.58-8-4.02H99.24l-64.38-31.22v23.34l64.38 31.22h825.52l64.38-31.22v-23.34l-64.38 31.22z" fill="#23130D" opacity=".2" /><path d="M897.4 290.3v495.54h-72.8c3.12-5.5 4.96-11.84 5.14-18.66v-0.22-30.48c0-1.74-0.46-3.4-1.24-4.82a10.026 10.026 0 0 0-3.98-3.98c-1.42-0.76-3.04-1.2-4.78-1.2h-19.8v-15.8c0-2.98-0.36-5.9-1.08-8.66-3.16-12.8-13.26-22.88-26.06-26.06a34.52 34.52 0 0 0-8.68-1.08h-6.96V459.4c8.76-4.44 14.8-13.54 14.8-24.02v-10.98h18.12c21.86 0 39.66-17.8 39.66-39.68v-29.66c0-5.52-4.48-10-10-10h-16.72l-63.54-54.76h157.92zM660 459.4v215.48h-6.96c-19.76 0-35.82 16.06-35.82 35.8v15.8h-15.86v-15.8c0-19.74-16.06-35.8-35.8-35.8h-6.98V459.4c8.78-4.46 14.82-13.54 14.82-24.02v-10.98h71.8v10.98c0 10.48 6.02 19.56 14.8 24.02zM461.42 459.4v215.48h-6.96c-19.76 0-35.82 16.06-35.82 35.8v15.8h-15.86v-15.8c0-19.74-16.06-35.8-35.82-35.8H360V459.4c8.76-4.44 14.8-13.52 14.8-24.02v-10.98h71.82v10.98c0 10.48 6.02 19.56 14.8 24.02zM190.26 384.72c0 21.88 17.8 39.68 39.68 39.68h18.1v10.98c0 0.82 0.04 1.62 0.12 2.4 0.82 9.46 6.58 17.5 14.68 21.62v215.48h-6.96c-19.76 0-35.82 16.06-35.82 35.8v15.8h-19.8c-5.52 0-10 4.48-10 10v29.68c0 7.16 1.94 13.88 5.28 19.68H126.6V290.3h153.92l-5.66 4.88-57.9 49.88h-16.7c-5.52 0-10 4.48-10 10v29.66z" fill="#3594BF" /><path d="M639.96 878.86c0 5.52-4.48 10-10 10H394.04c-5.52 0-10-4.48-10-10s4.48-10 10-10h235.92c5.52 0 10 4.48 10 10z" fill="#23130D" /><path d="M282.84 462.32h11.494v212.56h-11.494z" fill="#FFFFFF" opacity=".4" /><path d="M328.506 462.32H340v212.56h-11.494z" fill="#23130D" opacity=".2" /><path d="M481.42 462.32h11.494v212.56h-11.494z" fill="#FFFFFF" opacity=".4" /><path d="M527.086 462.32h11.494v212.56h-11.494z" fill="#23130D" opacity=".2" /><path d="M680 462.32h11.494v212.56H680z" fill="#FFFFFF" opacity=".4" /><path d="M725.666 462.32h11.494v212.56h-11.494zM78.54 813h866.92v16.54H78.54z" fill="#23130D" opacity=".2" /><path d="M262.84 459.4v139.34L126.6 462.5v-146.28l63.66 63.66v4.84c0 21.88 17.8 39.68 39.68 39.68h4.84l13.38 13.38c0.82 9.46 6.58 17.5 14.68 21.62zM461.42 651.06v23.82h-6.96c-19.76 0-35.82 16.06-35.82 35.8v15.8h-15.86v-15.8c0-19.74-16.06-35.8-35.82-35.8H360v-125.26l101.42 101.44zM270 290.3l4.86 4.88-57.9 49.88h-4.64l-54.76-54.76zM404.1 424.4l57.32 57.32v112.46L360 492.74V459.4c8.76-4.44 14.8-13.52 14.8-24.02v-10.98h29.3zM654.56 674.88h-1.52c-19.76 0-35.82 16.06-35.82 35.8v15.8h-15.86v-15.8c0-19.74-16.06-35.8-35.8-35.8h-6.98v-95.98l95.98 95.98zM660 459.4v103.76l-101.42-101.44v-2.32c8.78-4.46 14.82-13.54 14.82-24.02v-10.98h71.8v10.98c0 10.48 6.02 19.56 14.8 24.02zM897.4 613.64v172.2h-14.72l-54.18-54.18-29.64-29.64-26.06-26.06-15.64-15.64V473.4z" fill="#FFFFFF" opacity=".4" /></svg>