<svg xmlns="http://www.w3.org/2000/svg" viewBox="0 0 64 64"><path d="m59.61 38.26-14.33-14.1c-.37-.38-.78-.71-1.19-1.04 1.48 3.39 1.71 7.2.63 10.79l9.37 9.22a7.443 7.443 0 0 1 0 10.62 7.69 7.69 0 0 1-5.39 2.2c-1.95 0-3.9-.73-5.39-2.2L29.56 40.21a7.318 7.318 0 0 1-2.12-4.08v-.02c-.01-.01-.01-.02-.01-.04-.4-2.35.39-4.78 2.12-6.48a7.662 7.662 0 0 1 5.39-2.21c.16 0 .3.01.44.02a6.57 6.57 0 0 0-1.67-2.88l-3.93-3.86a14.864 14.864 0 0 0-9.4 9.44c-1.33 4.07-.82 8.49 1.41 12.13.62 1.03 1.37 1.98 2.26 2.85l14.31 14.09c5.86 5.77 15.39 5.77 21.24 0 5.86-5.76 5.86-15.15.01-20.91z"/><path d="m19.28 30.1-9.37-9.23c-1.45-1.41-2.23-3.3-2.23-5.31s.78-3.88 2.23-5.31a7.678 7.678 0 0 1 5.39-2.2c2.03 0 3.95.78 5.39 2.2L34.45 23.8a7.276 7.276 0 0 1 2.12 4.11l.01.01v.02c.39 2.35-.4 4.77-2.13 6.48a7.725 7.725 0 0 1-5.38 2.2c-.15 0-.3-.03-.44-.04.29 1.1.85 2.09 1.67 2.91l3.92 3.86c2.15-.72 4.13-1.92 5.73-3.51 1.7-1.67 2.97-3.71 3.69-5.92 1.32-4.06.81-8.46-1.39-12.1v-.01a.138.138 0 0 1-.03-.04c-.61-1.02-1.37-1.97-2.25-2.84L25.65 4.83C22.81 2.03 19.04.5 15.02.5 11 .5 7.23 2.04 4.39 4.83 1.57 7.63 0 11.34 0 15.29c.01 3.95 1.57 7.67 4.41 10.46l14.31 14.08c.38.38.78.72 1.2 1.05-1.49-3.38-1.72-7.2-.64-10.78z"/></svg>