<?xml version="1.0" encoding="UTF-8" standalone="no"?>
<!DOCTYPE svg PUBLIC "-//W3C//DTD SVG 1.1//EN" "http://www.w3.org/Graphics/SVG/1.1/DTD/svg11.dtd">
<!-- Created with Vectornator (http://vectornator.io/) -->
<svg height="100%" stroke-miterlimit="10" style="fill-rule:nonzero;clip-rule:evenodd;stroke-linecap:round;stroke-linejoin:round;" version="1.1" viewBox="0 0 16 16" width="100%" xml:space="preserve" xmlns="http://www.w3.org/2000/svg" xmlns:vectornator="http://vectornator.io" xmlns:xlink="http://www.w3.org/1999/xlink">
<defs>
<linearGradient gradientTransform="matrix(0 -0.186921 0.186921 0 -211.04 -314.198)" gradientUnits="userSpaceOnUse" id="LinearGradient" x1="-1742.12" x2="-1701.33" y1="1186.31" y2="1186.31">
<stop offset="0" stop-color="#1e76ba"/>
<stop offset="0.2397" stop-color="#1d71b7"/>
<stop offset="0.5427" stop-color="#2261ab"/>
<stop offset="0.8783" stop-color="#284897"/>
<stop offset="1" stop-color="#2b3c8f"/>
</linearGradient>
<linearGradient gradientTransform="matrix(0 -0.186921 -0.186921 0 -194.479 -314.198)" gradientUnits="userSpaceOnUse" id="LinearGradient_2" x1="-1721.72" x2="-1721.72" y1="-1054.36" y2="-1083.33">
<stop offset="0" stop-color="#29aae1"/>
<stop offset="0.4705" stop-color="#2aa7df"/>
<stop offset="0.6669" stop-color="#2aa1db"/>
<stop offset="0.8122" stop-color="#2694d2"/>
<stop offset="0.9317" stop-color="#2284c4"/>
<stop offset="1" stop-color="#1e76ba"/>
</linearGradient>
<linearGradient gradientTransform="matrix(0.0314278 0.181743 -0.181743 0.0314278 19.8695 -5.5886)" gradientUnits="userSpaceOnUse" id="LinearGradient_3" x1="62.2715" x2="62.2715" y1="115.912" y2="35.5527">
<stop offset="0" stop-color="#19b5ea"/>
<stop offset="0.3481" stop-color="#1d71b7"/>
<stop offset="0.5427" stop-color="#2261ab"/>
<stop offset="0.8783" stop-color="#284897"/>
<stop offset="1" stop-color="#2b3c8f"/>
</linearGradient>
<linearGradient gradientTransform="matrix(1.23809 0 0 1.23809 -6.38492 -0.984547)" gradientUnits="userSpaceOnUse" id="LinearGradient_4" x1="8.03125" x2="13.6562" y1="9.625" y2="9.625">
<stop offset="0" stop-color="#1e76ba"/>
<stop offset="0.2397" stop-color="#1d71b7"/>
<stop offset="0.5427" stop-color="#2261ab"/>
<stop offset="0.8783" stop-color="#284897"/>
<stop offset="1" stop-color="#2b3c8f"/>
</linearGradient>
<linearGradient gradientTransform="matrix(1 0 0 1 0 0)" gradientUnits="userSpaceOnUse" id="LinearGradient_5" x1="5.48696" x2="12.4388" y1="10.9432" y2="10.9432">
<stop offset="0" stop-color="#ff0000"/>
<stop offset="0" stop-color="#ff0000"/>
<stop offset="0" stop-color="#ff0000"/>
<stop offset="0" stop-color="#573876"/>
<stop offset="0" stop-color="#ff0000"/>
<stop offset="0" stop-color="#ff0000"/>
<stop offset="0" stop-color="#b00101"/>
<stop offset="1" stop-color="#5a0202"/>
</linearGradient>
</defs>
<g id="Layer-1" vectornator:layerName="Layer 1">
<g opacity="0">
<path d="M8.09576 0.554893C3.9614 0.554893 0.611245 3.90505 0.611246 8.0394C0.611246 12.1738 3.9614 15.5239 8.09576 15.5239C12.2301 15.5239 15.5803 12.1738 15.5803 8.0394C15.5803 3.90505 12.2301 0.554892 8.09576 0.554893ZM8.09576 1.2987C11.8193 1.2987 14.8365 4.31584 14.8365 8.0394C14.8365 11.763 11.8193 14.7801 8.09576 14.7801C4.37219 14.7801 1.35505 11.763 1.35505 8.0394C1.35505 4.31584 4.37219 1.29869 8.09576 1.2987Z" fill="#00a2ed" fill-rule="evenodd" opacity="1" stroke="none"/>
<path d="M5.20115 6.51681C4.34903 6.51681 3.65825 7.20759 3.65825 8.05971C3.65825 8.91183 4.34903 9.60262 5.20115 9.60262C6.05328 9.60262 6.74406 8.91183 6.74406 8.05971C6.74406 7.20759 6.05328 6.51681 5.20115 6.51681ZM9.91304 3.77227C9.0607 3.77198 8.3696 4.46285 8.3696 5.31518C8.3696 6.16751 9.0607 6.85838 9.91304 6.85808C10.7654 6.85838 11.4565 6.16751 11.4565 5.31518C11.4565 4.46285 10.7654 3.77198 9.91304 3.77227ZM9.91304 9.20972C9.06091 9.20972 8.37013 9.9005 8.37013 10.7526C8.37013 11.6047 9.06091 12.2955 9.91304 12.2955C10.7652 12.2955 11.4559 11.6047 11.4559 10.7526C11.4559 9.9005 10.7652 9.20972 9.91304 9.20972Z" fill="#00a2ed" fill-rule="evenodd" opacity="1" stroke="none"/>
<path d="M9.70471 4.90622L10.1218 5.62244L5.41062 8.36595L4.99354 7.64973L9.70471 4.90622Z" fill="#00a2ed" fill-rule="evenodd" opacity="1" stroke="none"/>
<path d="M5.41037 7.65018L10.1215 10.3937L9.70446 11.1099L4.99329 8.36639L5.41037 7.65018Z" fill="#00a2ed" fill-rule="evenodd" opacity="1" stroke="none"/>
</g>
<g opacity="0">
<path d="M3.80955 7.66674C3.80958 7.50507 3.87401 7.35008 3.9886 7.23605C4.10319 7.12201 4.2585 7.05833 4.42016 7.05908L5.43248 7.06239C5.76861 7.06239 6.04109 7.33487 6.04109 7.67099L6.04109 11.4991C6.1551 11.4653 6.30102 11.4293 6.46159 11.3915C6.69062 11.3376 6.8525 11.1332 6.85255 10.898L6.85255 6.14978C6.85255 5.81364 7.12502 5.54113 7.46116 5.54106L8.47655 5.54106C8.8127 5.54113 9.08516 5.81364 9.08516 6.14978L9.08516 10.5569C9.08516 10.5569 9.33918 10.4541 9.58648 10.3496C9.77434 10.2702 9.89647 10.0861 9.89662 9.88209L9.89662 4.62822C9.89662 4.29214 10.169 4.01968 10.5051 4.01962L11.5194 4.01962C11.8553 4.01995 12.1275 4.29233 12.1275 4.62822L12.1275 8.95459C13.0069 8.31728 13.8981 7.55071 14.6053 6.62901C14.8138 6.35726 14.8721 5.99916 14.7608 5.67528C13.8679 3.10641 11.5975 1.26462 8.89968 0.920699C6.20189 0.576777 3.54198 1.79004 2.03313 4.05273C0.524288 6.31542 0.426708 9.23733 1.78123 11.5956C1.95788 11.9002 2.29497 12.0748 2.64563 12.0434C2.83751 12.0265 3.07641 12.0027 3.36045 11.9694C3.61636 11.9402 3.80975 11.7238 3.81002 11.4663L3.81002 7.66674" fill="#00a2ed" fill-rule="evenodd" opacity="1" stroke="none"/>
<path d="M3.78793 13.806C5.96803 15.392 8.85376 15.6204 11.2562 14.3969C13.6585 13.1735 15.1711 10.7053 15.1706 8.00938C15.1706 7.84397 15.1629 7.68115 15.1519 7.51881C12.5333 11.4243 7.69829 13.2501 3.78793 13.806" fill="#00a2ed" fill-rule="evenodd" opacity="1" stroke="none"/>
</g>
<g opacity="0">
<path d="M9.30482 15.4348C5.21799 16.1421 1.33135 13.4018 0.624604 9.3139C-0.0821425 5.22688 2.65811 1.34043 6.74532 0.633493C10.832-0.0734403 14.719 2.66681 15.4261 6.75402C16.1327 10.8416 13.3924 14.7284 9.30482 15.4348Z" fill="#ffffff" fill-rule="evenodd" opacity="1" stroke="none"/>
<g opacity="1">
<path d="M8.01245 8.24471L13.421 11.4397L7.99264 3.81637L8.01245 8.24471Z" fill="url(#LinearGradient)" fill-rule="evenodd" opacity="1" stroke="none"/>
<path d="M8.01694 8.24471L2.60204 11.4397L7.99226 3.81637L8.01694 8.24471Z" fill="url(#LinearGradient_2)" fill-rule="evenodd" opacity="1" stroke="none"/>
</g>
</g>
<g opacity="0">
<path d="M9.32572 15.4112C5.29303 16.1081 1.45788 13.4043 0.760528 9.37127C0.0631763 5.33877 2.767 1.5038 6.80005 0.806631C10.8326 0.108727 14.6677 2.81255 15.3652 6.84579C16.0626 10.879 13.3584 14.7133 9.32572 15.4112Z" fill="url(#LinearGradient_3)" fill-rule="evenodd" opacity="1" stroke="none"/>
<g opacity="1">
<path d="M8.24345 8.27553L13.444 11.2167L8.22445 4.19932L8.24345 8.27553Z" fill="#c0bfbf" fill-rule="evenodd" opacity="1" stroke="none"/>
<path d="M8.24806 8.27553L3.04144 11.2167L8.22427 4.19969L8.24806 8.27553Z" fill="#ffffff" fill-rule="evenodd" opacity="1" stroke="none"/>
</g>
</g>
<g opacity="0">
<path d="M7.98221 0.0838973L3.55851 6.07087L3.55851 10.5944L3.55851 15.2509C3.55851 15.6257 3.99697 15.9161 4.52308 15.9161L8.04873 15.9161L11.4746 15.9161C12.0007 15.9161 12.4392 15.6258 12.4392 15.2509L12.4392 10.5944L12.4392 6.07087L7.98221 0.0838973ZM7.98221 1.58064C8.41423 1.58064 8.78048 1.91362 8.78048 2.34564C8.78048 2.77766 8.41423 3.1439 7.98221 3.1439C7.55019 3.1439 7.21721 2.77766 7.21721 2.34564C7.21721 1.91362 7.5502 1.58064 7.98221 1.58064Z" fill="#00a2ed" fill-rule="evenodd" opacity="1" stroke="none"/>
<path d="M3.55851 6.0571L3.55851 10.4678L3.55851 15.1107C3.55851 15.4855 3.99967 15.8071 4.52577 15.8071L8.04659 15.8071L10.5228 15.8071L3.55851 6.0571Z" fill="url(#LinearGradient_4)" fill-rule="evenodd" opacity="0.5" stroke="none"/>
</g>
<g opacity="0">
<path d="M6.25331 9.06363L5.55689 9.06363L5.55689 9.78303L5.19416 9.78303L5.19416 8.02261L6.34037 8.02261L6.34037 8.31642L5.55689 8.31642L5.55689 8.77103L6.25331 8.77103L6.25331 9.06363Z" fill="#ffffff" fill-rule="evenodd" opacity="1" stroke="none"/>
<path d="M8.61585 8.94272C8.61585 9.07733 8.59771 9.19803 8.56144 9.30484C8.52516 9.41164 8.47418 9.50212 8.40849 9.57627C8.3428 9.65043 8.264 9.70746 8.17212 9.74736C8.08023 9.78726 7.97907 9.80721 7.86864 9.80721C7.75821 9.80721 7.65705 9.78726 7.56516 9.74736C7.47327 9.70746 7.39408 9.65043 7.32758 9.57627C7.26108 9.50212 7.20929 9.41164 7.17221 9.30484C7.13513 9.19803 7.11659 9.07733 7.11659 8.94272L7.11659 8.86534C7.11659 8.73153 7.13493 8.61103 7.17161 8.50382C7.20828 8.39662 7.25967 8.30554 7.32576 8.23057C7.39186 8.15561 7.47085 8.09818 7.56274 8.05828C7.65463 8.01838 7.75579 7.99843 7.86622 7.99843C7.97665 7.99843 8.07781 8.01838 8.1697 8.05828C8.26159 8.09818 8.34058 8.15561 8.40668 8.23057C8.47277 8.30554 8.52416 8.39662 8.56083 8.50382C8.59751 8.61103 8.61585 8.73153 8.61585 8.86534L8.61585 8.94272ZM8.24829 8.86292C8.24829 8.67833 8.21524 8.53808 8.14914 8.44216C8.08305 8.34624 7.98874 8.29828 7.86622 8.29828C7.7437 8.29828 7.64939 8.34624 7.5833 8.44216C7.5172 8.53808 7.48415 8.67833 7.48415 8.86292L7.48415 8.94272C7.48415 9.03461 7.49282 9.11582 7.51015 9.18635C7.52748 9.25688 7.55246 9.31612 7.58511 9.36408C7.61775 9.41204 7.65786 9.44831 7.70541 9.4729C7.75297 9.49748 7.80738 9.50977 7.86864 9.50977C7.99116 9.50977 8.08506 9.46141 8.15035 9.36469C8.21564 9.26796 8.24829 9.1273 8.24829 8.94272L8.24829 8.86292Z" fill="#ffffff" fill-rule="evenodd" opacity="1" stroke="none"/>
<path d="M10.1502 9.13859L9.86119 9.13859L9.86119 9.78303L9.49847 9.78303L9.49847 8.02261L10.1526 8.02261C10.2541 8.02261 10.3452 8.0341 10.4258 8.05707C10.5064 8.08004 10.5745 8.1139 10.6302 8.15863C10.6858 8.20337 10.7285 8.25879 10.7583 8.32488C10.7881 8.39098 10.8031 8.46755 10.8031 8.55461C10.8031 8.61909 10.7958 8.67692 10.7813 8.72811C10.7668 8.77929 10.7458 8.82483 10.7184 8.86473C10.691 8.90463 10.658 8.93949 10.6193 8.96932C10.5806 8.99914 10.5371 9.02494 10.4887 9.0467L10.8696 9.7661L10.8696 9.78303L10.4802 9.78303L10.1502 9.13859ZM9.86119 8.84478L10.1538 8.84478C10.2013 8.84478 10.2431 8.83854 10.2789 8.82604C10.3148 8.81355 10.3446 8.79582 10.3684 8.77284C10.3922 8.74987 10.4101 8.72247 10.4222 8.69063C10.4343 8.65879 10.4403 8.62312 10.4403 8.58362C10.4403 8.5006 10.4168 8.43531 10.3696 8.38775C10.3225 8.3402 10.2501 8.31642 10.1526 8.31642L9.86119 8.31642L9.86119 8.84478Z" fill="#ffffff" fill-rule="evenodd" opacity="1" stroke="none"/>
<path d="M5.56172 12.6848L5.56172 10.9244L6.17835 10.9244C6.28072 10.9244 6.37221 10.9341 6.45281 10.9534C6.53342 10.9728 6.60173 11.0024 6.65775 11.0423C6.71377 11.0822 6.75649 11.1324 6.78591 11.1928C6.81533 11.2533 6.83004 11.3246 6.83004 11.4068C6.83004 11.4471 6.825 11.4858 6.81493 11.5229C6.80485 11.56 6.78954 11.5946 6.76898 11.6269C6.74843 11.6591 6.72243 11.6883 6.691 11.7145C6.65956 11.7407 6.62208 11.7623 6.57856 11.7792C6.63014 11.7921 6.67427 11.8117 6.71095 11.8378C6.74762 11.864 6.77785 11.8945 6.80163 11.9291C6.82541 11.9638 6.84274 12.0015 6.85362 12.0422C6.8645 12.0829 6.86994 12.1246 6.86994 12.1673C6.86994 12.3382 6.81493 12.4672 6.7049 12.5542C6.59488 12.6413 6.4383 12.6848 6.23518 12.6848L5.56172 12.6848ZM5.92445 11.9183L5.92445 12.3934L6.23518 12.3934C6.28193 12.3934 6.32223 12.3876 6.35609 12.3759C6.38994 12.3642 6.41815 12.3481 6.44072 12.3275C6.46329 12.307 6.48002 12.2828 6.4909 12.255C6.50178 12.2272 6.50722 12.1967 6.50722 12.1637C6.50722 12.1258 6.50238 12.0918 6.49271 12.0615C6.48304 12.0313 6.46792 12.0055 6.44737 11.9841C6.42682 11.9628 6.40002 11.9465 6.36697 11.9352C6.33392 11.9239 6.29442 11.9183 6.24848 11.9183L5.92445 11.9183ZM5.92445 11.6619L6.19286 11.6619C6.28556 11.6603 6.35447 11.6408 6.39961 11.6033C6.44475 11.5658 6.46732 11.5124 6.46732 11.4431C6.46732 11.3633 6.44415 11.3059 6.3978 11.2708C6.35145 11.2357 6.2783 11.2182 6.17835 11.2182L5.92445 11.2182L5.92445 11.6619Z" fill="#ffffff" fill-rule="evenodd" opacity="1" stroke="none"/>
<path d="M8.14672 12.6848L7.784 12.6848L7.784 10.9244L8.14672 10.9244L8.14672 12.6848Z" fill="#ffffff" fill-rule="evenodd" opacity="1" stroke="none"/>
<path d="M9.10189 12.6848L9.10189 10.9244L9.64356 10.9244C9.76205 10.9244 9.87066 10.9447 9.9694 10.9854C10.0681 11.0262 10.1528 11.0834 10.2233 11.1571C10.2938 11.2309 10.3489 11.3194 10.3883 11.4225C10.4278 11.5257 10.4476 11.6402 10.4476 11.7659L10.4476 11.8457C10.4476 11.9715 10.428 12.0857 10.389 12.1885C10.3499 12.2913 10.2946 12.3795 10.2233 12.4533C10.152 12.527 10.0667 12.584 9.96759 12.6244C9.86845 12.6647 9.75923 12.6848 9.63993 12.6848L9.10189 12.6848ZM9.46462 11.2182L9.46462 12.3934L9.63993 12.3934C9.78341 12.3934 9.89263 12.3461 9.96759 12.2514C10.0426 12.1566 10.08 12.0214 10.08 11.8457L10.08 11.7635C10.08 11.5845 10.043 11.4489 9.9688 11.3566C9.89464 11.2643 9.78623 11.2182 9.64356 11.2182L9.46462 11.2182Z" fill="#ffffff" fill-rule="evenodd" opacity="1" stroke="none"/>
</g>
<g opacity="0">
<g opacity="1">
<path d="M7.40704 11.3695L7.99884 10.7777L8.59065 11.3695L8.95559 11.3695L8.09008 10.504C8.03962 10.4535 7.95806 10.4535 7.90761 10.504L7.0421 11.3695L7.40704 11.3695ZM6.45029 12.1438L9.5474 12.1438C9.61863 12.1438 9.67644 12.086 9.67644 12.0147L9.67644 11.7566C9.67644 11.6854 9.61863 11.6276 9.5474 11.6276L6.45029 11.6276C6.37906 11.6276 6.32124 11.6854 6.32124 11.7566L6.32124 12.0147C6.32124 12.086 6.37906 12.1438 6.45029 12.1438Z" fill="#ffffff" fill-rule="evenodd" opacity="1" stroke="none"/>
<path d="M6.45029 12.0147L6.67238 13.3477C6.69316 13.4721 6.80091 13.5633 6.92699 13.5633L9.07057 13.5633C9.19678 13.5633 9.3044 13.4721 9.32518 13.3477L9.5474 12.0147L6.45029 12.0147ZM8.60626 12.3641L7.96103 13.0093C7.93587 13.0345 7.90283 13.0471 7.8698 13.0471C7.83676 13.0471 7.80373 13.0345 7.77856 13.0093L7.52047 12.7512C7.47001 12.7008 7.47001 12.6192 7.52047 12.5687C7.57093 12.5183 7.65248 12.5183 7.70294 12.5687L7.8698 12.7356L8.42379 12.1816C8.47425 12.1311 8.55581 12.1311 8.60626 12.1816C8.65672 12.2321 8.65672 12.3136 8.60626 12.3641Z" fill="#ffffff" fill-rule="evenodd" opacity="1" stroke="none"/>
</g>
<g opacity="1">
<path d="M4.40894 7.08385L4.40894 7.51218L4.15845 7.51218L4.15845 6.29648L4.63271 6.29648C4.70451 6.29648 4.76867 6.3065 4.82517 6.32654C4.88166 6.34658 4.92954 6.37455 4.96878 6.41045C5.00802 6.44635 5.03794 6.48894 5.05854 6.5382C5.07913 6.58746 5.08943 6.64104 5.08943 6.69893C5.08943 6.75793 5.07913 6.81109 5.05854 6.85841C5.03794 6.90572 5.00802 6.94608 4.96878 6.97948C4.92954 7.01287 4.88166 7.03862 4.82517 7.05671C4.76867 7.0748 4.70451 7.08385 4.63271 7.08385L4.40894 7.08385ZM4.40894 6.88095L4.63271 6.88095C4.66833 6.88095 4.69909 6.8765 4.72497 6.86759C4.75085 6.85868 4.77201 6.8463 4.78843 6.83044C4.80485 6.81457 4.81696 6.79551 4.82475 6.77324C4.83254 6.75097 4.83644 6.72676 4.83644 6.7006C4.83644 6.67444 4.83254 6.64925 4.82475 6.62504C4.81696 6.60082 4.80485 6.57939 4.78843 6.56074C4.77201 6.5421 4.75085 6.52721 4.72497 6.51607C4.69909 6.50494 4.66833 6.49937 4.63271 6.49937L4.40894 6.49937L4.40894 6.88095Z" fill="#ffffff" fill-rule="evenodd" opacity="1" stroke="none"/>
<path d="M6.43806 6.29648L6.43806 7.09887C6.43806 7.16901 6.42637 7.23094 6.40299 7.28465C6.37961 7.33837 6.34732 7.38332 6.30613 7.4195C6.26494 7.45568 6.21582 7.48296 6.15876 7.50132C6.10171 7.51969 6.0395 7.52888 5.97215 7.52888C5.90424 7.52888 5.84176 7.51969 5.7847 7.50132C5.72764 7.48296 5.67852 7.45568 5.63733 7.4195C5.59614 7.38332 5.56399 7.33837 5.54089 7.28465C5.51779 7.23094 5.50624 7.16901 5.50624 7.09887L5.50624 6.29648L5.75673 6.29648L5.75673 7.09887C5.75673 7.17847 5.77579 7.2365 5.81392 7.27296C5.85205 7.30942 5.90479 7.32765 5.97215 7.32765C6.04006 7.32765 6.0928 7.30942 6.13037 7.27296C6.16795 7.2365 6.18673 7.17847 6.18673 7.09887L6.18673 6.29648L6.43806 6.29648Z" fill="#ffffff" fill-rule="evenodd" opacity="1" stroke="none"/>
<path d="M7.35 7.06715L7.15044 7.06715L7.15044 7.51218L6.89995 7.51218L6.89995 6.29648L7.35167 6.29648C7.4218 6.29648 7.4847 6.30441 7.54037 6.32028C7.59603 6.33614 7.64307 6.35952 7.68148 6.39041C7.71988 6.42131 7.74939 6.45957 7.76998 6.50522C7.79058 6.55086 7.80087 6.60374 7.80087 6.66386C7.80087 6.70839 7.79586 6.74833 7.78585 6.78368C7.77583 6.81902 7.76135 6.85047 7.74243 6.87803C7.7235 6.90558 7.70068 6.92966 7.67396 6.95025C7.64724 6.97085 7.61718 6.98866 7.58379 7.00369L7.8468 7.50049L7.8468 7.51218L7.57794 7.51218L7.35 7.06715ZM7.15044 6.86425L7.3525 6.86425C7.38534 6.86425 7.41415 6.85994 7.43892 6.85131C7.46369 6.84268 7.48429 6.83044 7.50071 6.81457C7.51713 6.79871 7.52951 6.77978 7.53786 6.75779C7.54621 6.73581 7.55039 6.71118 7.55039 6.6839C7.55039 6.62657 7.53411 6.58148 7.50154 6.54864C7.46898 6.51579 7.41902 6.49937 7.35167 6.49937L7.15044 6.49937L7.15044 6.86425Z" fill="#ffffff" fill-rule="evenodd" opacity="1" stroke="none"/>
<path d="M8.70113 7.08885L8.23105 7.08885L8.23105 6.89431L8.70113 6.89431L8.70113 7.08885Z" fill="#ffffff" fill-rule="evenodd" opacity="1" stroke="none"/>
<path d="M5.11281 9.11112C5.10836 9.17291 5.09444 9.22969 5.07106 9.28146C5.04768 9.33322 5.0154 9.37762 4.97421 9.41463C4.93301 9.45165 4.88306 9.48059 4.82433 9.50147C4.76561 9.52234 4.69867 9.53278 4.62352 9.53278C4.54559 9.53278 4.4756 9.51928 4.41353 9.49228C4.35147 9.46529 4.29886 9.42646 4.25572 9.37581C4.21258 9.32515 4.17946 9.26378 4.15636 9.1917C4.13326 9.11961 4.12171 9.03876 4.12171 8.94914L4.12171 8.86899C4.12171 8.77937 4.13368 8.69838 4.15762 8.62601C4.18155 8.55365 4.21537 8.49214 4.25906 8.44149C4.30276 8.39083 4.35578 8.35187 4.41812 8.32459C4.48047 8.29732 4.55005 8.28368 4.62686 8.28368C4.70257 8.28368 4.7695 8.2944 4.82767 8.31583C4.88584 8.33726 4.93524 8.36704 4.97588 8.40517C5.01651 8.4433 5.04824 8.48866 5.07106 8.54127C5.09388 8.59387 5.10836 8.65106 5.11448 8.71285L4.86399 8.71285C4.86121 8.67667 4.85495 8.64466 4.8452 8.61683C4.83546 8.589 4.82141 8.56562 4.80304 8.54669C4.78467 8.52777 4.76101 8.51343 4.73207 8.50369C4.70312 8.49395 4.66805 8.48908 4.62686 8.48908C4.54225 8.48908 4.47921 8.51983 4.43775 8.58134C4.39628 8.64285 4.37554 8.73818 4.37554 8.86732L4.37554 8.94914C4.37554 9.01204 4.38013 9.06715 4.38932 9.11446C4.3985 9.16178 4.41297 9.2013 4.43274 9.23303C4.4525 9.26476 4.4781 9.28855 4.50955 9.30442C4.541 9.32028 4.57899 9.32821 4.62352 9.32821C4.66304 9.32821 4.69714 9.32376 4.72581 9.31485C4.75447 9.30595 4.77841 9.29245 4.79761 9.27436C4.81682 9.25627 4.83171 9.23358 4.84228 9.20631C4.85286 9.17903 4.85954 9.14731 4.86232 9.11112L5.11281 9.11112Z" fill="#ffffff" fill-rule="evenodd" opacity="1" stroke="none"/>
<path d="M6.52322 9.51608L6.27273 9.51608L6.27273 8.99507L5.78428 8.99507L5.78428 9.51608L5.5338 9.51608L5.5338 8.30038L5.78428 8.30038L5.78428 8.79301L6.27273 8.79301L6.27273 8.30038L6.52322 8.30038L6.52322 9.51608Z" fill="#ffffff" fill-rule="evenodd" opacity="1" stroke="none"/>
<path d="M7.69984 9.26559L7.26066 9.26559L7.17716 9.51608L6.91081 9.51608L7.36336 8.30038L7.59547 8.30038L8.05053 9.51608L7.78418 9.51608L7.69984 9.26559ZM7.32829 9.0627L7.63221 9.0627L7.47942 8.60764L7.32829 9.0627Z" fill="#ffffff" fill-rule="evenodd" opacity="1" stroke="none"/>
<path d="M9.05097 9.19713C9.05097 9.17597 9.04791 9.15691 9.04179 9.13993C9.03567 9.12295 9.02384 9.10723 9.0063 9.09276C8.98877 9.07828 8.96456 9.06409 8.93366 9.05017C8.90277 9.03626 8.86283 9.02151 8.81385 9.00592C8.75818 8.98811 8.70572 8.96807 8.65646 8.9458C8.60719 8.92354 8.56405 8.89724 8.52704 8.8669C8.49002 8.83656 8.4608 8.80163 8.43937 8.76211C8.41794 8.72259 8.40722 8.67639 8.40722 8.62351C8.40722 8.57285 8.41821 8.52651 8.4402 8.48449C8.46219 8.44246 8.49308 8.4067 8.53288 8.3772C8.57268 8.34769 8.62 8.32473 8.67483 8.30831C8.72965 8.29189 8.78991 8.28368 8.85559 8.28368C8.92295 8.28368 8.98418 8.293 9.03928 8.31165C9.09439 8.3303 9.14143 8.35632 9.18039 8.38972C9.21936 8.42312 9.24942 8.46278 9.27057 8.5087C9.29172 8.55462 9.3023 8.60486 9.3023 8.65941L9.05181 8.65941C9.05181 8.63381 9.04777 8.61015 9.0397 8.58844C9.03163 8.56673 9.01925 8.54808 9.00255 8.5325C8.98585 8.51691 8.96497 8.50481 8.93992 8.49618C8.91488 8.48755 8.88537 8.48324 8.85142 8.48324C8.81858 8.48324 8.79005 8.48685 8.76584 8.49409C8.74162 8.50133 8.72158 8.51135 8.70572 8.52415C8.68985 8.53695 8.67789 8.55198 8.66982 8.56924C8.66174 8.58649 8.65771 8.60486 8.65771 8.62434C8.65771 8.66442 8.67817 8.69796 8.71908 8.72496C8.75999 8.75195 8.81997 8.77714 8.89901 8.80052C8.96525 8.82112 9.02356 8.84394 9.07394 8.86899C9.12431 8.89404 9.16634 8.92242 9.20001 8.95415C9.23369 8.98588 9.25916 9.02151 9.27641 9.06103C9.29367 9.10055 9.3023 9.14536 9.3023 9.19546C9.3023 9.24889 9.29186 9.29649 9.27099 9.33823C9.25011 9.37998 9.22047 9.41519 9.18206 9.44386C9.14365 9.47252 9.09731 9.49451 9.04304 9.50982C8.98877 9.52512 8.92824 9.53278 8.86144 9.53278C8.82136 9.53278 8.78128 9.5293 8.7412 9.52234C8.70113 9.51538 8.66286 9.50467 8.6264 9.4902C8.58994 9.47572 8.55612 9.45763 8.52495 9.43592C8.49378 9.41421 8.46664 9.38861 8.44354 9.35911C8.42044 9.32961 8.40235 9.29607 8.38927 9.25849C8.37619 9.22092 8.36965 9.17931 8.36965 9.13367L8.62097 9.13367C8.62097 9.17041 8.62682 9.20158 8.6385 9.22718C8.65019 9.25279 8.66648 9.27352 8.68735 9.28939C8.70822 9.30525 8.73341 9.3168 8.76291 9.32404C8.79242 9.33128 8.82526 9.33489 8.86144 9.33489C8.89372 9.33489 8.92183 9.33141 8.94577 9.32446C8.96971 9.3175 8.98947 9.3079 9.00505 9.29565C9.02064 9.2834 9.03219 9.26879 9.0397 9.25181C9.04722 9.23484 9.05097 9.21661 9.05097 9.19713Z" fill="#ffffff" fill-rule="evenodd" opacity="1" stroke="none"/>
<path d="M10.4597 8.98922L9.97878 8.98922L9.97878 9.31485L10.5432 9.31485L10.5432 9.51608L9.72829 9.51608L9.72829 8.30038L10.5415 8.30038L10.5415 8.50327L9.97878 8.50327L9.97878 8.79301L10.4597 8.79301L10.4597 8.98922Z" fill="#ffffff" fill-rule="evenodd" opacity="1" stroke="none"/>
<path d="M10.9467 9.51608L10.9467 8.30038L11.3207 8.30038C11.4026 8.30038 11.4776 8.31443 11.5457 8.34255C11.6139 8.37066 11.6724 8.41018 11.7211 8.46111C11.7698 8.51204 11.8078 8.57313 11.8351 8.64438C11.8623 8.71563 11.876 8.79468 11.876 8.88151L11.876 8.93662C11.876 9.02345 11.8625 9.10236 11.8355 9.17333C11.8085 9.2443 11.7704 9.30525 11.7211 9.35618C11.6718 9.40712 11.613 9.4465 11.5445 9.47433C11.476 9.50216 11.4006 9.51608 11.3182 9.51608L10.9467 9.51608ZM11.1972 8.50327L11.1972 9.31485L11.3182 9.31485C11.4173 9.31485 11.4927 9.28215 11.5445 9.21675C11.5963 9.15134 11.6221 9.05797 11.6221 8.93662L11.6221 8.87984C11.6221 8.75627 11.5965 8.66261 11.5453 8.59888C11.4941 8.53514 11.4193 8.50327 11.3207 8.50327L11.1972 8.50327Z" fill="#ffffff" fill-rule="evenodd" opacity="1" stroke="none"/>
</g>
</g>
<g opacity="0">
<g opacity="1">
<path d="M4.82028 8.31664L4.33223 8.31664L4.33223 8.6471L4.90501 8.6471L4.90501 8.8513L4.07804 8.8513L4.07804 7.61761L4.90332 7.61761L4.90332 7.82351L4.33223 7.82351L4.33223 8.11752L4.82028 8.11752L4.82028 8.31664Z" fill="#ffffff" fill-rule="evenodd" opacity="1" stroke="none"/>
<path d="M6.03985 8.5971L5.59416 8.5971L5.50943 8.8513L5.23914 8.8513L5.69838 7.61761L5.93394 7.61761L6.39572 8.8513L6.12543 8.8513L6.03985 8.5971ZM5.6628 8.39121L5.97122 8.39121L5.81616 7.92942L5.6628 8.39121Z" fill="#ffffff" fill-rule="evenodd" opacity="1" stroke="none"/>
<path d="M7.25688 8.39968L7.05437 8.39968L7.05437 8.8513L6.80018 8.8513L6.80018 7.61761L7.25857 7.61761C7.32975 7.61761 7.39358 7.62566 7.45007 7.64176C7.50655 7.65786 7.55429 7.68158 7.59326 7.71293C7.63224 7.74428 7.66218 7.78312 7.68308 7.82944C7.70398 7.87576 7.71443 7.92942 7.71443 7.99043C7.71443 8.03562 7.70934 8.07615 7.69918 8.11202C7.68901 8.14789 7.67432 8.1798 7.65512 8.20776C7.63591 8.23572 7.61275 8.26015 7.58564 8.28106C7.55852 8.30196 7.52802 8.32003 7.49413 8.33528L7.76103 8.83944L7.76103 8.8513L7.48819 8.8513L7.25688 8.39968ZM7.05437 8.19378L7.25942 8.19378C7.29275 8.19378 7.32198 8.1894 7.34712 8.18065C7.37225 8.17189 7.39315 8.15947 7.40982 8.14337C7.42648 8.12727 7.43905 8.10806 7.44752 8.08575C7.456 8.06344 7.46023 8.03844 7.46023 8.01076C7.46023 7.95258 7.44371 7.90682 7.41067 7.8735C7.37762 7.84017 7.32692 7.82351 7.25857 7.82351L7.05437 7.82351L7.05437 8.19378Z" fill="#ffffff" fill-rule="evenodd" opacity="1" stroke="none"/>
<path d="M9.20005 8.8513L8.94586 8.8513L8.45103 8.03957L8.45103 8.8513L8.19683 8.8513L8.19683 7.61761L8.45103 7.61761L8.94671 8.43103L8.94671 7.61761L9.20005 7.61761L9.20005 8.8513Z" fill="#ffffff" fill-rule="evenodd" opacity="1" stroke="none"/>
<path d="M10.4535 8.31664L9.96546 8.31664L9.96546 8.6471L10.5382 8.6471L10.5382 8.8513L9.71127 8.8513L9.71127 7.61761L10.5366 7.61761L10.5366 7.82351L9.96546 7.82351L9.96546 8.11752L10.4535 8.11752L10.4535 8.31664Z" fill="#ffffff" fill-rule="evenodd" opacity="1" stroke="none"/>
<path d="M10.9766 8.8513L10.9766 7.61761L11.3562 7.61761C11.4392 7.61761 11.5153 7.63187 11.5845 7.6604C11.6537 7.68892 11.713 7.72903 11.7625 7.78072C11.8119 7.8324 11.8505 7.8944 11.8781 7.9667C11.9058 8.03901 11.9197 8.11922 11.9197 8.20734L11.9197 8.26326C11.9197 8.35138 11.906 8.43145 11.8786 8.50348C11.8512 8.5755 11.8125 8.63735 11.7625 8.68904C11.7125 8.74072 11.6527 8.78069 11.5833 8.80893C11.5138 8.83718 11.4372 8.8513 11.3536 8.8513L10.9766 8.8513ZM11.2308 7.82351L11.2308 8.6471L11.3536 8.6471C11.4542 8.6471 11.5307 8.61391 11.5833 8.54754C11.6358 8.48116 11.6621 8.3864 11.6621 8.26326L11.6621 8.20564C11.6621 8.08024 11.6361 7.9852 11.5841 7.92052C11.5321 7.85584 11.4562 7.82351 11.3562 7.82351L11.2308 7.82351Z" fill="#ffffff" fill-rule="evenodd" opacity="1" stroke="none"/>
</g>
<path d="M7.99884 10.4698C7.09565 10.4698 6.36346 11.202 6.36346 12.1052C6.36346 13.0084 7.09565 13.7405 7.99884 13.7405C8.90204 13.7405 9.63422 13.0084 9.63422 12.1052C9.63422 11.202 8.90204 10.4698 7.99884 10.4698ZM7.99884 10.7969C8.7214 10.7969 9.30715 11.3826 9.30715 12.1052C9.30715 12.8277 8.7214 13.4135 7.99884 13.4135C7.27629 13.4135 6.69054 12.8277 6.69054 12.1052C6.69054 11.3826 7.27629 10.7969 7.99884 10.7969ZM7.83531 11.2875L7.83531 12.9228L8.16238 12.9228L8.16238 11.2875L7.83531 11.2875ZM7.18115 11.9416L7.18115 12.2687L8.81653 12.2687L8.81653 11.9416L7.18115 11.9416Z" fill="#ffffff" fill-rule="evenodd" opacity="1" stroke="none"/>
</g>
<g opacity="1">
<path d="M7.98997 0.101433L3.57473 6.0781L3.57514 10.5935L3.57557 15.2417C3.5756 15.6159 4.01331 15.9057 4.53847 15.9056L8.05782 15.9053L11.4776 15.905C12.0027 15.905 12.4404 15.6151 12.4404 15.2409L12.4399 10.5927L12.4395 6.07728L7.98997 0.101433ZM7.9907 1.5955C8.42194 1.5955 8.78753 1.92788 8.78753 2.35913C8.78753 2.79037 8.42194 3.15596 7.9907 3.15596C7.55945 3.15596 7.22706 2.79037 7.22706 2.35913C7.22706 1.92788 7.55945 1.5955 7.9907 1.5955Z" fill="#ff0000" fill-rule="evenodd" opacity="1" stroke="none"/>
<path d="M12.4388 6.07696L12.4388 10.4798L12.4388 15.1143C12.4388 15.4885 11.9984 15.8095 11.4732 15.8095L7.95872 15.8095L5.48696 15.8095L12.4388 6.07696Z" fill="url(#LinearGradient_5)" fill-rule="evenodd" opacity="0.5" stroke="none"/>
</g>
<g opacity="1">
<path d="M5.14972 12.2318C5.14972 12.2012 5.14529 12.1736 5.13644 12.1491C5.12759 12.1245 5.11049 12.1018 5.08515 12.0809C5.0598 12.06 5.0248 12.0395 4.98014 12.0193C4.93549 11.9992 4.87776 11.9779 4.80695 11.9554C4.72649 11.9296 4.65066 11.9007 4.57945 11.8685C4.50824 11.8363 4.44588 11.7983 4.39238 11.7544C4.33887 11.7106 4.29663 11.6601 4.26565 11.603C4.23467 11.5458 4.21919 11.4791 4.21919 11.4026C4.21919 11.3294 4.23508 11.2624 4.26686 11.2017C4.29864 11.1409 4.3433 11.0892 4.40083 11.0466C4.45836 11.0039 4.52675 10.9707 4.606 10.947C4.68526 10.9233 4.77235 10.9114 4.8673 10.9114C4.96466 10.9114 5.05316 10.9249 5.13282 10.9518C5.21247 10.9788 5.28046 11.0164 5.33679 11.0647C5.39311 11.113 5.43656 11.1703 5.46713 11.2367C5.49771 11.303 5.513 11.3757 5.513 11.4545L5.15092 11.4545C5.15092 11.4175 5.14509 11.3833 5.13342 11.3519C5.12175 11.3205 5.10385 11.2936 5.07971 11.2711C5.05558 11.2485 5.0254 11.231 4.9892 11.2186C4.95299 11.2061 4.91034 11.1999 4.86126 11.1999C4.81379 11.1999 4.77256 11.2051 4.73755 11.2155C4.70255 11.226 4.67359 11.2405 4.65066 11.259C4.62773 11.2775 4.61043 11.2992 4.59876 11.3242C4.58709 11.3491 4.58126 11.3757 4.58126 11.4038C4.58126 11.4618 4.61083 11.5102 4.66997 11.5493C4.72911 11.5883 4.8158 11.6247 4.93006 11.6585C5.02581 11.6882 5.11009 11.7212 5.18291 11.7574C5.25572 11.7937 5.31647 11.8347 5.36515 11.8806C5.41383 11.9264 5.45064 11.9779 5.47558 12.035C5.50052 12.0922 5.513 12.1569 5.513 12.2293C5.513 12.3066 5.49791 12.3754 5.46774 12.4357C5.43756 12.4961 5.39472 12.547 5.3392 12.5884C5.28368 12.6298 5.2167 12.6616 5.13825 12.6838C5.0598 12.7059 4.9723 12.7169 4.87575 12.7169C4.81781 12.7169 4.75988 12.7119 4.70195 12.7019C4.64402 12.6918 4.5887 12.6763 4.536 12.6554C4.4833 12.6345 4.43442 12.6083 4.38936 12.5769C4.3443 12.5456 4.30508 12.5085 4.27169 12.4659C4.2383 12.4233 4.21215 12.3748 4.19324 12.3205C4.17433 12.2662 4.16488 12.206 4.16488 12.14L4.52816 12.14C4.52816 12.1931 4.5366 12.2382 4.5535 12.2752C4.5704 12.3122 4.59393 12.3422 4.62411 12.3651C4.65428 12.3881 4.69069 12.4048 4.73333 12.4152C4.77597 12.4257 4.82345 12.4309 4.87575 12.4309C4.92241 12.4309 4.96305 12.4259 4.99764 12.4158C5.03224 12.4058 5.06081 12.3919 5.08333 12.3742C5.10586 12.3565 5.12256 12.3354 5.13342 12.3108C5.14428 12.2863 5.14972 12.2599 5.14972 12.2318Z" fill="#ffffff" fill-rule="evenodd" opacity="1" stroke="none"/>
<path d="M7.36802 12.3307L6.73318 12.3307L6.61249 12.6928L6.22749 12.6928L6.88163 10.9355L7.21715 10.9355L7.87492 12.6928L7.48992 12.6928L7.36802 12.3307ZM6.83094 12.0374L7.27026 12.0374L7.04939 11.3797L6.83094 12.0374Z" fill="#ffffff" fill-rule="evenodd" opacity="1" stroke="none"/>
<path d="M9.01907 12.4019L9.78788 12.4019L9.78788 12.6928L8.657 12.6928L8.657 10.9355L9.01907 10.9355L9.01907 12.4019Z" fill="#ffffff" fill-rule="evenodd" opacity="1" stroke="none"/>
<path d="M11.6707 11.9312L10.9755 11.9312L10.9755 12.4019L11.7913 12.4019L11.7913 12.6928L10.6134 12.6928L10.6134 10.9355L11.7889 10.9355L11.7889 11.2288L10.9755 11.2288L10.9755 11.6476L11.6707 11.6476L11.6707 11.9312Z" fill="#ffffff" fill-rule="evenodd" opacity="1" stroke="none"/>
<path d="M10.1502 9.13859L9.86119 9.13859L9.86119 9.78303L9.49847 9.78303L9.49847 8.02261L10.1526 8.02261C10.2541 8.02261 10.3452 8.0341 10.4258 8.05707C10.5064 8.08004 10.5745 8.1139 10.6302 8.15863C10.6858 8.20337 10.7285 8.25879 10.7583 8.32488C10.7881 8.39098 10.8031 8.46755 10.8031 8.55461C10.8031 8.61909 10.7958 8.67692 10.7813 8.72811C10.7668 8.77929 10.7458 8.82483 10.7184 8.86473C10.691 8.90463 10.658 8.93949 10.6193 8.96932C10.5806 8.99914 10.5371 9.02494 10.4887 9.0467L10.8696 9.7661L10.8696 9.78303L10.4802 9.78303L10.1502 9.13859ZM9.86119 8.84478L10.1538 8.84478C10.2013 8.84478 10.2431 8.83854 10.2789 8.82604C10.3148 8.81355 10.3446 8.79582 10.3684 8.77284C10.3922 8.74987 10.4101 8.72247 10.4222 8.69063C10.4343 8.65879 10.4403 8.62312 10.4403 8.58362C10.4403 8.5006 10.4168 8.43531 10.3696 8.38775C10.3225 8.3402 10.2501 8.31642 10.1526 8.31642L9.86119 8.31642L9.86119 8.84478Z" fill="#ffffff" fill-rule="evenodd" opacity="1" stroke="none"/>
<path d="M8.61585 8.94272C8.61585 9.07733 8.59771 9.19803 8.56144 9.30484C8.52516 9.41164 8.47418 9.50212 8.40849 9.57627C8.3428 9.65043 8.264 9.70746 8.17212 9.74736C8.08023 9.78726 7.97907 9.80721 7.86864 9.80721C7.75821 9.80721 7.65705 9.78726 7.56516 9.74736C7.47327 9.70746 7.39408 9.65043 7.32758 9.57627C7.26108 9.50212 7.20929 9.41164 7.17221 9.30484C7.13513 9.19803 7.11659 9.07733 7.11659 8.94272L7.11659 8.86534C7.11659 8.73153 7.13493 8.61103 7.17161 8.50382C7.20828 8.39662 7.25967 8.30554 7.32576 8.23057C7.39186 8.15561 7.47085 8.09818 7.56274 8.05828C7.65463 8.01838 7.75579 7.99843 7.86622 7.99843C7.97665 7.99843 8.07781 8.01838 8.1697 8.05828C8.26159 8.09818 8.34058 8.15561 8.40668 8.23057C8.47277 8.30554 8.52416 8.39662 8.56083 8.50382C8.59751 8.61103 8.61585 8.73153 8.61585 8.86534L8.61585 8.94272ZM8.24829 8.86292C8.24829 8.67833 8.21524 8.53808 8.14914 8.44216C8.08305 8.34624 7.98874 8.29828 7.86622 8.29828C7.7437 8.29828 7.64939 8.34624 7.5833 8.44216C7.5172 8.53808 7.48415 8.67833 7.48415 8.86292L7.48415 8.94272C7.48415 9.03461 7.49282 9.11582 7.51015 9.18635C7.52748 9.25688 7.55246 9.31612 7.58511 9.36408C7.61775 9.41204 7.65786 9.44831 7.70541 9.4729C7.75297 9.49748 7.80738 9.50977 7.86864 9.50977C7.99116 9.50977 8.08506 9.46141 8.15035 9.36469C8.21564 9.26796 8.24829 9.1273 8.24829 8.94272L8.24829 8.86292Z" fill="#ffffff" fill-rule="evenodd" opacity="1" stroke="none"/>
<path d="M6.25331 9.06363L5.55689 9.06363L5.55689 9.78303L5.19416 9.78303L5.19416 8.02261L6.34037 8.02261L6.34037 8.31642L5.55689 8.31642L5.55689 8.77103L6.25331 8.77103L6.25331 9.06363Z" fill="#ffffff" fill-rule="evenodd" opacity="1" stroke="none"/>
</g>
<g opacity="0">
<path d="M7.40606 11.5835C7.40606 11.4744 7.31717 11.3855 7.20808 11.3855C7.099 11.3855 7.0101 11.4744 7.0101 11.5835C7.0101 11.6926 7.099 11.7815 7.20808 11.7815L7.40606 11.7815L7.40606 11.5835ZM8 11.3855C7.89091 11.3855 7.80202 11.4744 7.80202 11.5835L7.80202 11.7815L8 11.7815C8.10909 11.7815 8.19798 11.6926 8.19798 11.5835C8.19798 11.4744 8.10909 11.3855 8 11.3855ZM7.80202 11.026C7.86419 11.0038 7.93031 10.9896 8 10.9896C8.32746 10.9896 8.59394 11.256 8.59394 11.5835C8.59394 11.6532 8.57968 11.7193 8.55751 11.7815L9.97979 11.7815L9.97979 10.7916C9.97979 10.5732 9.80221 10.3956 9.58383 10.3956L7.80202 10.3956L7.80202 11.026ZM7.40606 12.4574L7.0101 12.8533L6.73016 12.5734L7.12612 12.1774L6.02021 12.1774L6.02021 13.1673C6.02021 13.3857 6.19779 13.5633 6.41617 13.5633L7.40606 13.5633L7.40606 12.4574ZM6.65057 11.7815C6.6284 11.7193 6.61414 11.6532 6.61414 11.5835C6.61414 11.256 6.88062 10.9896 7.20808 10.9896C7.27777 10.9896 7.3439 11.0038 7.40606 11.026L7.40606 10.3956L6.41617 10.3956C6.19779 10.3956 6.02021 10.5732 6.02021 10.7916L6.02021 11.7815L6.65057 11.7815ZM8.08196 12.1774L8.47792 12.5734L8.19798 12.8533L7.80202 12.4574L7.80202 13.5633L9.58383 13.5633C9.80221 13.5633 9.97979 13.3857 9.97979 13.1673L9.97979 12.1774L8.08196 12.1774Z" fill="#ffffff" fill-rule="evenodd" opacity="1" stroke="none"/>
<g opacity="1">
<path d="M4.59443 7.05544L4.39474 7.05544L4.39474 7.50077L4.14409 7.50077L4.14409 6.28426L4.5961 6.28426C4.66629 6.28426 4.72923 6.2922 4.78493 6.30807C4.84063 6.32395 4.8877 6.34734 4.92613 6.37826C4.96457 6.40917 4.99409 6.44746 5.0147 6.49314C5.03531 6.53881 5.04561 6.59173 5.04561 6.65189C5.04561 6.69645 5.0406 6.73641 5.03057 6.77178C5.02054 6.80715 5.00606 6.83863 4.98712 6.8662C4.96819 6.89377 4.94535 6.91786 4.91861 6.93847C4.89188 6.95908 4.8618 6.9769 4.82838 6.99194L5.09156 7.48908L5.09156 7.50077L4.82253 7.50077L4.59443 7.05544ZM4.39474 6.85241L4.59694 6.85241C4.6298 6.85241 4.65863 6.84809 4.68341 6.83946C4.7082 6.83083 4.72881 6.81857 4.74524 6.8027C4.76167 6.78682 4.77407 6.76789 4.78242 6.74588C4.79078 6.72388 4.79496 6.69923 4.79496 6.67194C4.79496 6.61457 4.77866 6.56945 4.74608 6.53659C4.71349 6.50372 4.6635 6.48729 4.5961 6.48729L4.39474 6.48729L4.39474 6.85241Z" fill="#ffffff" fill-rule="evenodd" opacity="1" stroke="none"/>
<path d="M6.22469 6.97356L5.74343 6.97356L5.74343 7.29941L6.30824 7.29941L6.30824 7.50077L5.49278 7.50077L5.49278 6.28426L6.30657 6.28426L6.30657 6.48729L5.74343 6.48729L5.74343 6.77721L6.22469 6.77721L6.22469 6.97356Z" fill="#ffffff" fill-rule="evenodd" opacity="1" stroke="none"/>
<path d="M7.16565 7.07717L6.69526 7.07717L6.69526 6.88249L7.16565 6.88249L7.16565 7.07717Z" fill="#ffffff" fill-rule="evenodd" opacity="1" stroke="none"/>
<path d="M4.14409 9.50601L4.14409 8.2895L4.5184 8.2895C4.60028 8.2895 4.67534 8.30357 4.74357 8.3317C4.8118 8.35982 4.87029 8.39937 4.91903 8.45034C4.96777 8.50131 5.00578 8.56244 5.03308 8.63373C5.06037 8.70503 5.07402 8.78413 5.07402 8.87102L5.07402 8.92617C5.07402 9.01306 5.06051 9.09202 5.0335 9.16303C5.00648 9.23405 4.96833 9.29505 4.91903 9.34601C4.86973 9.39698 4.81083 9.43639 4.74232 9.46424C4.67381 9.49209 4.59833 9.50601 4.51589 9.50601L4.14409 9.50601ZM4.39474 8.49253L4.39474 9.30466L4.51589 9.30466C4.61504 9.30466 4.69052 9.27193 4.74232 9.20648C4.79412 9.14103 4.82002 9.04759 4.82002 8.92617L4.82002 8.86935C4.82002 8.74569 4.7944 8.65198 4.74315 8.5882C4.69191 8.52442 4.61699 8.49253 4.5184 8.49253L4.39474 8.49253Z" fill="#ffffff" fill-rule="evenodd" opacity="1" stroke="none"/>
<path d="M6.24475 8.9788L5.76349 8.9788L5.76349 9.30466L6.3283 9.30466L6.3283 9.50601L5.51283 9.50601L5.51283 8.2895L6.32663 8.2895L6.32663 8.49253L5.76349 8.49253L5.76349 8.78246L6.24475 8.78246L6.24475 8.9788Z" fill="#ffffff" fill-rule="evenodd" opacity="1" stroke="none"/>
<path d="M7.46393 8.9788L6.98267 8.9788L6.98267 9.30466L7.54748 9.30466L7.54748 9.50601L6.73202 9.50601L6.73202 8.2895L7.54581 8.2895L7.54581 8.49253L6.98267 8.49253L6.98267 8.78246L7.46393 8.78246L7.46393 8.9788Z" fill="#ffffff" fill-rule="evenodd" opacity="1" stroke="none"/>
<path d="M8.27873 8.2895L8.59121 9.17181L8.90202 8.2895L9.23122 8.2895L9.23122 9.50601L8.97973 9.50601L8.97973 9.17348L9.00479 8.59948L8.67643 9.50601L8.50432 9.50601L8.1768 8.60031L8.20186 9.17348L8.20186 9.50601L7.95121 9.50601L7.95121 8.2895L8.27873 8.2895Z" fill="#ffffff" fill-rule="evenodd" opacity="1" stroke="none"/>
<path d="M10.4387 8.9788L9.95745 8.9788L9.95745 9.30466L10.5223 9.30466L10.5223 9.50601L9.70679 9.50601L9.70679 8.2895L10.5206 8.2895L10.5206 8.49253L9.95745 8.49253L9.95745 8.78246L10.4387 8.78246L10.4387 8.9788Z" fill="#ffffff" fill-rule="evenodd" opacity="1" stroke="none"/>
<path d="M10.926 9.50601L10.926 8.2895L11.3003 8.2895C11.3822 8.2895 11.4572 8.30357 11.5255 8.3317C11.5937 8.35982 11.6522 8.39937 11.7009 8.45034C11.7497 8.50131 11.7877 8.56244 11.815 8.63373C11.8423 8.70503 11.8559 8.78413 11.8559 8.87102L11.8559 8.92617C11.8559 9.01306 11.8424 9.09202 11.8154 9.16303C11.7884 9.23405 11.7502 9.29505 11.7009 9.34601C11.6516 9.39698 11.5927 9.43639 11.5242 9.46424C11.4557 9.49209 11.3802 9.50601 11.2978 9.50601L10.926 9.50601ZM11.1766 8.49253L11.1766 9.30466L11.2978 9.30466C11.3969 9.30466 11.4724 9.27193 11.5242 9.20648C11.576 9.14103 11.6019 9.04759 11.6019 8.92617L11.6019 8.86935C11.6019 8.74569 11.5763 8.65198 11.525 8.5882C11.4738 8.52442 11.3989 8.49253 11.3003 8.49253L11.1766 8.49253Z" fill="#ffffff" fill-rule="evenodd" opacity="1" stroke="none"/>
</g>
</g>
<g opacity="0">
<g opacity="1">
<path d="M5.22054 9.01571C5.22054 8.98333 5.21585 8.95415 5.20648 8.92817C5.19711 8.90218 5.179 8.87811 5.15217 8.85596C5.12533 8.83381 5.08827 8.81208 5.04098 8.79078C4.9937 8.76948 4.93257 8.74691 4.85759 8.72305C4.7724 8.69579 4.6921 8.66512 4.6167 8.63104C4.5413 8.59696 4.47527 8.5567 4.41861 8.51027C4.36195 8.46384 4.31723 8.41038 4.28442 8.34988C4.25162 8.28939 4.23522 8.21868 4.23522 8.13774C4.23522 8.06021 4.25205 7.98928 4.2857 7.92496C4.31936 7.86064 4.36664 7.8059 4.42756 7.76074C4.48847 7.71559 4.56089 7.68044 4.64481 7.65531C4.72873 7.63017 4.82096 7.61761 4.92149 7.61761C5.02458 7.61761 5.1183 7.63188 5.20265 7.66042C5.28699 7.68896 5.35898 7.72879 5.41862 7.77991C5.47826 7.83103 5.52427 7.89173 5.55664 7.96202C5.58902 8.03231 5.60521 8.1092 5.60521 8.19269L5.22182 8.19269C5.22182 8.1535 5.21564 8.11729 5.20328 8.08407C5.19093 8.05084 5.17197 8.0223 5.14641 7.99844C5.12086 7.97459 5.08891 7.95606 5.05057 7.94285C5.01223 7.92965 4.96707 7.92304 4.9151 7.92304C4.86484 7.92304 4.82117 7.92858 4.78411 7.93966C4.74705 7.95073 4.71638 7.96607 4.6921 7.98566C4.66782 8.00526 4.6495 8.02826 4.63714 8.05467C4.62479 8.08108 4.61861 8.1092 4.61861 8.13902C4.61861 8.20036 4.64992 8.25169 4.71254 8.29301C4.77516 8.33434 4.86697 8.37289 4.98795 8.40867C5.08933 8.44019 5.17858 8.47513 5.25568 8.51346C5.33279 8.5518 5.39711 8.59525 5.44865 8.64382C5.5002 8.69238 5.53918 8.74691 5.56559 8.8074C5.592 8.86789 5.60521 8.93647 5.60521 9.01315C5.60521 9.09494 5.58923 9.16779 5.55728 9.23168C5.52533 9.29558 5.47997 9.34947 5.42118 9.39335C5.36239 9.43722 5.29146 9.47088 5.2084 9.49431C5.12533 9.51774 5.03268 9.52945 4.93044 9.52945C4.8691 9.52945 4.80775 9.52413 4.74641 9.51348C4.68507 9.50283 4.62649 9.48643 4.57069 9.46427C4.51489 9.44212 4.46313 9.41443 4.41542 9.38121C4.36771 9.34798 4.32617 9.30879 4.29081 9.26363C4.25546 9.21848 4.22777 9.16715 4.20775 9.10964C4.18772 9.05213 4.17771 8.98844 4.17771 8.91858L4.56238 8.91858C4.56238 8.97481 4.57133 9.02252 4.58922 9.06171C4.60711 9.1009 4.63203 9.13264 4.66398 9.15692C4.69593 9.1812 4.73448 9.19888 4.77964 9.20996C4.82479 9.22103 4.87506 9.22657 4.93044 9.22657C4.97985 9.22657 5.02288 9.22125 5.05951 9.2106C5.09615 9.19995 5.12639 9.18525 5.15025 9.16651C5.1741 9.14776 5.19178 9.1254 5.20328 9.09941C5.21479 9.07343 5.22054 9.04553 5.22054 9.01571Z" fill="#ffffff" fill-rule="evenodd" opacity="1" stroke="none"/>
<path d="M7.8293 8.6157C7.8293 8.75798 7.81013 8.88557 7.77179 8.99845C7.73345 9.11134 7.67956 9.20698 7.61013 9.28536C7.54069 9.36374 7.45741 9.42402 7.36028 9.46619C7.26316 9.50836 7.15624 9.52945 7.03951 9.52945C6.92279 9.52945 6.81587 9.50836 6.71874 9.46619C6.62162 9.42402 6.53791 9.36374 6.46762 9.28536C6.39733 9.20698 6.34259 9.11134 6.3034 8.99845C6.26421 8.88557 6.24462 8.75798 6.24462 8.6157L6.24462 8.53391C6.24462 8.39248 6.264 8.26511 6.30276 8.1518C6.34153 8.03849 6.39584 7.94221 6.46571 7.86298C6.53557 7.78374 6.61906 7.72304 6.71619 7.68087C6.81331 7.63869 6.92024 7.61761 7.03696 7.61761C7.15368 7.61761 7.2606 7.63869 7.35773 7.68087C7.45485 7.72304 7.53835 7.78374 7.60821 7.86298C7.67807 7.94221 7.73239 8.03849 7.77115 8.1518C7.80992 8.26511 7.8293 8.39248 7.8293 8.53391L7.8293 8.6157ZM7.4408 8.53136C7.4408 8.33625 7.40587 8.18801 7.336 8.08662C7.26614 7.98524 7.16646 7.93454 7.03696 7.93454C6.90746 7.93454 6.80778 7.98524 6.73791 8.08662C6.66805 8.18801 6.63312 8.33625 6.63312 8.53136L6.63312 8.6157C6.63312 8.71283 6.64228 8.79866 6.6606 8.87321C6.67891 8.94776 6.70532 9.01038 6.73983 9.06107C6.77434 9.11177 6.81672 9.15011 6.86699 9.17609C6.91725 9.20208 6.97476 9.21507 7.03951 9.21507C7.16901 9.21507 7.26827 9.16395 7.33728 9.06171C7.40629 8.95948 7.4408 8.81081 7.4408 8.6157L7.4408 8.53136Z" fill="#ffffff" fill-rule="evenodd" opacity="1" stroke="none"/>
<path d="M8.9275 9.1959L9.74157 9.1959L9.74157 9.50389L8.54411 9.50389L8.54411 7.64317L8.9275 7.64317L8.9275 9.1959Z" fill="#ffffff" fill-rule="evenodd" opacity="1" stroke="none"/>
<path d="M10.3976 9.50389L10.3976 7.64317L10.9701 7.64317C11.0954 7.64317 11.2102 7.66468 11.3145 7.7077C11.4189 7.75073 11.5084 7.81122 11.5829 7.88918C11.6575 7.96713 11.7156 8.06064 11.7574 8.16969C11.7991 8.27874 11.82 8.39973 11.82 8.53263L11.82 8.61698C11.82 8.74989 11.7993 8.87066 11.758 8.97928C11.7167 9.08791 11.6583 9.1812 11.5829 9.25916C11.5075 9.33712 11.4174 9.39739 11.3126 9.43999C11.2078 9.48259 11.0924 9.50389 10.9663 9.50389L10.3976 9.50389ZM10.781 7.95371L10.781 9.1959L10.9663 9.1959C11.1179 9.1959 11.2334 9.14585 11.3126 9.04574C11.3919 8.94563 11.4315 8.80271 11.4315 8.61698L11.4315 8.53008C11.4315 8.34094 11.3923 8.19759 11.3139 8.10004C11.2355 8.00249 11.1209 7.95371 10.9701 7.95371L10.781 7.95371Z" fill="#ffffff" fill-rule="evenodd" opacity="1" stroke="none"/>
</g>
<path d="M8.61207 12.2599L7.30894 12.2599L7.30894 11.9342L8.61207 11.9342L8.61207 12.2599Z" fill="#ffffff" fill-rule="evenodd" opacity="1" stroke="none"/>
<path d="M8 13.7363C7.10182 13.7363 6.37109 13.0056 6.37109 12.1074C6.37109 11.2092 7.10182 10.4785 8 10.4785C8.89818 10.4785 9.62891 11.2092 9.62891 12.1074C9.62891 13.0056 8.89818 13.7363 8 13.7363ZM8 10.8043C7.28149 10.8043 6.69687 11.3889 6.69687 12.1074C6.69687 12.8259 7.28149 13.4105 8 13.4105C8.71851 13.4105 9.30313 12.8259 9.30313 12.1074C9.30313 11.3889 8.71851 10.8043 8 10.8043Z" fill="#ffffff" fill-rule="evenodd" opacity="1" stroke="none"/>
</g>
</g>
</svg>
