<?xml version="1.0" encoding="UTF-8" standalone="no"?>
<!DOCTYPE svg PUBLIC "-//W3C//DTD SVG 1.1//EN" "http://www.w3.org/Graphics/SVG/1.1/DTD/svg11.dtd">

<!-- Created with Vectornator (http://vectornator.io/) -->
<svg height="100%" stroke-miterlimit="10" style="fill-rule:nonzero;clip-rule:evenodd;stroke-linecap:round;stroke-linejoin:round;" version="1.1" viewBox="0 0 16 16" width="100%" xml:space="preserve" xmlns="http://www.w3.org/2000/svg" xmlns:vectornator="http://vectornator.io" xmlns:xlink="http://www.w3.org/1999/xlink">
<metadata>
<vectornator:setting key="IsTimeLapseWatermarkDisabled" value="false"/>
<vectornator:setting key="UndoHistoryDisabled" value="true"/>
<vectornator:setting key="VNDimensionsVisible" value="true"/>
<vectornator:setting key="VNSnapToGuides" value="true"/>
<vectornator:setting key="WDCMYKEnabledKey" value="false"/>
<vectornator:setting key="WDDisplayWhiteBackground" value="false"/>
<vectornator:setting key="WDDynamicGuides" value="false"/>
<vectornator:setting key="WDGuidesVisible" value="true"/>
<vectornator:setting key="WDIsolateActiveLayer" value="false"/>
<vectornator:setting key="WDOutlineMode" value="false"/>
<vectornator:setting key="WDRulersVisible" value="true"/>
<vectornator:setting key="WDSnapToEdges" value="false"/>
<vectornator:setting key="WDSnapToGrid" value="false"/>
<vectornator:setting key="WDSnapToPoints" value="false"/>
<vectornator:setting key="WDUnits" value="Pixels"/>
</metadata>
<defs/>
<g id="Layer-1" vectornator:layerName="Layer 1">
<g opacity="0">
<path d="M9.87074 3.43563C9.11326 3.43563 8.49921 4.04968 8.49921 4.80716C8.49921 5.56463 9.11326 6.17869 9.87074 6.17869C10.6282 6.17869 11.2423 5.56463 11.2423 4.80716C11.2423 4.04968 10.6282 3.43563 9.87074 3.43563ZM9.87074 9.8361C9.11326 9.8361 8.49921 10.4502 8.49921 11.2076C8.49921 11.9651 9.11326 12.5792 9.87074 12.5792C10.6282 12.5792 11.2423 11.9651 11.2423 11.2076C11.2423 10.4502 10.6282 9.8361 9.87074 9.8361ZM4.38462 6.63587C3.62714 6.63587 3.01309 7.24992 3.01309 8.00739C3.01309 8.76487 3.62714 9.37892 4.38462 9.37892C5.14209 9.37892 5.75615 8.76487 5.75615 8.00739C5.75615 7.24992 5.14209 6.63587 4.38462 6.63587Z" fill="#ffffff" fill-rule="evenodd" opacity="1" stroke="#ffffff" stroke-linecap="round" stroke-linejoin="round" stroke-width="1"/>
<path d="M9.87074 11.2076L4.38462 8.00739L9.87074 4.80716" fill="none" fill-rule="evenodd" opacity="1" stroke="#ffffff" stroke-linecap="butt" stroke-linejoin="miter" stroke-width="1"/>
<path d="M1.16559 8.00739C1.16559 4.21828 4.23727 1.14659 8.02639 1.14659C11.8155 1.14659 14.8872 4.21828 14.8872 8.00739C14.8872 11.7965 11.8155 14.8682 8.02639 14.8682C4.23727 14.8682 1.16559 11.7965 1.16559 8.00739Z" fill="none" fill-rule="evenodd" opacity="1" stroke="#ffffff" stroke-linecap="round" stroke-linejoin="round" stroke-width="1"/>
</g>
<g opacity="1">
<path d="M8.09576 0.554893C3.9614 0.554893 0.611245 3.90505 0.611246 8.0394C0.611246 12.1738 3.9614 15.5239 8.09576 15.5239C12.2301 15.5239 15.5803 12.1738 15.5803 8.0394C15.5803 3.90505 12.2301 0.554892 8.09576 0.554893ZM8.09576 1.2987C11.8193 1.2987 14.8365 4.31584 14.8365 8.0394C14.8365 11.763 11.8193 14.7801 8.09576 14.7801C4.37219 14.7801 1.35505 11.763 1.35505 8.0394C1.35505 4.31584 4.37219 1.29869 8.09576 1.2987Z" fill="#00a2ed" fill-rule="evenodd" opacity="1" stroke="none"/>
<path d="M5.20115 6.51681C4.34903 6.51681 3.65825 7.20759 3.65825 8.05971C3.65825 8.91183 4.34903 9.60262 5.20115 9.60262C6.05328 9.60262 6.74406 8.91183 6.74406 8.05971C6.74406 7.20759 6.05328 6.51681 5.20115 6.51681ZM9.91304 3.77227C9.0607 3.77198 8.3696 4.46285 8.3696 5.31518C8.3696 6.16751 9.0607 6.85838 9.91304 6.85808C10.7654 6.85838 11.4565 6.16751 11.4565 5.31518C11.4565 4.46285 10.7654 3.77198 9.91304 3.77227ZM9.91304 9.20972C9.06091 9.20972 8.37013 9.9005 8.37013 10.7526C8.37013 11.6047 9.06091 12.2955 9.91304 12.2955C10.7652 12.2955 11.4559 11.6047 11.4559 10.7526C11.4559 9.9005 10.7652 9.20972 9.91304 9.20972Z" fill="#00a2ed" fill-rule="evenodd" opacity="1" stroke="none"/>
<path d="M9.70471 4.90622L10.1218 5.62244L5.41062 8.36595L4.99354 7.64973L9.70471 4.90622Z" fill="#00a2ed" fill-rule="evenodd" opacity="1" stroke="none"/>
<path d="M5.41037 7.65018L10.1215 10.3937L9.70446 11.1099L4.99329 8.36639L5.41037 7.65018Z" fill="#00a2ed" fill-rule="evenodd" opacity="1" stroke="none"/>
</g>
<g opacity="0">
<path d="M12.8553 3.86124C11.6565 2.66173 10.0622 2.00064 8.36369 2C4.86369 2 2.01526 4.84717 2.01398 8.34716C2.01335 9.46594 2.30576 10.558 2.86133 11.5204L2 14.7134L5.32646 13.9271C6.2539 14.4331 7.29767 14.6994 8.36051 14.7L8.36306 14.7C11.8624 14.7 14.7109 11.8522 14.7128 8.35289C14.714 6.65628 14.0542 5.06139 12.8553 3.86124ZM8.36115 13.4287C7.5138 13.4281 6.67472 13.2145 5.93543 12.8108L5.50763 12.5775L5.03405 12.6894L3.78305 12.985L4.08881 11.851L4.22612 11.3412L3.96231 10.8841C3.51862 10.1162 3.28469 9.23901 3.28532 8.34716C3.2866 5.54895 5.5642 3.27134 8.36306 3.27134C9.72085 3.27198 10.9966 3.80085 11.9559 4.75944C12.9151 5.7193 13.4427 6.99509 13.4414 8.35161C13.4402 11.1511 11.1619 13.4287 8.36115 13.4287Z" fill="#00a2ed" fill-rule="evenodd" opacity="1" stroke="none"/>
<path d="M11.4702 10.6159C11.338 10.9865 10.6902 11.3437 10.3991 11.3698C10.108 11.3965 9.83527 11.5014 8.49528 10.9731C6.88258 10.3374 5.86424 8.68407 5.78542 8.57855C5.70596 8.47239 5.13767 7.71849 5.13767 6.93788C5.13767 6.15728 5.54767 5.77334 5.69324 5.61505C5.83881 5.45614 6.01044 5.41673 6.1166 5.41673C6.22212 5.41673 6.32828 5.41673 6.42045 5.42054C6.5336 5.42499 6.65882 5.43071 6.7777 5.69451C6.91881 6.00853 7.22711 6.79295 7.26653 6.87241C7.30594 6.95187 7.33264 7.04468 7.27987 7.1502C7.22711 7.25572 7.20042 7.32183 7.12159 7.41464C7.04213 7.50744 6.95505 7.62123 6.88385 7.69242C6.80439 7.77125 6.72176 7.8577 6.81393 8.01598C6.90674 8.1749 7.22457 8.69424 7.69624 9.11442C8.30267 9.65474 8.81311 9.82192 8.97203 9.90201C9.13095 9.98147 9.22312 9.96812 9.31593 9.86197C9.40873 9.75644 9.71258 9.3992 9.8181 9.24028C9.92363 9.08136 10.0298 9.10806 10.1754 9.16082C10.3209 9.21358 11.1009 9.59753 11.2592 9.67699C11.4181 9.75644 11.5236 9.79586 11.563 9.86197C11.6024 9.92744 11.6024 10.2453 11.4702 10.6159Z" fill="#00a2ed" fill-rule="evenodd" opacity="1" stroke="none"/>
</g>
</g>
</svg>
